<?xml version="1.0" standalone="no"?>
<!DOCTYPE svg PUBLIC "-//W3C//DTD SVG 1.1//EN" "http://www.w3.org/Graphics/SVG/1.1/DTD/svg11.dtd" >
<svg xmlns="http://www.w3.org/2000/svg">
<metadata></metadata>
<defs>
<font id="hermescond_regularregular" horiz-adv-x="1294" >
<font-face units-per-em="2048" ascent="1630" descent="-418" />
<missing-glyph horiz-adv-x="655" />
<glyph unicode="&#xfb01;" horiz-adv-x="1339" d="M20 1012q0 37 26 62.5t60 25.5h166v74q0 78 22.5 144t64.5 115.5t99.5 77t129.5 27.5q80 0 131 -25.5t84 -66.5q29 -35 28 -74q0 -39 -21.5 -61.5t-59.5 -22.5q-37 0 -72 35q-18 18 -36.5 29.5t-53.5 11.5q-59 0 -91 -51t-32 -139v-74h563q41 0 68.5 -28t27.5 -68v-908 q0 -41 -27.5 -68.5t-68.5 -27.5t-68.5 27.5t-27.5 68.5v830h-467v-830q0 -41 -27.5 -68.5t-68.5 -27.5t-69 27.5t-28 68.5v830h-163q-37 0 -63 25.5t-26 60.5zM881 1442q0 59 44 103t103 44t103.5 -44t44.5 -103t-44.5 -103.5t-103.5 -44.5t-103 44t-44 104z" />
<glyph unicode="&#xfb02;" horiz-adv-x="1368" d="M20 1012q0 37 26 62.5t60 25.5h166v74q0 78 23.5 144t67 115.5t101.5 77t130 27.5q82 0 136 -29.5t89 -74.5q12 -16 20.5 -37t8.5 -37q0 -37 -23.5 -61.5t-60.5 -24.5q-20 0 -36.5 10t-33.5 27q-29 29 -47 41t-53 12q-59 0 -94 -51t-35 -139v-74h223q37 0 62.5 -25.5 t25.5 -60.5q0 -37 -25.5 -62.5t-60.5 -25.5h-225v-830q0 -41 -27.5 -68.5t-68.5 -27.5t-69 27.5t-28 68.5v830h-163q-37 0 -63 25.5t-26 60.5zM961 96v1288q0 41 27.5 69t68.5 28t68.5 -28t27.5 -69v-1288q0 -41 -27.5 -68.5t-68.5 -27.5t-68.5 27.5t-27.5 68.5z" />
<glyph horiz-adv-x="0" />
<glyph horiz-adv-x="0" />
<glyph unicode="&#xd;" horiz-adv-x="655" />
<glyph unicode=" "  horiz-adv-x="655" />
<glyph unicode="&#x09;" horiz-adv-x="655" />
<glyph unicode="&#xa0;" horiz-adv-x="655" />
<glyph unicode="!" horiz-adv-x="882" d="M256 172q0 78 53 131t131 53q76 0 129.5 -53t53.5 -131q0 -76 -53.5 -129t-129.5 -53q-78 0 -131 53t-53 129zM258 172q0 78 53.5 131t128.5 53q78 0 131.5 -53t53.5 -131q0 -76 -53.5 -129t-131.5 -53q-76 0 -129 53t-53 129zM322 1374q0 45 36.5 76t81.5 31t82 -32 t37 -79q0 -18 -2 -79.5t-5 -143.5t-6 -174t-6 -173t-5.5 -140.5t-2.5 -75.5q-2 -39 -27.5 -65.5t-64.5 -26.5t-64.5 26.5t-27.5 65.5q0 16 -2 75.5t-5 140.5t-6 173t-6 175t-5 144.5t-2 81.5z" />
<glyph unicode="&#x22;" horiz-adv-x="1058" d="M215 1372q0 49 35 84t84 35t84 -35t35 -84q0 -8 -3.5 -45t-9.5 -88t-13 -112.5t-13 -120t-12.5 -107.5t-8.5 -76q-4 -25 -20.5 -39t-40.5 -14q-23 0 -39.5 13.5t-20.5 39.5q-4 29 -9 78t-11 107.5t-13.5 119t-12.5 112.5t-8 88t-3 44zM606 1372q0 49 35 84t84 35t84 -35 t35 -84q0 -8 -3 -45t-9.5 -88t-13.5 -112.5t-13 -120t-12.5 -107.5t-8.5 -76q-4 -25 -20 -39t-41 -14q-23 0 -39 13.5t-20 39.5q-4 29 -9.5 78t-11.5 107.5t-13 119t-12.5 112.5t-8.5 88t-3 44z" />
<glyph unicode="#" horiz-adv-x="1519" d="M184 367q0 33 22.5 55t55.5 22h209l49 230h-178q-33 0 -55.5 22.5t-22.5 55.5t22.5 55t55.5 22h211l45 209q6 27 27.5 44.5t48.5 17.5q33 0 55.5 -19.5t22.5 -54.5q0 -12 -2 -20l-37 -177h202l46 209q6 27 27.5 44.5t47.5 17.5q33 0 55.5 -19.5t22.5 -54.5q0 -12 -2 -20 l-39 -177h187q33 0 55 -22.5t22 -54.5q0 -33 -22.5 -55.5t-54.5 -22.5h-220l-49 -230h189q33 0 55 -22.5t22 -54.5q0 -33 -22.5 -55.5t-54.5 -22.5h-222l-47 -228q-6 -29 -27.5 -45t-47.5 -16q-33 0 -56.5 20.5t-23.5 53.5v6t2 14l43 195h-203l-49 -228q-6 -29 -26.5 -45 t-49.5 -16q-33 0 -55.5 22.5t-22.5 55.5q0 10 2 16l41 195h-176q-33 0 -55.5 22.5t-22.5 55.5zM631 444h203l49 230h-203z" />
<glyph unicode="$" horiz-adv-x="1331" d="M152 281q0 39 26.5 65.5t67.5 26.5q51 0 90 -49q72 -92 161 -128t191 -36q129 0 215 61.5t86 179.5q0 106 -71.5 164t-192.5 92l-188 56q-90 27 -158 58.5t-113 77.5t-68.5 107.5t-23.5 147.5q0 76 29.5 143.5t85 119.5t134.5 86t177 44v182q0 35 23.5 58.5t58.5 23.5 t58.5 -23.5t23.5 -58.5v-184q119 -16 202 -61t136 -101q31 -35 31 -69q0 -41 -24 -64.5t-62 -23.5q-45 0 -89 36q-61 51 -132.5 81t-157.5 30q-47 0 -99.5 -11.5t-96.5 -38t-72.5 -67.5t-28.5 -100q0 -90 57 -135t164 -76l176 -51q80 -23 154.5 -53.5t134 -79.5t95.5 -122 t38 -179q0 -88 -31 -162t-86 -129.5t-134 -91t-175 -45.5v-146q0 -35 -23.5 -58.5t-58.5 -23.5t-58.5 23.5t-23.5 58.5v146q-129 14 -238.5 69t-181.5 152q-29 41 -28 78z" />
<glyph unicode="%" horiz-adv-x="1761" d="M180 1184q0 66 24.5 124t67.5 101t101.5 67.5t124.5 24.5t124 -24.5t101 -67.5t67.5 -101.5t24.5 -123.5q0 -66 -24.5 -123t-67.5 -100t-101.5 -68t-123.5 -25q-66 0 -124.5 25t-101.5 68t-67.5 100t-24.5 123zM326 -162q0 25 10 43l956 1772q23 43 68 43q23 0 43 -10 q41 -23 41 -70q0 -8 -3 -19.5t-7 -19.5l-957 -1772q-23 -43 -65 -43q-33 0 -54 15q-33 23 -32 61zM336 1184q0 -66 46 -115t116 -49t115.5 49t45.5 115q0 68 -46 117t-115 49q-70 0 -116 -49.5t-46 -116.5zM965 295q0 66 24.5 124t67.5 101t101 67.5t124 24.5t124 -24.5 t101 -67.5t67.5 -101.5t24.5 -123.5q0 -66 -24.5 -123t-67.5 -100t-101 -67.5t-124 -24.5t-124 24.5t-101 67.5t-67.5 100t-24.5 123zM1120 295q0 -66 46 -115t116 -49t116 49t46 115q0 68 -46 117t-116 49t-116 -49.5t-46 -116.5z" />
<glyph unicode="&#x26;" horiz-adv-x="1355" d="M123 373q0 141 72.5 255.5t253.5 219.5q-45 57 -74 104t-46.5 87t-23.5 75t-6 70q0 66 25.5 123t70.5 100t107.5 68.5t138.5 25.5q74 0 136.5 -24.5t107.5 -67.5t70.5 -103.5t25.5 -134.5q0 -102 -56.5 -187t-205.5 -171l280 -358q23 29 43.5 57.5t30.5 40.5 q16 18 33.5 25.5t34.5 7.5q37 0 63.5 -28t26.5 -64q-1 -27 -19 -60q-23 -37 -44 -63.5t-54 -59.5l131 -166q10 -12 18.5 -29.5t8.5 -39.5q0 -37 -26.5 -62.5t-61.5 -25.5q-49 0 -84 41l-117 145q-182 -195 -436 -194q-96 0 -174 29.5t-133.5 81.5t-86 124t-30.5 158z M319 389q0 -47 13.5 -89t42 -72.5t74 -49t108.5 -18.5q78 0 154.5 33.5t167.5 113.5l-320 404q-70 -39 -116 -78t-73.5 -80t-39 -82t-11.5 -82zM494 1178q0 -49 24.5 -96.5t87.5 -127.5l10 -14q53 31 87 57.5t54.5 54t28 56.5t7.5 63q0 31 -12.5 60t-34 50.5t-48 33.5 t-57.5 12q-72 0 -109.5 -44t-37.5 -105z" />
<glyph unicode="'" horiz-adv-x="544" d="M154 1372q0 49 34.5 84t83.5 35t84 -35t35 -84q0 -8 -3 -45t-9 -88t-13.5 -112.5t-13.5 -120t-12 -107.5t-8 -76q-4 -25 -20.5 -39t-41.5 -14q-23 0 -39 13.5t-20 39.5q-4 29 -9 78t-11.5 107.5t-13.5 119t-12 112.5t-8 88t-3 44z" />
<glyph unicode="(" horiz-adv-x="643" d="M133 608q0 322 93 594.5t249 497.5q25 37 70 37q35 0 60.5 -22.5t25.5 -61.5q0 -29 -19 -58q-135 -207 -214 -450.5t-79 -536.5t79 -536.5t214 -450.5q18 -29 19 -57q0 -39 -25.5 -61.5t-60.5 -22.5q-45 0 -70 37q-156 225 -249 497.5t-93 593.5z" />
<glyph unicode=")" horiz-adv-x="643" d="M12 -436q0 29 19 57q135 207 214 450.5t79 536.5t-79 537t-214 450q-18 29 -19 58q0 39 25.5 61.5t60.5 22.5q45 0 70 -37q156 -225 249 -497.5t93 -594.5t-93 -594t-249 -497q-25 -37 -70 -37q-35 0 -60.5 22.5t-25.5 61.5z" />
<glyph unicode="*" horiz-adv-x="1429" d="M164 1188q0 33 22.5 55.5t55.5 22.5h338l-168 293q-12 18 -13 38q0 45 39 68q20 10 39 10q45 0 68 -39l170 -293l168 293q23 39 67 39q18 0 39 -10q39 -23 39 -68q0 -10 -2 -19t-8 -19l-168 -293h338q33 0 55.5 -22.5t22.5 -55.5t-22.5 -55.5t-55.5 -22.5h-338l168 -293 q10 -16 10 -39q0 -45 -39 -67q-16 -10 -39 -11q-45 0 -67 39l-168 293l-170 -293q-23 -39 -68 -39q-10 0 -19 2.5t-20 8.5q-39 23 -39 65q0 23 13 41l168 293h-338q-33 0 -55.5 22.5t-22.5 55.5z" />
<glyph unicode="+" horiz-adv-x="1425" d="M143 549q0 39 27 65.5t66 26.5h385v377q0 39 26.5 65.5t65.5 26.5t65.5 -26.5t26.5 -65.5v-377h385q39 0 65.5 -26.5t26.5 -63.5q0 -39 -26.5 -65.5t-65.5 -26.5h-385v-377q0 -39 -26.5 -65.5t-65.5 -26.5t-65.5 26.5t-26.5 65.5v377h-385q-39 0 -66 26.5t-27 63.5z" />
<glyph unicode="," horiz-adv-x="735" d="M172 -319q0 39 35 61q25 16 51.5 39.5t49 52.5t36.5 59.5t14 63.5q0 23 -12 27l-24 8q-63 16 -99.5 64t-36.5 112q0 76 52.5 128t128.5 52q88 0 141 -61.5t53 -163.5q0 -82 -16.5 -145.5t-57.5 -135.5q-43 -76 -93 -122t-95 -78q-35 -25 -61 -25q-27 0 -46.5 17.5 t-19.5 46.5z" />
<glyph unicode="-" horiz-adv-x="1046" d="M215 563q0 37 25.5 62.5t60.5 25.5h444q35 0 60.5 -25.5t25.5 -62.5t-25.5 -62.5t-60.5 -25.5h-444q-35 0 -60.5 25.5t-25.5 62.5z" />
<glyph unicode="." horiz-adv-x="735" d="M184 172q0 78 53.5 131t129.5 53q78 0 131 -53t53 -131q0 -76 -53.5 -129t-130.5 -53q-76 0 -129.5 53t-53.5 129z" />
<glyph unicode="/" horiz-adv-x="985" d="M10 -305q0 10 2 18t6 19l766 2074q10 25 34 39.5t50 14.5q10 0 20.5 -2.5t20.5 -6.5q54 -27 54 -82q0 -10 -2.5 -19t-6.5 -19l-766 -2075q-10 -25 -33.5 -39t-50.5 -14q-23 0 -38 8q-25 12 -40.5 34.5t-15.5 49.5z" />
<glyph unicode="0" d="M143 741q0 162 31 301.5t93.5 241.5t157.5 160.5t222 58.5t222.5 -58.5t158 -160.5t93 -241.5t30.5 -301.5t-30.5 -301t-93 -241.5t-158 -160.5t-222.5 -58t-222 58t-157.5 160.5t-93.5 242t-31 300.5zM342 741q0 -293 83 -436t222 -143t222 143t83 436t-83 436.5 t-222 143.5t-222 -143.5t-83 -436.5z" />
<glyph unicode="1" d="M139 1092q0 45 41 75l420 297q27 16 53 17h84q43 0 72 -30t29 -73v-1276q0 -43 -29 -72.5t-72 -29.5t-71.5 29.5t-28.5 72.5v1166l-352 -250q-27 -16 -54 -17q-23 0 -42 9.5t-33 27.5q-16 23 -17 54z" />
<glyph unicode="2" d="M188 92q0 115 35 205t93.5 162.5t136 132t163.5 115.5q57 37 109.5 74.5t92.5 82.5t62.5 97.5t22.5 119.5q0 111 -66.5 178.5t-177.5 67.5q-98 0 -166.5 -54t-93.5 -165q-8 -35 -30.5 -61.5t-63.5 -26.5q-37 0 -63.5 26.5t-26.5 67.5q0 70 32 139.5t90 125t143 90 t192 34.5q94 0 173 -32.5t136 -91t89 -137.5t32 -171q0 -100 -34 -176t-90 -137.5t-132 -113.5t-162 -105q-106 -68 -184 -152t-107 -207h649q39 0 66 -25.5t27 -64.5t-27 -64.5t-66 -25.5h-761q-39 0 -66 26.5t-27 65.5z" />
<glyph unicode="3" d="M125 164q0 41 24.5 64.5t65.5 23.5q14 0 31.5 -6t27.5 -10q37 -16 72 -31t74 -25t85 -16t105 -6q82 0 143.5 22.5t102.5 60.5t61.5 88t20.5 105t-23.5 104.5t-71.5 87.5t-122 59.5t-172 21.5q-39 0 -67.5 26.5t-28.5 63.5q0 39 28.5 64.5t67.5 25.5q86 0 145.5 18.5 t95 49t52 69.5t16.5 80t-17.5 80t-52 69.5t-88 50t-125.5 19.5q-82 0 -139 -17.5t-108 -39.5q-10 -4 -24.5 -9.5t-29.5 -5.5q-41 0 -67.5 20.5t-26.5 61.5q0 29 15.5 49.5t42.5 34.5q78 41 158.5 62.5t174.5 21.5q104 0 192.5 -29.5t152 -83t99.5 -126t36 -158.5 q0 -98 -45 -172t-123 -121q49 -23 94 -57.5t79 -81.5t54 -107.5t20 -132.5q0 -100 -35.5 -183t-102 -143.5t-163 -93t-219.5 -32.5q-70 0 -126 6t-106 18t-97.5 30.5t-96.5 45.5q-59 31 -59 84z" />
<glyph unicode="4" d="M113 436v39q0 27 18 55l578 914q12 20 31.5 28.5t41.5 8.5h66q43 0 72.5 -30t29.5 -73v-860h90q39 0 66 -23.5t27 -62.5t-27 -62.5t-66 -23.5h-90v-244q0 -43 -26.5 -72.5t-67.5 -29.5t-67.5 29.5t-26.5 72.5v244h-557q-39 0 -65.5 25.5t-26.5 64.5zM317 518h445v705z " />
<glyph unicode="5" d="M195 842q0 8 1 22.5t3 26.5l59 510q4 37 30.5 58.5t71.5 21.5h609q39 0 65.5 -25.5t26.5 -64.5t-26.5 -65t-65.5 -26h-549l-39 -331q59 43 134 67.5t161 24.5q109 0 197 -38t149 -107.5t94 -168t33 -217.5q0 -115 -36 -214t-102.5 -172.5t-161.5 -115.5t-214 -42 q-86 0 -175 18.5t-175 65.5q-29 16 -47.5 38.5t-18.5 57.5q2 35 25.5 58.5t62.5 23.5q8 0 20.5 -2t26.5 -10q61 -33 128 -51.5t153 -18.5q76 0 135 27.5t99 75.5t61.5 115t21.5 146q0 160 -76.5 258.5t-226.5 98.5q-84 0 -143.5 -34t-106.5 -83q-16 -16 -25 -21.5t-26 -5.5 q-10 0 -21.5 2.5t-27.5 8.5l-49 20q-29 12 -42 26.5t-13 41.5z" />
<glyph unicode="6" d="M158 598q0 119 23.5 232.5t62.5 214t89 183.5t101 140q47 53 110.5 106.5t132 96.5t137.5 69.5t128 26.5q33 0 61.5 -17.5t28.5 -58.5q0 -31 -23.5 -52t-58.5 -34q-141 -47 -251.5 -128t-182.5 -185q-29 -41 -49.5 -79t-42.5 -103q53 41 122.5 66.5t147.5 25.5 q111 0 201 -41t153.5 -115t98.5 -177t35 -228q0 -117 -35 -219.5t-99.5 -178t-158.5 -119.5t-211 -44q-86 0 -154.5 20t-124 57t-96.5 88.5t-72 112.5q-35 68 -54 155t-19 185zM354 541q0 -86 23.5 -158t66.5 -123t101.5 -78.5t126.5 -27.5q152 0 234.5 105.5t82.5 281.5 t-86 280.5t-233 104.5t-231.5 -104.5t-84.5 -280.5z" />
<glyph unicode="7" d="M160 1391q0 39 26.5 64.5t65.5 25.5h790q39 0 66 -26.5t27 -63.5q0 -27 -7 -54q-18 -80 -45.5 -147.5t-67.5 -141t-94.5 -162.5t-129.5 -212q-104 -172 -148.5 -318.5t-48.5 -253.5q-2 -45 -28.5 -73.5t-69.5 -28.5t-72 29.5t-29 72.5q0 156 63.5 333t182.5 362 q61 94 103 161.5t74 124t54.5 107.5t42.5 110h-663q-39 0 -65.5 26t-26.5 65z" />
<glyph unicode="8" d="M152 440q0 131 55 224.5t155 148.5q-68 53 -102.5 127t-34.5 162q0 78 29 149.5t84 127t133 89t176 33.5t176 -33.5t133.5 -89t84 -127t28.5 -149.5q0 -88 -35 -162t-102 -127q100 -55 155.5 -148.5t55.5 -224.5q0 -100 -35 -185t-99.5 -146.5t-155.5 -95t-206 -33.5 t-206 33.5t-155.5 95t-99 146.5t-34.5 185zM336 440q0 -125 80.5 -204.5t230.5 -79.5t230.5 79.5t80.5 204.5q0 45 -14 94.5t-50 91.5t-96.5 68.5t-150.5 26.5t-150.5 -26.5t-96 -68.5t-50 -91.5t-14.5 -94.5zM410 1102q0 -35 10 -74t37.5 -72.5t72.5 -56t117 -22.5 q70 0 116 22.5t73.5 56t38 72.5t10.5 74q0 39 -13.5 78t-41 71.5t-73.5 53t-110 20.5q-66 0 -110.5 -20.5t-72.5 -53t-41 -71.5t-13 -78z" />
<glyph unicode="9" d="M113 940q0 117 34.5 219.5t100 178t160 119.5t210.5 44q170 0 276.5 -77.5t168.5 -198.5q35 -68 54.5 -156t19.5 -186q0 -119 -23.5 -232.5t-62.5 -214t-89.5 -183.5t-101.5 -140q-47 -53 -110.5 -106.5t-132 -96.5t-138 -69.5t-127.5 -26.5q-33 0 -61.5 17t-28.5 58 q0 31 23.5 52.5t58.5 33.5q141 47 252 128t182 186q29 41 49.5 79t42.5 103q-53 -41 -122.5 -66.5t-147.5 -25.5q-111 0 -201 41t-153.5 114.5t-98 177t-34.5 228.5zM305 940q0 -176 86 -280.5t234 -104.5q147 0 231 104.5t84 280.5q0 86 -23.5 157.5t-66.5 123t-101 79 t-126 27.5q-152 0 -235 -105.5t-83 -281.5z" />
<glyph unicode=":" horiz-adv-x="735" d="M184 172q0 78 53.5 131t129.5 53q78 0 131 -53t53 -131q0 -76 -53.5 -129t-130.5 -53q-76 0 -129.5 53t-53.5 129zM184 928q0 76 53.5 129t129.5 53q78 0 131 -53t53 -129q0 -78 -53.5 -131.5t-130.5 -53.5q-76 0 -129.5 53.5t-53.5 131.5z" />
<glyph unicode=";" horiz-adv-x="735" d="M172 -319q0 39 35 61q25 16 51.5 39.5t49 52.5t36.5 59.5t14 63.5q0 23 -12 27l-24 8q-63 16 -99.5 64t-36.5 112q0 76 52.5 128t128.5 52q88 0 141 -61.5t53 -163.5q0 -82 -16.5 -145.5t-57.5 -135.5q-43 -76 -93 -122t-95 -78q-35 -25 -61 -25q-27 0 -46.5 17.5 t-19.5 46.5zM184 928q0 76 53.5 129t129.5 53t129 -53t53 -129q0 -78 -53.5 -131.5t-128.5 -53.5q-76 0 -129.5 53.5t-53.5 131.5z" />
<glyph unicode="&#x3c;" horiz-adv-x="1425" d="M154 530v37q0 29 14 53.5t41 36.5l907 441q25 10 43 10q57 0 82 -47q10 -25 10 -43q0 -27 -12 -49.5t-41 -36.5l-825 -381l825 -383q29 -12 41 -34.5t12 -51.5q0 -18 -10 -43q-12 -27 -33.5 -37t-48.5 -10q-18 0 -43 10l-907 440q-27 12 -41 37t-14 51z" />
<glyph unicode="=" horiz-adv-x="1425" d="M133 383q0 39 26.5 65.5t65.5 26.5h975q39 0 65.5 -26.5t26.5 -65.5t-26.5 -65.5t-65.5 -26.5h-975q-39 0 -65.5 26.5t-26.5 65.5zM133 743q0 39 26.5 67t65.5 28h975q39 0 65.5 -28t26.5 -65q0 -39 -26.5 -66.5t-65.5 -27.5h-975q-39 0 -65.5 28t-26.5 64z" />
<glyph unicode="&#x3e;" horiz-adv-x="1425" d="M174 82q0 29 12.5 51.5t40.5 34.5l826 383l-826 381q-29 14 -41 36.5t-12 49.5q0 18 10 43q12 25 34 36t48 11q18 0 43 -10l908 -441q27 -12 41 -36.5t14 -53.5v-37q0 -27 -14.5 -51t-40.5 -37l-908 -440q-25 -10 -43 -10q-27 0 -48 10t-34 37q-10 25 -10 43z" />
<glyph unicode="?" horiz-adv-x="1169" d="M154 1106q0 86 37.5 156.5t99 121t139.5 79t158 28.5q94 0 173 -27.5t135 -78t88 -121t32 -154.5q0 -59 -12.5 -103t-35 -80t-54 -66t-68.5 -58l-109 -84q-35 -27 -61.5 -52.5t-26.5 -62.5v-26q0 -41 -27.5 -63.5t-60.5 -22.5t-58.5 22.5t-25.5 63.5v61q0 53 31 91t94 91 l127 105q39 33 68.5 74.5t29.5 107.5q0 92 -60 150.5t-179 58.5q-121 0 -179.5 -61.5t-76.5 -165.5q-6 -35 -28.5 -57.5t-61.5 -22.5t-63.5 27.5t-24.5 68.5zM381 172q0 78 53 131t129 53t129 -53t53 -131q0 -76 -53 -129t-129 -53t-129 53t-53 129z" />
<glyph unicode="@" horiz-adv-x="1589" d="M225 528q0 248 44 438.5t132 317.5q80 117 200 171t249 54q63 0 110.5 -7t85 -22.5t70.5 -37t68 -47.5q88 -72 129 -235t41 -390v-545q0 -35 -23.5 -58.5t-58.5 -23.5t-58.5 23.5t-23.5 58.5v17q-39 -41 -94.5 -61.5t-112.5 -20.5q-184 0 -283.5 104.5t-99.5 282.5 q0 111 43 194.5t121 137.5q53 35 119.5 56t171.5 21q29 0 65.5 -3t65.5 -9q-6 113 -29.5 200t-79.5 134q-23 18 -45 33.5t-50 26t-61.5 15.5t-78.5 5q-92 0 -174 -46t-144 -147q-66 -111 -88 -270.5t-22 -349.5q0 -180 44 -328.5t115 -239.5q127 -158 299 -157 q76 0 137.5 21.5t139.5 68.5q12 8 24.5 13t30.5 5q35 0 58.5 -25.5t23.5 -60.5q0 -41 -39 -67q-92 -63 -186 -91t-201 -28q-123 0 -228.5 50t-187.5 144q-102 117 -160.5 294.5t-58.5 383.5zM776 559q0 -121 60 -180q53 -53 155 -53q53 0 105.5 16t93.5 64v393 q-25 4 -58.5 9t-58.5 5q-70 0 -118 -13.5t-74 -29.5q-59 -39 -82 -93t-23 -118z" />
<glyph unicode="A" horiz-adv-x="1320" d="M70 94q0 10 3 23.5t7 23.5l463 1274q10 29 35.5 47.5t54.5 18.5h59q29 0 53.5 -18.5t34.5 -47.5l463 -1268q4 -10 6 -20t2 -27q0 -41 -26.5 -70.5t-73.5 -29.5q-31 0 -60.5 17.5t-43.5 58.5l-91 264h-602l-88 -272q-10 -29 -33.5 -48.5t-64.5 -19.5q-45 0 -71.5 26.5 t-26.5 67.5zM414 524h485l-203 582q-10 27 -19 58.5t-18 62.5h-4q-8 -31 -17 -62.5t-20 -58.5z" />
<glyph unicode="B" horiz-adv-x="1482" d="M238 102v1276q0 43 29.5 73t72.5 30h436q121 0 203 -27t139 -80q55 -51 87 -121.5t32 -160.5q0 -102 -47 -171t-113 -116q98 -41 164 -135.5t66 -225.5q0 -94 -34 -175t-98.5 -141t-159.5 -94t-218 -34h-459q-41 0 -70.5 30.5t-29.5 71.5zM442 184h359q141 0 216 70.5 t75 187.5q0 121 -68 189.5t-215 68.5h-367v-516zM442 881h355q133 0 185 58t52 148q0 98 -64.5 153.5t-199.5 55.5h-328v-415z" />
<glyph unicode="C" horiz-adv-x="1439" d="M145 741q0 172 44 311.5t126 240t196 154.5t255 54q100 0 180 -21.5t141.5 -59.5t108.5 -89t82 -108q10 -16 18.5 -35t8.5 -43q0 -39 -25 -65.5t-66 -26.5q-31 0 -52 14t-34 35q-39 63 -76.5 105t-79.5 67.5t-90 36t-106 10.5q-88 0 -164.5 -38t-133 -110.5t-89.5 -181 t-33 -250.5q0 -145 33 -253.5t89.5 -181.5t131 -109.5t158.5 -36.5q72 0 127 19.5t96 50t71 68.5t52 75q16 27 36.5 48t59.5 21t66 -25.5t27 -64.5q0 -27 -9.5 -47t-31.5 -61q-23 -37 -61 -83t-97.5 -86t-143 -67.5t-200.5 -27.5q-143 0 -257 55t-194 154.5t-122 239.5 t-42 312z" />
<glyph unicode="D" horiz-adv-x="1464" d="M238 102v1276q0 41 29.5 72t70.5 31h336q160 0 269.5 -54.5t186.5 -140.5q88 -98 138.5 -231.5t50.5 -313.5t-51 -312t-142 -236q-76 -86 -184 -139.5t-268 -53.5h-336q-41 0 -70.5 30.5t-29.5 71.5zM442 184h181q72 0 126 10.5t96 28t73.5 43t58.5 56.5q59 70 96 174 t37 245q0 266 -139 424q-55 61 -130 96t-192 35h-207v-1112z" />
<glyph unicode="E" horiz-adv-x="1327" d="M238 102v1276q0 41 29.5 72t70.5 31h788q39 0 66 -27t27 -65q0 -39 -27 -66t-66 -27h-684v-462h439q39 0 65.5 -27t26.5 -66t-26.5 -65.5t-65.5 -26.5h-439v-465h684q39 0 66 -26.5t27 -65.5t-27 -65.5t-66 -26.5h-788q-41 0 -70.5 30.5t-29.5 71.5z" />
<glyph unicode="F" horiz-adv-x="1265" d="M238 102v1276q0 41 29.5 72t70.5 31h788q39 0 66 -27t27 -65q0 -39 -27 -66t-66 -27h-684v-462h439q39 0 65.5 -27t26.5 -66t-26.5 -65.5t-65.5 -26.5h-439v-547q0 -43 -29.5 -72.5t-72.5 -29.5t-72.5 29.5t-29.5 72.5z" />
<glyph unicode="G" horiz-adv-x="1476" d="M145 741q0 172 46.5 311.5t130.5 240t199.5 154.5t256.5 54q172 0 289 -63.5t190 -161.5q20 -27 21 -62q0 -35 -23.5 -61.5t-64.5 -26.5q-29 0 -52.5 14.5t-39.5 33.5q-76 82 -147.5 113.5t-164.5 31.5q-96 0 -176 -41t-136 -117t-87 -182.5t-31 -237.5q0 -127 30 -234.5 t85 -184t133 -119.5t174 -43q119 0 204 43t126 110v299h-311q-37 0 -63.5 26t-26.5 62q0 37 26.5 64t63.5 27h401q39 0 65.5 -26t26.5 -65v-456q-35 -53 -85 -101.5t-114.5 -84t-144.5 -57t-174 -21.5q-145 0 -261 55t-197 155.5t-125 240.5t-44 310z" />
<glyph unicode="H" horiz-adv-x="1546" d="M238 102v1276q0 43 29.5 73t72.5 30t72.5 -30t29.5 -73v-544h662v544q0 43 29.5 73t72.5 30t73 -30t30 -73v-1276q0 -43 -30 -72.5t-73 -29.5t-72.5 29.5t-29.5 72.5v547h-662v-547q0 -43 -29.5 -72.5t-72.5 -29.5t-72.5 29.5t-29.5 72.5z" />
<glyph unicode="I" horiz-adv-x="679" d="M238 102v1276q0 43 29.5 73t72.5 30t72.5 -30t29.5 -73v-1276q0 -43 -29.5 -72.5t-72.5 -29.5t-72.5 29.5t-29.5 72.5z" />
<glyph unicode="J" horiz-adv-x="1114" d="M43 252q0 39 26.5 65.5t67.5 26.5q51 0 80 -43q20 -29 43 -54.5t51.5 -44t68.5 -29.5t93 -11q59 0 101 19.5t67 49.5q51 68 51 201v946q0 43 30 73t73 30q41 0 71.5 -30t30.5 -73v-940q0 -109 -24.5 -186.5t-69.5 -134.5q-55 -70 -134 -103.5t-200 -33.5q-80 0 -145.5 19 t-116.5 51t-88 70t-60 75q-10 16 -13 30.5t-3 26.5z" />
<glyph unicode="K" horiz-adv-x="1462" d="M238 102v1276q0 43 29.5 73t72.5 30t72.5 -31t29.5 -72v-708l629 772q33 39 78 39t76 -31q28 -28 28 -69q0 -40 -30 -76l-402 -469l482 -666q25 -35 24 -68q0 -47 -35 -77q-31 -25 -67 -25q-53 0 -84 43l-443 647l-256 -297v-291q0 -43 -29.5 -72.5t-72.5 -29.5 t-72.5 29.5t-29.5 72.5z" />
<glyph unicode="L" horiz-adv-x="1187" d="M238 102v1276q0 43 29.5 73t72.5 30t72.5 -30t29.5 -73v-1194h621q39 0 65.5 -26.5t26.5 -65.5t-26.5 -65.5t-65.5 -26.5h-725q-41 0 -70.5 30.5t-29.5 71.5z" />
<glyph unicode="M" horiz-adv-x="1716" d="M238 102v1276q0 43 29.5 73t72.5 30h98q27 0 50.5 -13.5t33.5 -37.5l332 -789l334 789q10 25 33.5 38t50.5 13h104q43 0 73 -30t30 -73v-1276q0 -43 -30 -72.5t-73 -29.5t-72.5 29.5t-29.5 72.5v998q0 25 1 65.5t3 63.5h-4q-4 -20 -12 -41q-6 -16 -13.5 -35.5 t-13.5 -36.5l-297 -678q-25 -55 -80 -55q-27 0 -49.5 10t-38.5 45l-293 678q-8 16 -14 35.5t-12 36.5q-8 20 -13 41h-4q2 -23 3 -62t1 -67v-998q0 -43 -28.5 -72.5t-71.5 -29.5t-71.5 29.5t-28.5 72.5z" />
<glyph unicode="N" horiz-adv-x="1546" d="M238 102v1276q0 43 29.5 73t72.5 30h74q35 0 55 -13.5t35 -37.5l563 -1039q10 -23 22.5 -49.5t22.5 -52.5l4 2q-4 23 -6 59.5t-2 63.5v964q0 43 28.5 73t71.5 30t72 -30t29 -73v-1276q0 -43 -30 -72.5t-73 -29.5h-82q-27 0 -50 12.5t-38 38.5l-561 1036 q-10 23 -22.5 49.5t-22.5 53.5l-4 -2q4 -23 6 -59.5t2 -63.5v-965q0 -41 -27.5 -70.5t-70.5 -29.5t-70.5 29.5t-27.5 72.5z" />
<glyph unicode="O" horiz-adv-x="1572" d="M145 741q0 172 46.5 311.5t131.5 240t202.5 154.5t260.5 54t262 -54t203 -154.5t130 -240t46 -311.5t-45 -312t-129 -239.5t-202.5 -154.5t-264.5 -55q-145 0 -264 55t-202.5 154.5t-129 239.5t-45.5 312zM356 741q0 -131 31 -238.5t88 -183t136 -116.5t175 -41t175 41 t136.5 116.5t88.5 183t31 238.5t-31 237.5t-87.5 182.5t-136 117t-176.5 41q-96 0 -176 -41t-136 -117t-87 -182.5t-31 -237.5z" />
<glyph unicode="P" horiz-adv-x="1363" d="M238 102v1276q0 41 29.5 72t70.5 31h401q111 0 210.5 -40t168.5 -114q51 -55 81 -129t30 -164q0 -174 -109 -295q-61 -68 -156.5 -107.5t-224.5 -39.5h-297v-490q0 -43 -29.5 -72.5t-72.5 -29.5t-72.5 29.5t-29.5 72.5zM442 776h291q92 0 149.5 22.5t90.5 57.5 q35 37 47 84t12 98q0 88 -59 160q-39 43 -98.5 70.5t-145.5 27.5h-287v-520z" />
<glyph unicode="Q" horiz-adv-x="1572" d="M145 741q0 172 46.5 311.5t131.5 240t202.5 154.5t260.5 54t262 -54t203 -154.5t130 -240t46 -311.5t-45 -312t-129 -239.5t-202.5 -154.5t-264.5 -55q-145 0 -264 55t-202.5 154.5t-129 239.5t-45.5 312zM356 741q0 -131 31 -238.5t88 -183t136 -116.5t175 -41t175 41 t136.5 116.5t88.5 183t31 238.5t-31 237.5t-87.5 182.5t-136 117t-176.5 41q-96 0 -176 -41t-136 -117t-87 -182.5t-31 -237.5zM803 471q0 47 39 76q27 16 53 16q47 0 76 -39l383 -544q18 -25 18 -56q0 -45 -41 -74q-27 -16 -51 -16q-47 0 -76 39l-385 545q-16 27 -16 53z " />
<glyph unicode="R" horiz-adv-x="1454" d="M238 102v1276q0 43 29.5 73t72.5 30h467q92 0 172 -23.5t143 -71.5q78 -59 122 -145t44 -207q0 -170 -96 -278.5t-256 -141.5l315 -448q23 -35 23 -70q0 -47 -39 -78q-25 -18 -61 -18q-27 0 -49.5 14.5t-39.5 36.5l-372 541h-271v-490q0 -43 -29.5 -72.5t-72.5 -29.5 t-72.5 29.5t-29.5 72.5zM442 776h330q166 0 240.5 70.5t74.5 191.5q0 117 -75.5 187.5t-214.5 70.5h-355v-520z" />
<glyph unicode="S" horiz-adv-x="1329" d="M145 281q0 39 27 65.5t68 26.5q51 0 90 -49q72 -92 161 -128t191 -36q129 0 215 61.5t86 179.5q0 106 -71.5 164t-192.5 92l-189 56q-90 27 -157.5 58.5t-112.5 77.5t-68.5 107.5t-23.5 147.5q0 82 35 154.5t99.5 127t155.5 85t206 30.5q160 0 265 -51t167 -117 q31 -35 30 -69q0 -41 -23.5 -64.5t-62.5 -23.5q-45 0 -88 36q-61 51 -132.5 81t-157.5 30q-47 0 -99.5 -11.5t-96.5 -38t-72.5 -67.5t-28.5 -100q0 -90 57 -135t164 -76l176 -51q80 -23 154.5 -53.5t134 -79.5t95.5 -122t38 -179q0 -96 -37 -176t-102.5 -136.5t-159.5 -88.5 t-207 -32q-152 0 -285 57.5t-219 168.5q-29 41 -29 78z" />
<glyph unicode="T" horiz-adv-x="1212" d="M68 1389q0 39 26.5 65.5t65.5 26.5h893q39 0 65.5 -26.5t26.5 -65.5t-26.5 -66t-65.5 -27h-344v-1194q0 -43 -30 -72.5t-73 -29.5t-72.5 29.5t-29.5 72.5v1194h-344q-39 0 -65.5 27t-26.5 66z" />
<glyph unicode="U" horiz-adv-x="1542" d="M217 537v841q0 43 31 73t74 30t73.5 -30t30.5 -73v-833q0 -188 89 -284.5t255 -96.5q168 0 257 96t89 285v833q0 43 31 73t74 30t73.5 -30t30.5 -73v-841q0 -131 -39 -234.5t-111.5 -175.5t-175 -109.5t-229.5 -37.5t-228.5 37.5t-174 109.5t-111.5 175.5t-39 234.5z" />
<glyph unicode="V" horiz-adv-x="1335" d="M92 1378q0 45 31 74t72 29t65.5 -22.5t34.5 -57.5l330 -1014q16 -47 27.5 -87t19.5 -79h4q8 39 18.5 79t24.5 87l330 1020q10 33 34.5 53.5t61.5 20.5q41 0 69.5 -25.5t28.5 -66.5q0 -10 -4 -24.5t-8 -29.5l-428 -1269q-10 -29 -39 -47.5t-57 -18.5h-86q-29 0 -53.5 18.5 t-35.5 47.5l-430 1267q-4 10 -7 22.5t-3 22.5z" />
<glyph unicode="W" horiz-adv-x="1710" d="M125 1380q0 43 29.5 72t72.5 29q84 0 103 -86l217 -1043q4 -23 7 -46t7 -42q2 -23 4 -43h4q2 23 6.5 59.5t12.5 71.5l180 797q8 35 31.5 55.5t58.5 20.5t58.5 -21.5t31.5 -54.5l180 -797q8 -35 12.5 -71.5t6.5 -59.5h4q0 20 4 43q2 18 6 42t8 46l217 1043q8 35 32 60.5 t71 25.5q45 0 70.5 -31t25.5 -70q0 -16 -6 -41l-301 -1257q-10 -35 -33.5 -58.5t-58.5 -23.5h-76q-29 0 -51.5 20.5t-30.5 51.5l-154 665q-14 61 -18 144h-4q-4 -39 -7 -76t-11 -68l-152 -665q-8 -31 -30.5 -51.5t-51.5 -20.5h-76q-35 0 -58.5 23.5t-33.5 58.5l-301 1255 q-6 25 -6 43z" />
<glyph unicode="X" horiz-adv-x="1333" d="M115 102q0 12 3 26.5t11 27.5l463 671l117 -163l-404 -615q-14 -23 -37.5 -36t-50.5 -13q-41 0 -71.5 28.5t-30.5 73.5zM141 1378q0 47 32 75t71 28q57 0 88 -47l870 -1276q16 -27 17 -56q0 -43 -30 -72.5t-73 -29.5q-27 0 -45 14.5t-35 36.5l-878 1272q-16 25 -17 55z M625 866l372 568q31 47 86 47q41 0 72 -29t31 -74q0 -31 -15 -53l-419 -610z" />
<glyph unicode="Y" horiz-adv-x="1210" d="M72 1378q0 41 28.5 72t73.5 31q25 0 49.5 -12.5t36.5 -34.5l346 -627l342 625q14 25 39 37t49 12q45 0 74 -31t29 -72q0 -16 -5.5 -31.5t-13.5 -29.5l-422 -703q2 -123 4 -227q0 -45 1.5 -89t2.5 -83t1 -68.5v-44.5q0 -43 -30 -72.5t-73 -29.5t-72.5 29.5t-29.5 72.5v44 t1 69t2 83t1 89q2 104 4 227l-420 703q-8 14 -13 29.5t-5 31.5z" />
<glyph unicode="Z" d="M104 96q0 23 7.5 39.5t17.5 32.5l780 1128h-661q-39 0 -65.5 27t-26.5 66t26.5 65.5t65.5 26.5h827q49 0 77 -28t28 -69q0 -35 -31 -79l-774 -1121h723q39 0 65.5 -26.5t26.5 -65.5t-26.5 -65.5t-65.5 -26.5h-899q-43 0 -69 27.5t-26 68.5z" />
<glyph unicode="[" horiz-adv-x="686" d="M174 -428v2073q0 39 26.5 65.5t63.5 26.5h334q37 0 62.5 -25.5t25.5 -60.5q0 -37 -25.5 -62.5t-62.5 -25.5h-242v-1911h242q37 0 62.5 -24.5t25.5 -61.5t-25.5 -61.5t-62.5 -24.5h-334q-37 0 -63.5 26.5t-26.5 65.5z" />
<glyph unicode="\" horiz-adv-x="985" d="M23 1769q0 55 53 82q10 4 20 6.5t21 2.5q27 0 50 -14.5t34 -39.5l766 -2074q8 -16 8 -37q0 -27 -15.5 -49.5t-39.5 -34.5q-16 -8 -39 -8q-27 0 -50.5 14t-33.5 39l-766 2075q-8 15 -8 38z" />
<glyph unicode="]" horiz-adv-x="686" d="M0 -434q0 37 25.5 61.5t62.5 24.5h242v1911h-242q-37 0 -62.5 25.5t-25.5 62.5q0 35 25.5 60.5t62.5 25.5h334q37 0 61.5 -27t28.5 -65v-2073q0 -39 -26.5 -65.5t-63.5 -26.5h-334q-37 0 -62.5 24.5t-25.5 61.5z" />
<glyph unicode="^" horiz-adv-x="1236" d="M246 1104q0 14 6 25.5t12 25.5l248 539q18 39 45.5 56t60.5 17t61 -17t46 -56l248 -539q6 -14 12 -25.5t6 -25.5q0 -25 -16.5 -42.5t-40.5 -17.5q-35 0 -53 31l-263 438l-262 -438q-18 -31 -53 -31q-25 0 -41 17.5t-16 42.5z" />
<glyph unicode="_" horiz-adv-x="790" d="M-61 -244q0 37 25.5 62.5t60.5 25.5h741q35 0 60.5 -25.5t25.5 -62.5t-25.5 -62.5t-60.5 -25.5h-741q-35 0 -60.5 25.5t-25.5 62.5z" />
<glyph unicode="`" horiz-adv-x="585" d="M47 1610q0 51 35 83.5t84 32.5q31 0 55.5 -15t42.5 -42l240 -336q8 -10 13 -23.5t5 -25.5q0 -23 -16 -39t-43 -16t-45 16l-336 281q-35 31 -35 84z" />
<glyph unicode="a" horiz-adv-x="1290" d="M139 549q0 125 35 228.5t96.5 177t145.5 114.5t182 41q80 0 154.5 -33t128.5 -104v31q0 41 27.5 68.5t68.5 27.5t68.5 -28t27.5 -68v-908q0 -41 -27.5 -68.5t-68.5 -27.5t-68.5 27.5t-27.5 68.5v35v4q-47 -70 -119 -107.5t-162 -37.5q-98 0 -182 40t-145.5 112.5 t-97.5 176t-36 230.5zM330 549q0 -186 77.5 -290.5t198.5 -104.5q57 0 108.5 26.5t88.5 77.5t58.5 125t21.5 166t-21.5 165.5t-58.5 125t-88 79t-109 27.5q-121 0 -198.5 -105.5t-77.5 -291.5z" />
<glyph unicode="b" horiz-adv-x="1290" d="M217 96v1288q0 41 27.5 69t68.5 28t69 -28t28 -69v-413q53 66 124.5 102.5t157.5 36.5q96 0 180 -40t145.5 -113.5t97.5 -177t36 -230.5q0 -125 -34 -227.5t-93 -176t-141 -114.5t-178 -41q-104 0 -176 38t-119 93v-25q0 -41 -28 -68.5t-69 -27.5t-68.5 27.5t-27.5 68.5z M408 549q0 -92 21.5 -166t58 -125t87 -77.5t109.5 -26.5q121 0 199 104t78 291q0 186 -78 291.5t-199 105.5q-59 0 -109.5 -27.5t-87 -79t-58 -125t-21.5 -165.5z" />
<glyph unicode="c" horiz-adv-x="1128" d="M139 549q0 127 36 230.5t98.5 177t147.5 113.5t183 40q131 0 226.5 -59.5t148.5 -161.5q6 -12 12 -29.5t6 -40.5q0 -33 -23.5 -56.5t-60.5 -23.5q-31 0 -51 17.5t-39 48.5q-37 61 -90 98t-131 37q-74 0 -125 -36t-84 -92t-48 -126t-15 -137q0 -186 77.5 -287.5 t198.5 -101.5q78 0 134.5 36.5t86.5 102.5q16 35 40 48t46 13q37 0 61.5 -26.5t24.5 -63.5q0 -16 -6 -33.5t-12 -31.5q-20 -43 -56 -82t-85 -68.5t-107.5 -47t-126.5 -17.5q-98 0 -184 40t-148.5 112.5t-98.5 176t-36 230.5z" />
<glyph unicode="d" horiz-adv-x="1290" d="M139 551q0 125 34 227.5t93.5 176t141 114.5t178.5 41q104 0 176 -38t119 -93v405q0 41 27.5 69t68.5 28t68.5 -28t27.5 -69v-1288q0 -41 -27.5 -68.5t-68.5 -27.5t-68.5 27.5t-27.5 68.5v33q-53 -66 -125 -102.5t-158 -36.5q-96 0 -180 40t-145.5 113.5t-97.5 177 t-36 230.5zM330 551q0 -186 77.5 -291.5t198.5 -105.5q57 0 108.5 27.5t88.5 78.5t58.5 125t21.5 166t-21.5 166t-58.5 125t-88.5 77.5t-108.5 26.5q-121 0 -198.5 -104.5t-77.5 -290.5z" />
<glyph unicode="e" horiz-adv-x="1173" d="M139 549q0 135 38 239.5t102.5 176t148.5 108.5t176 37q90 0 169 -35t137.5 -101.5t92 -165.5t33.5 -228q0 -53 -26.5 -77t-65.5 -24h-614q10 -143 81.5 -234t188.5 -91q80 0 134 30.5t97 89.5q33 45 78 45q37 0 58.5 -24.5t21.5 -61.5q0 -18 -7 -34.5t-15 -28.5 q-51 -78 -140.5 -129t-222.5 -51q-98 0 -183 39t-147.5 110.5t-98.5 176t-36 233.5zM334 643h514q-4 141 -68.5 222t-175.5 81t-185.5 -81t-84.5 -222z" />
<glyph unicode="f" horiz-adv-x="878" d="M43 1012q0 37 25.5 62.5t60.5 25.5h166v74q0 78 23.5 144t66.5 115.5t101.5 77t129.5 27.5q78 0 139.5 -29.5t96.5 -74.5q18 -25 26.5 -42t8.5 -46q0 -31 -22.5 -55.5t-53.5 -24.5q-33 0 -52.5 12t-33.5 29q-29 31 -51.5 44t-57.5 13q-59 0 -92 -45q-18 -25 -27.5 -58.5 t-9.5 -91.5v-69h224q37 0 62.5 -25.5t25.5 -60.5q0 -37 -25.5 -62.5t-60.5 -25.5h-226v-830q0 -41 -27.5 -68.5t-68.5 -27.5t-68.5 27.5t-27.5 68.5v830h-164q-37 0 -62.5 25.5t-25.5 60.5z" />
<glyph unicode="g" horiz-adv-x="1290" d="M139 549q0 125 35 228.5t96.5 177t145.5 114.5t182 41q80 0 154.5 -34t128.5 -105v33q0 41 27.5 68.5t68.5 27.5t68.5 -28t27.5 -68v-951q0 -125 -33.5 -214t-111.5 -154q-59 -51 -135 -77t-195 -26q-94 0 -179 28t-149 75q-16 12 -33.5 31.5t-17.5 54.5q0 39 24.5 63.5 t63.5 24.5q33 0 60 -21q55 -41 108 -64.5t123 -23.5q66 0 121 16.5t94 55.5q37 37 52.5 98.5t15.5 132.5v72q-49 -66 -122 -100.5t-159 -34.5q-98 0 -182 40t-145.5 112.5t-97.5 176t-36 230.5zM330 549q0 -186 77.5 -290.5t198.5 -104.5q57 0 108.5 26.5t88.5 77.5 t58.5 125t21.5 166t-21.5 165.5t-58.5 125t-88 79t-109 27.5q-121 0 -198.5 -105.5t-77.5 -291.5z" />
<glyph unicode="h" horiz-adv-x="1277" d="M217 96v1288q0 41 27.5 69t68.5 28t69 -28t28 -69v-405q49 57 130 94t181 37q86 0 171 -37t136 -123q35 -57 44 -125.5t9 -140.5v-588q0 -41 -27.5 -68.5t-68.5 -27.5t-68.5 27.5t-27.5 68.5v578q0 37 -3 78t-14 67q-18 53 -66 85t-122 32q-66 0 -132.5 -32t-102.5 -93 q-23 -35 -31 -76t-8 -80v-559q0 -41 -28 -68.5t-69 -27.5t-68.5 27.5t-27.5 68.5z" />
<glyph unicode="i" horiz-adv-x="626" d="M166 1442q0 59 44 103t103 44t103.5 -44t44.5 -103t-44 -103.5t-104 -44.5q-59 0 -103 44t-44 104zM217 96v908q0 41 27.5 68.5t68.5 27.5t69 -28t28 -68v-908q0 -41 -28 -68.5t-69 -27.5t-68.5 27.5t-27.5 68.5z" />
<glyph unicode="j" horiz-adv-x="866" d="M33 -240q0 35 22.5 60.5t59.5 25.5q27 0 48 -14t42.5 -31.5t47.5 -32t64 -14.5q35 0 66 16.5t47 47.5q16 27 21.5 69.5t5.5 92.5v1024q0 41 27.5 68.5t68.5 27.5t68.5 -28t27.5 -68v-1024q0 -92 -15.5 -162t-55.5 -121q-47 -61 -113 -88t-148 -27q-74 0 -141 25.5 t-110 77.5q-12 16 -22.5 34.5t-10.5 40.5zM406 1442q0 59 44 103t103 44t103 -44t44 -103t-44 -103.5t-103 -44.5t-103 44t-44 104z" />
<glyph unicode="k" horiz-adv-x="1161" d="M217 96v1288q0 41 27.5 69t68.5 28t69 -28t28 -69v-790l475 475q31 31 69 31q37 0 66 -26.5t29 -67.5q0 -23 -11.5 -43.5t-27.5 -36.5l-328 -316l367 -450q12 -16 20 -32.5t8 -37.5q0 -39 -27.5 -66.5t-66.5 -27.5q-16 0 -36.5 7t-37.5 30l-356 454l-143 -137v-254 q0 -41 -28 -68.5t-69 -27.5t-68.5 27.5t-27.5 68.5z" />
<glyph unicode="l" horiz-adv-x="626" d="M217 96v1288q0 41 27.5 69t68.5 28t69 -28t28 -69v-1288q0 -41 -28 -68.5t-69 -27.5t-68.5 27.5t-27.5 68.5z" />
<glyph unicode="m" horiz-adv-x="1753" d="M217 96v908q0 41 27.5 68.5t68.5 27.5t69 -28t28 -68v-23q39 59 103.5 94t150.5 35q104 0 174.5 -51t99.5 -127q43 84 112.5 131t178.5 47q104 0 172.5 -49t103.5 -123q41 -90 41 -258v-584q0 -41 -27.5 -68.5t-68.5 -27.5t-68.5 27.5t-27.5 68.5v563q0 10 -1 31t-2 45.5 t-4.5 47t-7.5 38.5q-14 47 -50 81t-95 34q-66 0 -113 -32t-75 -83q-14 -27 -21.5 -68.5t-7.5 -80.5v-576q0 -41 -27.5 -68.5t-68.5 -27.5t-69 27.5t-28 68.5v559q0 59 -3 101.5t-13 72.5q-12 41 -48 74t-93 33q-59 0 -109.5 -28.5t-79.5 -78.5q-16 -27 -22 -65.5t-6 -73.5 v-594q0 -41 -28 -68.5t-69 -27.5t-68.5 27.5t-27.5 68.5z" />
<glyph unicode="n" horiz-adv-x="1288" d="M217 96v908q0 41 27.5 68.5t68.5 27.5t69 -28t28 -68v-25q49 57 130 94t181 37q86 0 171 -37t136 -123q35 -57 44 -125.5t9 -140.5v-588q0 -41 -27.5 -68.5t-68.5 -27.5t-68.5 27.5t-27.5 68.5v578q0 37 -3 78t-14 67q-18 53 -66 85t-122 32q-66 0 -132.5 -32t-102.5 -93 q-23 -35 -31 -76t-8 -80v-559q0 -41 -28 -68.5t-69 -27.5t-68.5 27.5t-27.5 68.5z" />
<glyph unicode="o" horiz-adv-x="1212" d="M139 549q0 127 36 230.5t99.5 177t148.5 113.5t183 40t183 -40t148.5 -113.5t99.5 -177t36 -230.5t-36 -230.5t-98 -176t-148 -112.5t-185 -40q-98 0 -184 40t-148.5 112.5t-98.5 176t-36 230.5zM330 549q0 -186 77.5 -290.5t198.5 -104.5t199 104t78 291 q0 186 -78 291.5t-199 105.5t-198.5 -105.5t-77.5 -291.5z" />
<glyph unicode="p" horiz-adv-x="1290" d="M217 -287v1291q0 41 27.5 68.5t68.5 27.5t69 -28t28 -68v-33q53 66 124.5 102.5t157.5 36.5q96 0 180 -40t145.5 -113.5t97.5 -177t36 -230.5q0 -125 -34 -227.5t-93 -176t-141 -114.5t-178 -41q-104 0 -176 38t-119 93v-408q0 -41 -28 -68.5t-69 -27.5t-68.5 27.5 t-27.5 68.5zM408 549q0 -92 21.5 -166t58 -125t87 -77.5t109.5 -26.5q121 0 199 104t78 291q0 186 -78 291.5t-199 105.5q-59 0 -109.5 -27.5t-87 -79t-58 -125t-21.5 -165.5z" />
<glyph unicode="q" horiz-adv-x="1290" d="M139 551q0 125 34 227.5t93.5 176t141 114.5t178.5 41q104 0 176 -38t119 -93v25q0 41 27.5 68.5t68.5 27.5t68.5 -28t27.5 -68v-1289q0 -41 -27.5 -68.5t-68.5 -27.5t-68.5 27.5t-27.5 68.5v414q-53 -66 -125 -102.5t-158 -36.5q-96 0 -180 40t-145.5 113.5t-97.5 177 t-36 230.5zM330 551q0 -186 77.5 -291.5t198.5 -105.5q57 0 108.5 27.5t88.5 78.5t58.5 125t21.5 166t-21.5 166t-58.5 125t-88.5 77.5t-108.5 26.5q-121 0 -198.5 -104.5t-77.5 -290.5z" />
<glyph unicode="r" horiz-adv-x="1064" d="M217 96v908q0 41 27.5 68.5t68.5 27.5t69 -28t28 -68v-29q49 66 123.5 100.5t168.5 34.5q174 0 283 -121q27 -28 27 -67q0 -33 -21.5 -59.5t-60.5 -26.5q-23 0 -40.5 9t-33.5 23q-47 39 -87 54.5t-99 15.5q-76 0 -124 -28.5t-81 -71.5q-31 -41 -43 -100.5t-12 -157.5 v-484q0 -41 -28 -68.5t-69 -27.5t-68.5 27.5t-27.5 68.5z" />
<glyph unicode="s" horiz-adv-x="1185" d="M156 229q0 39 26.5 63.5t65.5 24.5q23 0 40 -11t29 -23q53 -53 119 -90t176 -37q113 0 174.5 42t61.5 115q0 78 -51.5 110t-130.5 48l-172 33q-66 12 -122.5 35.5t-97.5 59.5t-64.5 85t-23.5 115q0 74 37 135q45 76 133 126t230 50q102 0 191 -28.5t153 -82.5 q47 -39 47 -86q0 -35 -23.5 -55t-58.5 -20q-16 0 -33.5 6t-32.5 16q-59 41 -115.5 62.5t-140.5 21.5q-57 0 -96 -12t-62.5 -32.5t-33.5 -44.5t-10 -48q0 -37 15 -60.5t40 -39t57.5 -24.5t67.5 -15l172 -35q160 -33 233.5 -108t73.5 -206q0 -147 -110.5 -238t-309.5 -91 q-88 0 -156.5 16.5t-120.5 41t-88 53t-59 53.5q-12 16 -21 34.5t-9 40.5z" />
<glyph unicode="t" horiz-adv-x="991" d="M84 1012q0 37 25.5 62.5t60.5 25.5h160v307q0 41 27.5 68.5t68.5 27.5t68.5 -27.5t27.5 -68.5v-307h240q37 0 62.5 -25.5t25.5 -60.5q0 -37 -25.5 -62.5t-60.5 -25.5h-242v-566q0 -106 29 -151t94 -45q29 0 62.5 13t58.5 36q43 37 76 37q35 0 54 -24.5t19 -59.5 q0 -37 -30 -72q-41 -47 -106.5 -75.5t-133.5 -28.5q-160 0 -237.5 92t-77.5 266v578h-158q-37 0 -62.5 25.5t-25.5 60.5z" />
<glyph unicode="u" horiz-adv-x="1288" d="M207 416v588q0 41 27.5 68.5t68.5 27.5t68.5 -28t27.5 -68v-578q0 -37 3.5 -78t13.5 -67q18 -53 66 -85t122 -32q66 0 132.5 31.5t103.5 93.5q23 35 31 76t8 79v560q0 41 27.5 68.5t68.5 27.5t68.5 -28t27.5 -68v-908q0 -41 -27.5 -68.5t-68.5 -27.5t-68.5 27.5 t-27.5 68.5v25q-49 -57 -130 -94t-182 -37q-86 0 -171 36.5t-136 123.5q-35 57 -44 125.5t-9 140.5z" />
<glyph unicode="v" horiz-adv-x="1134" d="M78 1004q0 39 27.5 67.5t68.5 28.5q29 0 54.5 -16.5t35.5 -45.5l264 -686q4 -10 9.5 -25.5t10.5 -31.5t10 -31.5t7 -23.5h4q2 8 7.5 23.5t10.5 31.5t10 31.5t9 25.5l264 686q10 29 36 45.5t55 16.5q41 0 68.5 -28t27.5 -68q0 -20 -10 -46l-367 -905q-10 -29 -34.5 -41 t-51.5 -12h-53q-27 0 -51.5 12.5t-34.5 40.5l-367 908q-10 20 -10 43z" />
<glyph unicode="w" horiz-adv-x="1576" d="M119 1004q0 41 28.5 68.5t69.5 27.5q37 0 59.5 -20.5t30.5 -51.5l187 -702q20 -72 22 -127h4q2 29 10.5 64.5t18.5 64.5l170 518q8 25 28.5 39t45.5 14t44 -13.5t29 -39.5l170 -520q10 -31 18.5 -65t12.5 -62h4q2 29 6 60.5t15 66.5l176 696q10 35 31.5 56.5t60.5 21.5 q41 0 69.5 -27.5t28.5 -68.5q0 -18 -4 -31l-254 -907q-8 -29 -34.5 -47.5t-57.5 -18.5h-68q-25 0 -45 14.5t-28 38.5l-144 449q-14 43 -20 73.5t-8 55.5h-4q-2 -49 -29 -133l-144 -445q-8 -25 -28.5 -39t-44.5 -14h-68q-29 0 -54.5 18.5t-35.5 47.5l-264 907q-4 12 -4 31z " />
<glyph unicode="x" horiz-adv-x="1167" d="M119 94q0 18 5 31.5t17 30.5l326 411l-297 375q-23 29 -23 62q0 41 28 68.5t69 27.5q47 0 75 -37l265 -356l258 356q10 12 28.5 24.5t47.5 12.5q41 0 68.5 -28t27.5 -68q0 -35 -23 -62l-297 -367l334 -419q20 -27 21 -60q0 -41 -28 -68.5t-69 -27.5q-23 0 -42 9t-33 28 l-297 399l-289 -399q-14 -18 -34.5 -27.5t-41.5 -9.5q-41 0 -68.5 26.5t-27.5 67.5z" />
<glyph unicode="y" horiz-adv-x="1142" d="M61 -264q0 35 25 60.5t61 25.5q33 0 62 -23q23 -18 48.5 -30.5t55.5 -12.5q45 0 72 29t47 82l62 162q-18 6 -27 24l-367 905q-4 8 -7 19.5t-3 26.5q0 41 27.5 68.5t68.5 27.5q35 0 57.5 -18.5t30.5 -39.5l267 -690q4 -10 9 -25.5t10 -31.5t10 -31.5t8 -23.5h4q2 8 7 23.5 t10 31.5t10 31.5t9 25.5l269 695q10 29 34.5 41t51.5 12q41 0 68.5 -28t27.5 -68q0 -18 -10 -43l-479 -1192q-35 -90 -104.5 -138.5t-160.5 -48.5q-133 0 -219 80q-14 14 -24.5 32.5t-10.5 41.5z" />
<glyph unicode="z" horiz-adv-x="1124" d="M125 96q0 35 25 70l571 766h-475q-35 0 -61.5 24.5t-26.5 59.5q0 37 26.5 60.5t61.5 23.5h631q45 0 70.5 -29t25.5 -67q0 -35 -25 -70l-571 -766h536q35 0 60.5 -24.5t25.5 -59.5q0 -37 -25.5 -60.5t-60.5 -23.5h-692q-47 0 -71.5 28.5t-24.5 67.5z" />
<glyph unicode="{" horiz-adv-x="780" d="M51 608q0 39 25.5 64.5t64.5 25.5q61 0 110.5 50.5t49.5 140.5v426q0 111 18.5 176t61.5 117q53 63 121.5 96t167.5 33q39 0 64.5 -23.5t25.5 -58.5t-25.5 -58.5t-64.5 -23.5q-51 0 -87 -20.5t-59 -55.5q-20 -31 -26 -78t-6 -104v-408q0 -111 -50.5 -190.5t-124.5 -108.5 q74 -27 124.5 -107.5t50.5 -191.5v-407q0 -57 6 -104.5t26 -78.5q23 -35 58.5 -55t87.5 -20q39 0 64.5 -23.5t25.5 -58.5t-25.5 -58.5t-64.5 -23.5q-98 0 -167 32.5t-122 96.5q-43 51 -61.5 116.5t-18.5 176.5v428q0 88 -48 139t-112 51q-39 0 -64.5 25.5t-25.5 62.5z" />
<glyph unicode="|" horiz-adv-x="550" d="M184 -428v2073q0 39 27 65.5t65 26.5q37 0 64 -27t27 -65v-2073q0 -39 -27 -65.5t-64 -26.5q-39 0 -65.5 26.5t-26.5 65.5z" />
<glyph unicode="}" horiz-adv-x="780" d="M20 -438q0 35 26 58.5t65 23.5q51 0 86.5 20.5t58.5 54.5q20 31 26.5 78t6.5 105v407q0 111 50 192t124 107q-74 29 -124 109t-50 190v408q0 57 -6.5 104t-26.5 78q-23 35 -58.5 55.5t-86.5 20.5q-39 0 -65 23.5t-26 58.5t26 58.5t65 23.5q98 0 166.5 -33t121.5 -96 q43 -51 61.5 -117t18.5 -176v-426q0 -90 49.5 -140.5t110.5 -50.5q39 0 64.5 -25.5t25.5 -64.5q0 -37 -25.5 -62.5t-64.5 -25.5q-63 0 -111.5 -51t-48.5 -139v-428q0 -111 -18.5 -176.5t-61.5 -116.5q-53 -63 -121.5 -96t-166.5 -33q-39 0 -65 23.5t-26 58.5z" />
<glyph unicode="~" horiz-adv-x="1425" d="M41 559q0 10 3 24.5t13 28.5q20 33 53 73t79.5 74t107.5 56.5t141 22.5q84 0 149.5 -22.5t123.5 -63.5l82 -60q47 -35 94 -58.5t112 -23.5q55 0 92 15.5t62 38t41 47t31 41.5q14 16 32.5 27.5t45.5 11.5q35 0 59 -25t24 -64q0 -10 -3 -24t-13 -29q-20 -35 -53 -73.5 t-79 -72.5t-107.5 -56.5t-141.5 -22.5q-84 0 -150.5 22.5t-121.5 63.5l-82 59q-49 35 -95 58.5t-112 23.5q-55 0 -92 -15t-61.5 -38t-41 -47.5t-30.5 -40.5t-32.5 -27.5t-45.5 -11.5q-35 0 -59.5 24.5t-24.5 63.5z" />
<glyph unicode="&#xa1;" horiz-adv-x="878" d="M258 1309q0 76 53.5 129t128.5 53q78 0 131.5 -53t53.5 -129q0 -78 -53.5 -131.5t-131.5 -53.5q-76 0 -129 53.5t-53 131.5zM322 106q0 20 2 82t5 145t6 175t6 173t5 140.5t2 75.5q2 39 27.5 65.5t64.5 26.5t64.5 -26.5t27.5 -65.5q0 -16 2.5 -75.5t5.5 -140.5t6 -173 t6 -174t5 -143.5t2 -79.5q0 -47 -37 -79t-82 -32t-81.5 30.5t-36.5 75.5z" />
<glyph unicode="&#xa2;" horiz-adv-x="1261" d="M209 549q0 127 36 230.5t98.5 177t147 113.5t183.5 40q131 0 226 -59.5t149 -161.5q6 -12 12 -29.5t6 -40.5q0 -33 -23.5 -56.5t-60.5 -23.5q-31 0 -51.5 17.5t-38.5 48.5q-37 61 -90 98t-131 37q-74 0 -125 -36t-84 -92t-48.5 -126t-15.5 -137q0 -186 78 -287.5 t199 -101.5q78 0 134 36.5t87 102.5q16 35 40 48t46 13q37 0 61.5 -26.5t24.5 -63.5q0 -16 -6 -33.5t-12 -31.5q-20 -43 -56.5 -82t-85.5 -68.5t-107.5 -47t-125.5 -17.5q-98 0 -184 40t-148.5 112.5t-98.5 176t-36 230.5zM594 -188v1484q0 35 25.5 60.5t60.5 25.5 t60.5 -25.5t25.5 -60.5v-1484q0 -35 -25.5 -60.5t-60.5 -25.5t-60.5 25.5t-25.5 60.5z" />
<glyph unicode="&#xa3;" horiz-adv-x="1275" d="M164 731q0 35 25.5 58.5t60.5 23.5h53q-8 33 -13 58.5t-8 51t-5.5 55.5t-2.5 69q0 104 31 188t84 143.5t125 91t156 31.5q76 0 134 -19.5t99 -51t69.5 -69.5t47.5 -75q14 -29 14 -63q0 -35 -19.5 -61.5t-66.5 -26.5q-51 0 -84 55q-12 23 -27.5 45t-38 40.5t-54 30 t-76.5 11.5q-39 0 -76 -16.5t-64.5 -49t-44 -84t-16.5 -120.5q0 -72 10 -129.5t21 -104.5h217q35 0 60.5 -23.5t25.5 -58.5q0 -37 -25.5 -60.5t-60.5 -23.5h-180q6 -78 6 -155q0 -39 -5.5 -82t-17.5 -82t-30.5 -72t-45.5 -51q74 33 136 33q47 0 84.5 -10.5t69.5 -21.5 t62.5 -21.5t61.5 -10.5q45 0 78 14.5t86 55.5q27 20 53 20q51 0 76 -31q25 -28 25 -67q0 -43 -44 -80q-66 -57 -125 -77.5t-131 -20.5q-53 0 -93 10t-77.5 22.5t-78.5 22.5t-95 10q-49 0 -83.5 -8t-64.5 -18.5t-56.5 -18.5t-59.5 -8q-43 0 -66.5 25.5t-23.5 60.5q0 43 41 84 q23 23 43.5 45.5t48.5 73.5q29 47 38 99t9 99q0 41 -3 80t-13 80h-90q-35 0 -60.5 23.5t-25.5 60.5z" />
<glyph unicode="&#xa4;" horiz-adv-x="1519" d="M311 549q0 74 22.5 141.5t63.5 122.5l-59 61q-23 23 -23 56q0 31 23 53q23 23 55 23q33 0 53 -23l58 -63q53 37 117.5 57t136.5 20t135 -20.5t119 -56.5l57 63q20 23 53 23t56 -23t22 -53q0 -33 -22 -56l-58 -57q41 -55 64.5 -122.5t23.5 -143.5t-22.5 -143.5 t-63.5 -122.5l56 -56q23 -23 22 -55q0 -31 -22 -53q-23 -23 -56 -23t-53 23l-55 59q-55 -37 -120 -57.5t-136 -20.5q-141 0 -256 80l-56 -61q-20 -23 -53 -23t-55 23q-23 23 -23 53q0 33 23 55l57 58q-41 55 -62.5 121.5t-21.5 140.5zM479 551q0 -61 20.5 -114.5t57.5 -93.5 t88 -62.5t113 -22.5q61 0 113.5 22.5t89 62.5t58 93.5t21.5 114.5t-21.5 114.5t-58 93.5t-89 62.5t-113.5 22.5t-112.5 -22.5t-88.5 -62.5t-57.5 -93.5t-20.5 -114.5z" />
<glyph unicode="&#xa5;" horiz-adv-x="1288" d="M111 1378q0 41 28.5 72t69.5 31q25 0 48.5 -11.5t35.5 -33.5l352 -629l348 629q14 25 38 35t48 10q41 0 70 -31t29 -72q0 -16 -5.5 -31.5t-13.5 -29.5l-356 -592h158q29 0 50 -21.5t21 -50.5t-21.5 -49t-49.5 -20h-224q2 -23 2 -55.5v-73.5h222q29 0 50 -21.5t21 -50.5 t-21.5 -49.5t-49.5 -20.5h-218q2 -72 2 -130v-81q0 -43 -29.5 -72.5t-72.5 -29.5t-72.5 29.5t-29.5 72.5v81.5t2 129.5h-219q-29 0 -49.5 20.5t-20.5 49.5t20.5 50.5t49.5 21.5h221q2 41 2 73.5v55.5h-223q-29 0 -49.5 20.5t-20.5 48.5q0 29 20.5 50.5t49.5 21.5h157 l-352 592q-8 14 -13 29.5t-5 31.5z" />
<glyph unicode="&#xa6;" horiz-adv-x="520" d="M164 -127v514q0 41 27.5 68.5t68.5 27.5t68.5 -27.5t27.5 -68.5v-514q0 -41 -27.5 -68.5t-68.5 -27.5t-68.5 27.5t-27.5 68.5zM164 1069v516q0 41 27.5 68.5t68.5 27.5t68.5 -27.5t27.5 -68.5v-516q0 -41 -27.5 -68.5t-68.5 -27.5t-68.5 27.5t-27.5 68.5z" />
<glyph unicode="&#xa7;" horiz-adv-x="1372" d="M276 715q0 72 43 129t113 90q-45 43 -73.5 96t-28.5 125q0 68 25.5 130.5t71.5 110.5t111.5 76.5t143.5 28.5q57 0 103 -13t82 -32.5t60.5 -41t37.5 -38.5q33 -41 32 -82q0 -29 -19.5 -49t-51.5 -20q-16 0 -32.5 6t-33.5 22q-45 47 -82 67.5t-96 20.5q-37 0 -69.5 -14 t-57.5 -37.5t-39 -55.5t-14 -69q0 -70 46 -112.5t132 -77.5l199 -78q111 -43 164 -106.5t53 -167.5q0 -47 -14.5 -84t-38 -65t-51 -45t-54.5 -26q49 -43 83 -103t34 -157q0 -76 -27 -137t-73 -104t-108.5 -66.5t-135.5 -23.5q-66 0 -120 18t-96 46t-70 58.5t-42 53.5 q-12 20 -19.5 36.5t-7.5 43.5q0 29 21.5 53t56.5 24q31 0 47.5 -15t26.5 -32q39 -59 84 -93t113 -34q80 0 128 42t48 124q0 84 -54.5 135.5t-132.5 83.5l-241 101q-84 35 -130.5 100.5t-46.5 157.5zM446 729q0 -49 32 -85t81 -54l250 -98q41 4 79 32.5t38 91.5q0 53 -33 87 t-84 53l-246 92q-47 -6 -82 -40t-35 -79z" />
<glyph unicode="&#xa8;" horiz-adv-x="886" d="M61 1442q0 59 44.5 103t103.5 44t103 -44t44 -103t-44 -103.5t-103 -44.5t-103.5 44t-44.5 104zM530 1442q0 59 44 103t104 44q59 0 103 -44t44 -103t-44 -103.5t-103 -44.5t-103.5 44t-44.5 104z" />
<glyph unicode="&#xa9;" horiz-adv-x="1777" d="M143 741q0 156 58.5 295.5t160 242.5t237.5 163.5t290 60.5t289 -60.5t236.5 -163.5t160.5 -242.5t59 -295.5q0 -158 -59 -296t-160.5 -241.5t-237 -163.5t-288.5 -60q-154 0 -290 60t-237.5 163.5t-160 242t-58.5 295.5zM285 741q0 -131 48 -244.5t131 -198.5 t192.5 -133t232.5 -48t232.5 48t192.5 133t131 198.5t48 244.5t-48 245t-131 198t-192.5 132t-232.5 48t-232.5 -48t-192.5 -132t-131 -198t-48 -245zM516 741q0 80 31 151t84 123t124.5 82.5t153.5 30.5q98 0 178 -38.5t134 -116.5q6 -10 11 -22.5t5 -22.5 q0 -33 -19.5 -52.5t-48.5 -19.5q-25 0 -42 11.5t-33 33.5q-29 37 -68 63.5t-117 26.5q-53 0 -97 -19.5t-77 -53t-50 -79.5t-17 -98q0 -51 17 -96t50 -79t77 -53t97 -19q41 0 72 9t54.5 22.5t40 29.5t28.5 33q16 16 30.5 27.5t36.5 11.5q29 0 49.5 -20.5t20.5 -49.5 q0 -25 -14 -45q-51 -78 -135 -118t-183 -40q-82 0 -153.5 31t-124.5 83t-84 123t-31 150z" />
<glyph unicode="&#xaa;" horiz-adv-x="800" d="M86 1163q0 78 22.5 141.5t60.5 108.5t91 69.5t115 24.5q49 0 86 -16t63 -55q8 35 27.5 50t44.5 15q31 0 52.5 -20.5t21.5 -53.5v-530q0 -29 -21.5 -51.5t-52.5 -22.5q-25 0 -45.5 16.5t-28.5 49.5q-27 -39 -64.5 -55.5t-86.5 -16.5q-61 0 -112.5 24.5t-90.5 69.5 t-60.5 108.5t-21.5 143.5zM233 1163q0 -102 39 -156.5t103 -54.5q66 0 106.5 53.5t40.5 153.5q0 98 -39 155.5t-106 57.5q-63 0 -103.5 -55.5t-40.5 -153.5z" />
<glyph unicode="&#xab;" horiz-adv-x="1228" d="M164 551q0 33 11 50t30 44l301 420q16 23 28.5 28t26.5 5q23 0 39 -15q20 -16 21 -45q0 -14 -11 -34l-221 -453l221 -453q10 -20 11 -35q0 -29 -21 -45q-16 -14 -39 -14q-14 0 -26.5 5t-28.5 28l-301 420q-18 27 -29.5 44t-11.5 50zM612 551q0 33 11.5 50t29.5 44 l301 420q16 23 28.5 28t27.5 5q23 0 39 -15q20 -16 20 -45q0 -14 -10 -34l-221 -453l221 -453q10 -20 10 -35q0 -29 -20 -45q-16 -14 -39 -14q-14 0 -26.5 5t-29.5 28l-301 420q-18 27 -29.5 44t-11.5 50z" />
<glyph unicode="&#xac;" horiz-adv-x="1425" d="M119 563q0 39 26.5 65.5t65.5 26.5h975q43 0 72.5 -29.5t29.5 -72.5v-334q0 -43 -30.5 -72.5t-71.5 -29.5t-71 29.5t-30 72.5v252h-874q-39 0 -65.5 26.5t-26.5 65.5z" />
<glyph unicode="&#xad;" horiz-adv-x="1046" d="M215 563q0 37 25.5 62.5t60.5 25.5h444q35 0 60.5 -25.5t25.5 -62.5t-25.5 -62.5t-60.5 -25.5h-444q-35 0 -60.5 25.5t-25.5 62.5z" />
<glyph unicode="&#xae;" horiz-adv-x="1777" d="M143 741q0 156 58.5 295.5t160 242.5t237.5 163.5t290 60.5t289 -60.5t236.5 -163.5t160.5 -242.5t59 -295.5q0 -158 -59 -296t-160.5 -241.5t-237 -163.5t-288.5 -60q-154 0 -290 60t-237.5 163.5t-160 242t-58.5 295.5zM285 741q0 -131 48 -244.5t131 -198.5 t192.5 -133t232.5 -48t232.5 48t192.5 133t131 198.5t48 244.5t-48 245t-131 198t-192.5 132t-232.5 48t-232.5 -48t-192.5 -132t-131 -198t-48 -245zM575 426v629q0 31 21.5 52t52.5 21h295q66 0 125 -19t100 -60q31 -29 47.5 -72t16.5 -90q0 -96 -64 -164 q-41 -41 -110 -64l143 -180q14 -18 17.5 -31.5t3.5 -23.5q0 -12 -4.5 -26.5t-14.5 -24.5q-20 -20 -53 -21q-37 0 -59 29l-199 264h-172v-219q0 -31 -21.5 -51.5t-50.5 -20.5q-31 0 -52.5 20.5t-21.5 51.5zM721 780h227q47 0 73 10.5t42 26.5q12 10 17 28.5t5 41.5 q0 39 -24 67q-35 39 -117 39h-223v-213z" />
<glyph unicode="&#xaf;" horiz-adv-x="913" d="M109 1442q0 39 26.5 65.5t65.5 26.5h512q39 0 65.5 -26.5t26.5 -65.5t-26.5 -65.5t-65.5 -26.5h-512q-39 0 -65.5 26.5t-26.5 65.5z" />
<glyph unicode="&#xb0;" horiz-adv-x="919" d="M113 1165q0 70 27.5 131.5t74.5 107.5t109.5 71.5t134.5 25.5q70 0 133 -25.5t110.5 -71.5t75 -107.5t27.5 -131.5q0 -72 -27.5 -133t-75 -106t-111 -71t-132.5 -26q-72 0 -134.5 26t-109.5 71t-74.5 106.5t-27.5 132.5zM270 1165q0 -39 14.5 -72.5t40 -59t60.5 -41 t74 -15.5t73.5 15.5t60 41t40 59t14.5 72.5t-14.5 73t-40 59.5t-60 41t-73.5 15.5t-74 -15.5t-60.5 -41t-40 -59.5t-14.5 -73z" />
<glyph unicode="&#xb1;" horiz-adv-x="1425" d="M133 72q0 39 26.5 65.5t65.5 26.5h975q39 0 65.5 -26.5t26.5 -65.5t-26.5 -65.5t-65.5 -26.5h-975q-39 0 -65.5 26.5t-26.5 65.5zM133 702q0 39 26.5 66t65.5 27h396v252q0 39 26.5 65.5t65.5 26.5t65.5 -27t26.5 -65v-252h395q39 0 65.5 -27t26.5 -66t-26.5 -65.5 t-65.5 -26.5h-395v-252q0 -39 -26.5 -65.5t-65.5 -26.5t-65.5 26.5t-26.5 65.5v252h-396q-39 0 -65.5 27t-26.5 65z" />
<glyph unicode="&#xb2;" horiz-adv-x="804" d="M117 653q0 72 23.5 127.5t62.5 98.5t86 76.5t96 64.5q78 47 111.5 96t33.5 115q0 47 -29.5 84t-82.5 37q-45 0 -83 -29t-48 -94q-4 -29 -21.5 -47.5t-52.5 -18.5t-51.5 21.5t-16.5 54.5q0 39 16.5 83t51.5 82t88 63.5t125 25.5q51 0 97 -18.5t82 -52t57.5 -82 t21.5 -107.5q0 -66 -16.5 -114t-45 -85t-68.5 -67.5t-87 -59.5q-29 -16 -58.5 -36.5t-55 -43t-46 -49t-28.5 -57.5h354q31 0 51.5 -20.5t20.5 -51.5q0 -29 -20.5 -50t-51.5 -21h-445q-31 0 -51 21.5t-20 53.5z" />
<glyph unicode="&#xb3;" horiz-adv-x="776" d="M57 688q0 31 21.5 52.5t54.5 21.5q20 0 37 -10q35 -23 79 -34t113 -11q88 0 131.5 42t43.5 101q0 57 -51.5 98t-157.5 41q-31 0 -53.5 21.5t-22.5 50.5t22.5 50.5t53.5 21.5q90 0 125.5 33.5t35.5 74.5t-35.5 74t-111.5 33q-49 0 -80 -8.5t-59 -22.5q-6 -4 -16.5 -7 t-20.5 -3q-31 0 -52.5 19.5t-21.5 51.5q0 47 43 68q49 23 98.5 35t104.5 12q66 0 121 -19.5t95 -53.5t62.5 -80t22.5 -99q0 -49 -22.5 -97t-71.5 -71q66 -23 102.5 -84t36.5 -139q0 -127 -84 -206t-238 -79q-84 0 -143 13.5t-119 42.5q-43 20 -43 67z" />
<glyph unicode="&#xb4;" horiz-adv-x="585" d="M53 1284q0 12 5 25.5t14 23.5l239 336q18 27 43 42t56 15q49 0 83.5 -32.5t34.5 -83.5q0 -53 -34 -84l-336 -281q-18 -16 -45 -16t-43 16t-17 39z" />
<glyph unicode="&#xb5;" horiz-adv-x="1273" d="M215 -285v1289q0 41 27.5 68.5t68.5 27.5t69 -28t28 -68v-578q0 -37 3 -78t13 -67q18 -53 66.5 -85t121.5 -32q66 0 132.5 31.5t103.5 93.5q23 35 31 76t8 79v560q0 41 27.5 68.5t68.5 27.5t68.5 -28t27.5 -68v-908q0 -41 -27.5 -68.5t-68.5 -27.5t-68.5 27.5t-27.5 68.5 v25q-49 -57 -130 -94t-182 -37q-47 0 -93 9t-87 32l13 -316q2 -41 -27 -68.5t-70 -27.5t-68.5 27.5t-27.5 68.5z" />
<glyph unicode="&#xb6;" horiz-adv-x="1464" d="M113 1083q0 78 28.5 144.5t79.5 115.5q68 68 166 103t209 35h518q39 0 66.5 -28t27.5 -67v-1288q0 -39 -27.5 -66.5t-66.5 -27.5t-66.5 27.5t-27.5 66.5v1202h-227v-1202q0 -39 -28 -66.5t-67 -27.5t-66.5 27.5t-27.5 66.5v582q-127 0 -225 36t-160 97q-106 106 -106 270 z" />
<glyph unicode="&#xb7;" horiz-adv-x="735" d="M184 729q0 76 53.5 129t129.5 53q78 0 131 -53t53 -129t-53.5 -129t-130.5 -53q-76 0 -129.5 53t-53.5 129z" />
<glyph unicode="&#xb8;" horiz-adv-x="509" d="M41 -311q0 23 16 39q14 14 37 14q14 0 27 -6q29 -14 65.5 -28.5t71.5 -14.5q80 0 80 69q0 35 -25.5 50.5t-60.5 15.5q-16 0 -25.5 -2t-15.5 -2q-8 0 -16.5 6t-8.5 23v192h70v-131q18 4 34.5 6t26.5 2q61 0 109.5 -46t48.5 -116q0 -88 -61.5 -133t-147.5 -45 q-27 0 -60.5 4t-78.5 21q-53 20 -69.5 38.5t-16.5 43.5z" />
<glyph unicode="&#xb9;" horiz-adv-x="708" d="M78 1235q0 35 31 57l245 174q18 14 41 15h51q35 0 56.5 -22.5t21.5 -55.5v-748q0 -33 -21.5 -55t-56.5 -22q-33 0 -55 22.5t-22 54.5v648l-179 -127q-18 -12 -40 -13q-16 0 -32 8.5t-26 20.5q-14 16 -14 43z" />
<glyph unicode="&#xba;" horiz-adv-x="751" d="M86 1163q0 78 22.5 141.5t61.5 108.5t92.5 69.5t114.5 24.5t114.5 -24.5t92.5 -69.5t61.5 -108.5t22.5 -141.5q0 -80 -22.5 -143.5t-61.5 -108.5t-92.5 -69.5t-114.5 -24.5t-114.5 24.5t-92.5 69.5t-61.5 108.5t-22.5 143.5zM233 1163q0 -100 40.5 -158.5t103.5 -58.5 t103 58.5t40 158.5q0 98 -40 156.5t-103 58.5t-103.5 -58t-40.5 -157z" />
<glyph unicode="&#xbb;" horiz-adv-x="1228" d="M160 63q0 14 10 35l221 453l-221 453q-10 20 -10 34q0 29 20 45q16 14 39 15q14 0 26.5 -5.5t28.5 -27.5l301 -420q18 -27 29.5 -44t11.5 -50t-11 -50.5t-30 -43.5l-301 -420q-16 -23 -28.5 -28t-26.5 -5q-23 0 -39 14q-20 16 -20 45zM608 63q0 14 10 35l222 453 l-222 453q-10 20 -10 34q0 29 21 45q16 14 39 15q14 0 26.5 -5.5t28.5 -27.5l301 -420q18 -27 29.5 -44t11.5 -50t-11.5 -50.5t-29.5 -43.5l-301 -420q-16 -23 -28.5 -28t-26.5 -5q-23 0 -39 14q-20 16 -21 45z" />
<glyph unicode="&#xbc;" horiz-adv-x="1939" d="M78 1235q0 35 31 57l245 174q18 14 41 15h51q35 0 56.5 -22.5t21.5 -55.5v-748q0 -33 -21.5 -55t-56.5 -22q-33 0 -55 22.5t-22 54.5v648l-179 -127q-18 -12 -40 -13q-16 0 -32 8.5t-26 20.5q-14 16 -14 43zM494 -160q0 12 3 21.5t7 19.5l795 1772q10 20 28.5 30.5 t38.5 10.5q25 0 41 -8q41 -23 41 -76q0 -12 -8 -33l-797 -1772q-10 -20 -27.5 -30.5t-39.5 -10.5q-29 0 -49 15q-14 10 -23.5 25.5t-9.5 35.5zM1235 205v16q0 12 5 23.5t10 19.5l331 535q10 16 25.5 23.5t32.5 7.5h37q35 0 56 -23t21 -55v-480h31q31 0 51.5 -20t20.5 -49 q0 -31 -20.5 -51.5t-51.5 -20.5h-31v-127q0 -33 -19.5 -55.5t-53.5 -22.5q-33 0 -54.5 22.5t-21.5 55.5v127h-297q-31 0 -51.5 21.5t-20.5 52.5zM1407 272h197v318z" />
<glyph unicode="&#xbd;" horiz-adv-x="2035" d="M78 1235q0 35 31 57l245 174q18 14 41 15h51q35 0 56.5 -22.5t21.5 -55.5v-748q0 -33 -21.5 -55t-56.5 -22q-33 0 -55 22.5t-22 54.5v648l-179 -127q-18 -12 -40 -13q-16 0 -32 8.5t-26 20.5q-14 16 -14 43zM494 -160q0 12 3 21.5t7 19.5l795 1772q10 20 28.5 30.5 t38.5 10.5q25 0 41 -8q41 -23 41 -76q0 -12 -8 -33l-797 -1772q-10 -20 -27.5 -30.5t-39.5 -10.5q-29 0 -49 15q-14 10 -23.5 25.5t-9.5 35.5zM1348 -4q0 72 23.5 127.5t62.5 98.5t86 76.5t96 64.5q78 47 111.5 96t33.5 115q0 47 -29.5 84t-82.5 37q-45 0 -83 -29t-48 -94 q-4 -29 -21.5 -47.5t-52.5 -18.5t-51.5 21.5t-16.5 54.5q0 39 16.5 83t51.5 82t88 63.5t125 25.5q51 0 97 -18.5t82 -52t57.5 -82t21.5 -107.5q0 -66 -16.5 -114t-45 -85t-68.5 -67.5t-87 -59.5q-29 -16 -58.5 -36.5t-55 -43t-46 -49t-28.5 -57.5h354q31 0 51.5 -20.5 t20.5 -51.5q0 -29 -20.5 -50t-51.5 -21h-445q-31 0 -51 21.5t-20 53.5z" />
<glyph unicode="&#xbe;" horiz-adv-x="2013" d="M57 692q0 31 19.5 51.5t52.5 20.5q10 0 20.5 -4t20.5 -9q35 -18 79 -31.5t113 -13.5q88 0 131.5 43t43.5 103q0 66 -50.5 104.5t-158.5 38.5q-31 0 -53.5 19.5t-22.5 48.5t22.5 48t53.5 19q92 0 126.5 35t34.5 78q0 29 -14 49.5t-36.5 33.5t-51.5 19t-55 6q-39 0 -74 -10 t-49 -16q-8 -4 -21.5 -7t-23.5 -3q-29 0 -50.5 16t-21.5 51q0 23 12.5 38t30.5 26q49 23 100.5 36t106.5 13q66 0 120 -19.5t94 -53.5t61.5 -80t21.5 -99q0 -49 -24.5 -96t-73.5 -72q66 -23 104.5 -84t38.5 -139q0 -127 -84 -206t-238 -79q-84 0 -142 14.5t-118 42.5 q-45 23 -45 68zM559 -160q0 12 3 21.5t7 19.5l795 1772q10 20 28.5 30.5t38.5 10.5q25 0 41 -8q41 -23 41 -76q0 -12 -8 -33l-797 -1772q-10 -20 -27.5 -30.5t-39.5 -10.5q-29 0 -49 15q-14 10 -23.5 25.5t-9.5 35.5zM1308 205v16q0 12 5 23.5t10 19.5l331 535 q10 16 25.5 23.5t32.5 7.5h37q35 0 56 -23t21 -55v-480h31q31 0 51.5 -20t20.5 -49q0 -31 -20.5 -51.5t-51.5 -20.5h-31v-127q0 -33 -19.5 -55.5t-53.5 -22.5q-33 0 -54.5 22.5t-21.5 55.5v127h-297q-31 0 -51.5 21.5t-20.5 52.5zM1480 272h197v318z" />
<glyph unicode="&#xbf;" horiz-adv-x="1169" d="M154 373q0 59 12 103t34.5 80t54.5 65.5t69 58.5l108 84q35 27 61.5 52.5t26.5 62.5v26q0 41 27.5 63.5t60.5 22.5t58.5 -22.5t25.5 -63.5v-61q0 -53 -30.5 -91t-94.5 -91l-127 -105q-39 -33 -68.5 -75t-29.5 -107q0 -92 60.5 -150.5t179.5 -58.5q121 0 179 61.5 t77 165.5q6 35 28.5 57.5t61.5 22.5t63.5 -27.5t24.5 -68.5q0 -86 -38 -156.5t-99.5 -121t-139 -79t-157.5 -28.5q-94 0 -173 27.5t-135.5 77.5t-88 121t-31.5 155zM424 1311q0 76 53 129t129 53t129 -53.5t53 -128.5q0 -78 -53 -131.5t-129 -53.5t-129 53.5t-53 131.5z" />
<glyph unicode="&#xc0;" horiz-adv-x="1265" d="M43 94q0 10 3 23.5t7 23.5l463 1274q10 29 35.5 47.5t54.5 18.5h59q29 0 53.5 -18.5t34.5 -47.5l463 -1268q4 -10 6 -20t2 -27q0 -41 -26.5 -70.5t-73.5 -29.5q-31 0 -60.5 17.5t-43.5 58.5l-91 264h-602l-88 -272q-10 -29 -33.5 -48.5t-64.5 -19.5q-45 0 -71.5 26.5 t-26.5 67.5zM362 1870q0 55 36 87t77 32q47 0 98 -39l287 -217q39 -20 39 -62q0 -23 -15.5 -39t-41.5 -16h-12.5t-12.5 2l-362 137q-43 16 -68 45t-25 70zM387 524h485l-203 582q-10 27 -19 58.5t-18 62.5h-4q-8 -31 -17 -62.5t-20 -58.5z" />
<glyph unicode="&#xc1;" horiz-adv-x="1263" d="M43 94q0 10 3 23.5t7 23.5l463 1274q10 29 35.5 47.5t54.5 18.5h59q29 0 53.5 -18.5t34.5 -47.5l463 -1268q4 -10 6 -20t2 -27q0 -41 -26.5 -70.5t-73.5 -29.5q-31 0 -60.5 17.5t-43.5 58.5l-91 264h-602l-88 -272q-10 -29 -33.5 -48.5t-64.5 -19.5q-45 0 -71.5 26.5 t-26.5 67.5zM362 1671q0 41 39 62l287 217q51 39 98 39q41 0 77 -32t36 -87q0 -41 -24.5 -69.5t-67.5 -45.5l-363 -137q-4 -2 -12 -2h-12q-27 0 -42.5 16.5t-15.5 38.5zM387 524h485l-203 582q-10 27 -19 58.5t-18 62.5h-4q-8 -31 -17 -62.5t-20 -58.5z" />
<glyph unicode="&#xc2;" horiz-adv-x="1263" d="M43 94q0 10 3 23.5t7 23.5l463 1274q10 29 35.5 47.5t54.5 18.5h59q29 0 53.5 -18.5t34.5 -47.5l463 -1268q4 -10 6 -20t2 -27q0 -41 -26.5 -70.5t-73.5 -29.5q-31 0 -60.5 17.5t-43.5 58.5l-91 264h-602l-88 -272q-10 -29 -33.5 -48.5t-64.5 -19.5q-45 0 -71.5 26.5 t-26.5 67.5zM272 1665q0 16 11.5 32.5t23.5 28.5l252 240q16 16 33 24.5t40 8.5t40.5 -8.5t33.5 -24.5l252 -240q12 -12 23.5 -28.5t11.5 -32.5q0 -29 -16.5 -43t-34.5 -14q-14 0 -23.5 1t-23.5 11l-263 156l-262 -156q-14 -10 -23 -11t-24 -1q-18 0 -34.5 14t-16.5 43z M387 524h485l-203 582q-10 27 -19 58.5t-18 62.5h-4q-8 -31 -17 -62.5t-20 -58.5z" />
<glyph unicode="&#xc3;" horiz-adv-x="1265" d="M43 94q0 10 3 23.5t7 23.5l463 1274q10 29 35.5 47.5t54.5 18.5h59q29 0 53.5 -18.5t34.5 -47.5l463 -1268q4 -10 6 -20t2 -27q0 -41 -26.5 -70.5t-73.5 -29.5q-31 0 -60.5 17.5t-43.5 58.5l-91 264h-602l-88 -272q-10 -29 -33.5 -48.5t-64.5 -19.5q-45 0 -71.5 26.5 t-26.5 67.5zM242 1737q0 39 18.5 70.5t46.5 60.5q45 45 93.5 61.5t87.5 16.5q25 0 44 -3.5t38.5 -9.5t41 -15.5t50.5 -23.5q35 -16 62.5 -27.5t49.5 -11.5q29 0 52.5 19.5t40.5 44.5q16 23 35.5 30t31.5 7q37 0 59.5 -26.5t22.5 -55.5q0 -39 -18.5 -70.5t-46.5 -60.5 q-45 -45 -92.5 -61.5t-86.5 -16.5q-45 0 -82.5 12.5t-97.5 40.5q-33 16 -59.5 26.5t-48.5 10.5q-29 0 -52.5 -19.5t-40.5 -43.5q-16 -23 -35.5 -30t-31.5 -7q-37 0 -59.5 26.5t-22.5 55.5zM387 524h485l-203 582q-10 27 -19 58.5t-18 62.5h-4q-8 -31 -17 -62.5t-20 -58.5z " />
<glyph unicode="&#xc4;" horiz-adv-x="1265" d="M43 94q0 10 3 23.5t7 23.5l463 1274q10 29 35.5 47.5t54.5 18.5h59q29 0 53.5 -18.5t34.5 -47.5l463 -1268q4 -10 6 -20t2 -27q0 -41 -26.5 -70.5t-73.5 -29.5q-31 0 -60.5 17.5t-43.5 58.5l-91 264h-602l-88 -272q-10 -29 -33.5 -48.5t-64.5 -19.5q-45 0 -71.5 26.5 t-26.5 67.5zM249 1802q0 59 44.5 103.5t103.5 44.5t103 -44.5t44 -103.5t-44 -103t-103 -44t-103.5 44t-44.5 103zM387 524h485l-203 582q-10 27 -19 58.5t-18 62.5h-4q-8 -31 -17 -62.5t-20 -58.5zM718 1802q0 59 44 103.5t104 44.5q59 0 103 -44.5t44 -103.5t-44 -103 t-103 -44t-103.5 44t-44.5 103z" />
<glyph unicode="&#xc5;" horiz-adv-x="1265" d="M43 94q0 10 3 23.5t7 23.5l463 1274q10 29 35.5 47.5t54.5 18.5h59q29 0 53.5 -18.5t34.5 -47.5l463 -1268q4 -10 6 -20t2 -27q0 -41 -26.5 -70.5t-73.5 -29.5q-31 0 -60.5 17.5t-43.5 58.5l-91 264h-602l-88 -272q-10 -29 -33.5 -48.5t-64.5 -19.5q-45 0 -71.5 26.5 t-26.5 67.5zM354 1802q0 55 23 104.5t59.5 85.5t87 56t105.5 20t105.5 -20t88 -56t60 -84.5t22.5 -105.5t-22.5 -105t-60 -84t-88 -56.5t-105.5 -20.5t-105.5 20.5t-87 56.5t-59.5 84t-23 105zM387 524h485l-203 582q-10 27 -19 58.5t-18 62.5h-4q-8 -31 -17 -62.5 t-20 -58.5zM479 1802q0 -61 44 -105t106 -44q61 0 105 44t44 105t-44 105.5t-105 44.5t-105.5 -44t-44.5 -106z" />
<glyph unicode="&#xc6;" horiz-adv-x="1671" d="M88 102q0 20 8 39l586 1274q14 29 37.5 47.5t52.5 18.5h680q39 0 65.5 -27t26.5 -65q0 -39 -26.5 -66t-65.5 -27h-444v-467h311q39 0 64.5 -24.5t25.5 -63.5t-25.5 -63.5t-64.5 -24.5h-311v-469h444q39 0 65.5 -26.5t26.5 -65.5t-26.5 -65.5t-65.5 -26.5h-547 q-41 0 -70.5 30.5t-29.5 71.5v238h-414l-115 -279q-12 -29 -38.5 -45t-55.5 -16q-18 0 -37 8q-29 12 -43 38t-14 56zM469 524h336v731z" />
<glyph unicode="&#xc7;" horiz-adv-x="1456" d="M155 741q0 172 44 311.5t126 240t196 154.5t255 54q100 0 180 -21.5t141.5 -59.5t108.5 -89t82 -108q10 -16 18.5 -35t8.5 -43q0 -39 -25 -65.5t-66 -26.5q-31 0 -52 14t-34 35q-39 63 -76.5 105t-79.5 67.5t-90 36t-106 10.5q-88 0 -164.5 -38t-133 -110.5t-89.5 -181 t-33 -250.5q0 -145 33 -253.5t89.5 -181.5t131 -109.5t158.5 -36.5q72 0 127 19.5t96 50t71 68.5t52 75q16 27 36.5 48t59.5 21t66 -25.5t27 -64.5q0 -27 -9.5 -47t-31.5 -61q-23 -37 -61 -83t-97.5 -86t-143 -67.5t-200.5 -27.5q-143 0 -257 55t-194 154.5t-122 239.5 t-42 312zM563 -311q0 23 16 39q14 14 37 14q14 0 27 -6q29 -14 65.5 -28.5t71.5 -14.5q80 0 80 69q0 35 -25.5 50.5t-60.5 15.5q-16 0 -25.5 -2t-15.5 -2q-8 0 -16.5 6t-8.5 23v192h70v-131q18 4 34.5 6t26.5 2q61 0 109.5 -46t48.5 -116q0 -88 -61.5 -133t-147.5 -45 q-27 0 -60.5 4t-78.5 21q-53 20 -69.5 38.5t-16.5 43.5z" />
<glyph unicode="&#xc8;" horiz-adv-x="1323" d="M238 102v1276q0 41 29.5 72t70.5 31h788q39 0 66 -27t27 -65q0 -39 -27 -66t-66 -27h-684v-462h439q39 0 65.5 -27t26.5 -66t-26.5 -65.5t-65.5 -26.5h-439v-465h684q39 0 66 -26.5t27 -65.5t-27 -65.5t-66 -26.5h-788q-41 0 -70.5 30.5t-29.5 71.5zM456 1870q0 55 36 87 t77 32q47 0 98 -39l287 -217q39 -20 39 -62q0 -23 -15.5 -39t-41.5 -16h-12.5t-12.5 2l-362 137q-43 16 -68 45t-25 70z" />
<glyph unicode="&#xc9;" horiz-adv-x="1323" d="M238 102v1276q0 41 29.5 72t70.5 31h788q39 0 66 -27t27 -65q0 -39 -27 -66t-66 -27h-684v-462h439q39 0 65.5 -27t26.5 -66t-26.5 -65.5t-65.5 -26.5h-439v-465h684q39 0 66 -26.5t27 -65.5t-27 -65.5t-66 -26.5h-788q-41 0 -70.5 30.5t-29.5 71.5zM462 1671q0 41 39 62 l287 217q51 39 98 39q41 0 77 -32t36 -87q0 -41 -24.5 -69.5t-67.5 -45.5l-363 -137q-4 -2 -12 -2h-12q-27 0 -42.5 16.5t-15.5 38.5z" />
<glyph unicode="&#xca;" horiz-adv-x="1323" d="M238 102v1276q0 41 29.5 72t70.5 31h788q39 0 66 -27t27 -65q0 -39 -27 -66t-66 -27h-684v-462h439q39 0 65.5 -27t26.5 -66t-26.5 -65.5t-65.5 -26.5h-439v-465h684q39 0 66 -26.5t27 -65.5t-27 -65.5t-66 -26.5h-788q-41 0 -70.5 30.5t-29.5 71.5zM358 1665 q0 16 11.5 32.5t23.5 28.5l252 240q16 16 33 24.5t40 8.5t40.5 -8.5t33.5 -24.5l252 -240q12 -12 23.5 -28.5t11.5 -32.5q0 -29 -16.5 -43t-34.5 -14q-14 0 -23.5 1t-23.5 11l-263 156l-262 -156q-14 -10 -23 -11t-24 -1q-18 0 -34.5 14t-16.5 43z" />
<glyph unicode="&#xcb;" horiz-adv-x="1323" d="M238 102v1276q0 41 29.5 72t70.5 31h788q39 0 66 -27t27 -65q0 -39 -27 -66t-66 -27h-684v-462h439q39 0 65.5 -27t26.5 -66t-26.5 -65.5t-65.5 -26.5h-439v-465h684q39 0 66 -26.5t27 -65.5t-27 -65.5t-66 -26.5h-788q-41 0 -70.5 30.5t-29.5 71.5zM354 1802 q0 59 44.5 103.5t103.5 44.5t103 -44.5t44 -103.5t-44 -103t-103 -44t-103.5 44t-44.5 103zM823 1802q0 59 44 103.5t104 44.5q59 0 103 -44.5t44 -103.5t-44 -103t-103 -44t-103.5 44t-44.5 103z" />
<glyph unicode="&#xcc;" horiz-adv-x="675" d="M73 1870q0 55 36 87t77 32q47 0 98 -39l287 -217q39 -20 39 -62q0 -23 -15.5 -39t-41.5 -16h-12.5t-12.5 2l-362 137q-43 16 -68 45t-25 70zM238 102v1276q0 43 29.5 73t72.5 30t72.5 -30t29.5 -73v-1276q0 -43 -29.5 -72.5t-72.5 -29.5t-72.5 29.5t-29.5 72.5z" />
<glyph unicode="&#xcd;" horiz-adv-x="675" d="M73 1671q0 41 39 62l287 217q51 39 98 39q41 0 77 -32t36 -87q0 -41 -24.5 -69.5t-67.5 -45.5l-363 -137q-4 -2 -12 -2h-12q-27 0 -42.5 16.5t-15.5 38.5zM238 102v1276q0 43 29.5 73t72.5 30t72.5 -30t29.5 -73v-1276q0 -43 -29.5 -72.5t-72.5 -29.5t-72.5 29.5 t-29.5 72.5z" />
<glyph unicode="&#xce;" horiz-adv-x="675" d="M-18 1665q0 16 11.5 32.5t23.5 28.5l252 240q16 16 33 24.5t40 8.5t40.5 -8.5t33.5 -24.5l252 -240q12 -12 23.5 -28.5t11.5 -32.5q0 -29 -16.5 -43t-34.5 -14q-14 0 -23.5 1t-23.5 11l-263 156l-262 -156q-14 -10 -23 -11t-24 -1q-18 0 -34.5 14t-16.5 43zM238 102v1276 q0 43 29.5 73t72.5 30t72.5 -30t29.5 -73v-1276q0 -43 -29.5 -72.5t-72.5 -29.5t-72.5 29.5t-29.5 72.5z" />
<glyph unicode="&#xcf;" horiz-adv-x="675" d="M-43 1802q0 59 44.5 103.5t103.5 44.5t103 -44.5t44 -103.5t-44 -103t-103 -44t-103.5 44t-44.5 103zM238 102v1276q0 43 29.5 73t72.5 30t72.5 -30t29.5 -73v-1276q0 -43 -29.5 -72.5t-72.5 -29.5t-72.5 29.5t-29.5 72.5zM426 1802q0 59 44 103.5t104 44.5 q59 0 103 -44.5t44 -103.5t-44 -103t-103 -44t-103.5 44t-44.5 103z" />
<glyph unicode="&#xd0;" horiz-adv-x="1495" d="M72 778q0 39 26.5 65.5t65.5 26.5h96v508q0 41 29.5 72t70.5 31h336q160 0 269.5 -54.5t187.5 -140.5q88 -98 138 -231t50 -314q0 -180 -51 -312t-141 -236q-76 -86 -184.5 -139.5t-268.5 -53.5h-336q-41 0 -70.5 30.5t-29.5 71.5v584h-96q-39 0 -65.5 26.5t-26.5 65.5z M465 184h180q72 0 126 10.5t96 28t74 43t58 56.5q59 70 96.5 174t37.5 245q0 266 -140 424q-55 61 -130 96t-191 35h-207v-426h266q39 0 65.5 -26.5t26.5 -65.5t-26.5 -65.5t-65.5 -26.5h-266v-502z" />
<glyph unicode="&#xd1;" horiz-adv-x="1511" d="M228 102v1276q0 43 29.5 73t72.5 30h74q35 0 55 -13.5t35 -37.5l563 -1039q10 -23 22.5 -49.5t22.5 -52.5l4 2q-4 23 -6 59.5t-2 63.5v964q0 43 28.5 73t71.5 30t72 -30t29 -73v-1276q0 -43 -30 -72.5t-73 -29.5h-82q-27 0 -50 12.5t-38 38.5l-561 1036 q-10 23 -22.5 49.5t-22.5 53.5l-4 -2q4 -23 6 -59.5t2 -63.5v-965q0 -41 -27.5 -70.5t-70.5 -29.5t-70.5 29.5t-27.5 72.5zM367 1737q0 39 18.5 70.5t46.5 60.5q45 45 93.5 61.5t87.5 16.5q25 0 44 -3.5t38.5 -9.5t41 -15.5t50.5 -23.5q35 -16 62.5 -27.5t49.5 -11.5 q29 0 52.5 19.5t40.5 44.5q16 23 35.5 30t31.5 7q37 0 59.5 -26.5t22.5 -55.5q0 -39 -18.5 -70.5t-46.5 -60.5q-45 -45 -92.5 -61.5t-86.5 -16.5q-45 0 -82.5 12.5t-97.5 40.5q-33 16 -59.5 26.5t-48.5 10.5q-29 0 -52.5 -19.5t-40.5 -43.5q-16 -23 -35.5 -30t-31.5 -7 q-37 0 -59.5 26.5t-22.5 55.5z" />
<glyph unicode="&#xd2;" horiz-adv-x="1552" d="M135 741q0 172 46.5 311.5t131.5 240t202.5 154.5t260.5 54t262 -54t203 -154.5t130 -240t46 -311.5t-45 -312t-129 -239.5t-202.5 -154.5t-264.5 -55q-145 0 -264 55t-202.5 154.5t-129 239.5t-45.5 312zM346 741q0 -131 31 -238.5t88 -183t136 -116.5t175 -41t175 41 t136.5 116.5t88.5 183t31 238.5t-31 237.5t-87.5 182.5t-136 117t-176.5 41q-96 0 -176 -41t-136 -117t-87 -182.5t-31 -237.5zM491 1870q0 55 36 87t77 32q47 0 98 -39l287 -217q39 -20 39 -62q0 -23 -15.5 -39t-41.5 -16h-12.5t-12.5 2l-362 137q-43 16 -68 45t-25 70z " />
<glyph unicode="&#xd3;" horiz-adv-x="1552" d="M135 741q0 172 46.5 311.5t131.5 240t202.5 154.5t260.5 54t262 -54t203 -154.5t130 -240t46 -311.5t-45 -312t-129 -239.5t-202.5 -154.5t-264.5 -55q-145 0 -264 55t-202.5 154.5t-129 239.5t-45.5 312zM346 741q0 -131 31 -238.5t88 -183t136 -116.5t175 -41t175 41 t136.5 116.5t88.5 183t31 238.5t-31 237.5t-87.5 182.5t-136 117t-176.5 41q-96 0 -176 -41t-136 -117t-87 -182.5t-31 -237.5zM489 1671q0 41 39 62l287 217q51 39 98 39q41 0 77 -32t36 -87q0 -41 -24.5 -69.5t-67.5 -45.5l-363 -137q-4 -2 -12 -2h-12q-27 0 -42.5 16.5 t-15.5 38.5z" />
<glyph unicode="&#xd4;" horiz-adv-x="1552" d="M135 741q0 172 46.5 311.5t131.5 240t202.5 154.5t260.5 54t262 -54t203 -154.5t130 -240t46 -311.5t-45 -312t-129 -239.5t-202.5 -154.5t-264.5 -55q-145 0 -264 55t-202.5 154.5t-129 239.5t-45.5 312zM346 741q0 -131 31 -238.5t88 -183t136 -116.5t175 -41t175 41 t136.5 116.5t88.5 183t31 238.5t-31 237.5t-87.5 182.5t-136 117t-176.5 41q-96 0 -176 -41t-136 -117t-87 -182.5t-31 -237.5zM397 1665q0 16 11.5 32.5t23.5 28.5l252 240q16 16 33 24.5t40 8.5t40.5 -8.5t33.5 -24.5l252 -240q12 -12 23.5 -28.5t11.5 -32.5 q0 -29 -16.5 -43t-34.5 -14q-14 0 -23.5 1t-23.5 11l-263 156l-262 -156q-14 -10 -23 -11t-24 -1q-18 0 -34.5 14t-16.5 43z" />
<glyph unicode="&#xd5;" horiz-adv-x="1552" d="M135 741q0 172 46.5 311.5t131.5 240t202.5 154.5t260.5 54t262 -54t203 -154.5t130 -240t46 -311.5t-45 -312t-129 -239.5t-202.5 -154.5t-264.5 -55q-145 0 -264 55t-202.5 154.5t-129 239.5t-45.5 312zM346 741q0 -131 31 -238.5t88 -183t136 -116.5t175 -41t175 41 t136.5 116.5t88.5 183t31 238.5t-31 237.5t-87.5 182.5t-136 117t-176.5 41q-96 0 -176 -41t-136 -117t-87 -182.5t-31 -237.5zM375 1737q0 39 18.5 70.5t46.5 60.5q45 45 93.5 61.5t87.5 16.5q25 0 44 -3.5t38.5 -9.5t41 -15.5t50.5 -23.5q35 -16 62.5 -27.5t49.5 -11.5 q29 0 52.5 19.5t40.5 44.5q16 23 35.5 30t31.5 7q37 0 59.5 -26.5t22.5 -55.5q0 -39 -18.5 -70.5t-46.5 -60.5q-45 -45 -92.5 -61.5t-86.5 -16.5q-45 0 -82.5 12.5t-97.5 40.5q-33 16 -59.5 26.5t-48.5 10.5q-29 0 -52.5 -19.5t-40.5 -43.5q-16 -23 -35.5 -30t-31.5 -7 q-37 0 -59.5 26.5t-22.5 55.5z" />
<glyph unicode="&#xd6;" horiz-adv-x="1552" d="M135 741q0 172 46.5 311.5t131.5 240t202.5 154.5t260.5 54t262 -54t203 -154.5t130 -240t46 -311.5t-45 -312t-129 -239.5t-202.5 -154.5t-264.5 -55q-145 0 -264 55t-202.5 154.5t-129 239.5t-45.5 312zM346 741q0 -131 31 -238.5t88 -183t136 -116.5t175 -41t175 41 t136.5 116.5t88.5 183t31 238.5t-31 237.5t-87.5 182.5t-136 117t-176.5 41q-96 0 -176 -41t-136 -117t-87 -182.5t-31 -237.5zM380 1802q0 59 44.5 103.5t103.5 44.5t103 -44.5t44 -103.5t-44 -103t-103 -44t-103.5 44t-44.5 103zM849 1802q0 59 44 103.5t104 44.5 q59 0 103 -44.5t44 -103.5t-44 -103t-103 -44t-103.5 44t-44.5 103z" />
<glyph unicode="&#xd7;" horiz-adv-x="1425" d="M188 119q0 39 27 65l367 367l-367 367q-27 27 -27 65q0 39 27 66t66 26q39 0 65 -26l367 -367l366 367q27 27 66 26q37 0 63 -26q29 -29 29 -66t-29 -65l-366 -367l366 -367q29 -29 29 -65q0 -37 -29 -66q-27 -27 -63 -26q-39 0 -66 26l-366 367l-367 -367 q-27 -27 -65 -26q-39 0 -66 26q-27 27 -27 66z" />
<glyph unicode="&#xd8;" horiz-adv-x="1552" d="M135 741q0 172 46 311.5t131 240t203 154.5t261 54t262 -54t203 -154.5t130 -240t46 -311.5t-45 -312t-129 -239.5t-202.5 -154.5t-264.5 -55q-145 0 -264 55t-203 154.5t-129 239.5t-45 312zM326 61q0 16 4 28.5t10 25.5l16 32l731 1317q20 37 68 37q27 0 49 -14 q20 -14 27.5 -30.5t7.5 -39.5q0 -12 -6 -27.5t-10 -23.5l-748 -1350q-20 -37 -67 -36q-25 0 -50 14q-33 23 -32 67zM346 741q0 -131 31 -238.5t88 -183t136 -116.5t175 -41t175 41t136.5 116.5t88 183t30.5 238.5t-30.5 237.5t-87 182.5t-136.5 117t-176 41t-176 -41 t-136 -117t-87 -182.5t-31 -237.5z" />
<glyph unicode="&#xd9;" horiz-adv-x="1536" d="M217 537v841q0 43 31 73t74 30t73.5 -30t30.5 -73v-833q0 -188 89 -284.5t255 -96.5q168 0 257 96t89 285v833q0 43 31 73t74 30t73.5 -30t30.5 -73v-841q0 -131 -39 -234.5t-111.5 -175.5t-175 -109.5t-229.5 -37.5t-228.5 37.5t-174 109.5t-111.5 175.5t-39 234.5z M503 1870q0 55 36 87t77 32q47 0 98 -39l287 -217q39 -20 39 -62q0 -23 -15.5 -39t-41.5 -16h-12.5t-12.5 2l-362 137q-43 16 -68 45t-25 70z" />
<glyph unicode="&#xda;" horiz-adv-x="1536" d="M217 537v841q0 43 31 73t74 30t73.5 -30t30.5 -73v-833q0 -188 89 -284.5t255 -96.5q168 0 257 96t89 285v833q0 43 31 73t74 30t73.5 -30t30.5 -73v-841q0 -131 -39 -234.5t-111.5 -175.5t-175 -109.5t-229.5 -37.5t-228.5 37.5t-174 109.5t-111.5 175.5t-39 234.5z M507 1671q0 41 39 62l287 217q51 39 98 39q41 0 77 -32t36 -87q0 -41 -24.5 -69.5t-67.5 -45.5l-363 -137q-4 -2 -12 -2h-12q-27 0 -42.5 16.5t-15.5 38.5z" />
<glyph unicode="&#xdb;" horiz-adv-x="1536" d="M217 537v841q0 43 31 73t74 30t73.5 -30t30.5 -73v-833q0 -188 89 -284.5t255 -96.5q168 0 257 96t89 285v833q0 43 31 73t74 30t73.5 -30t30.5 -73v-841q0 -131 -39 -234.5t-111.5 -175.5t-175 -109.5t-229.5 -37.5t-228.5 37.5t-174 109.5t-111.5 175.5t-39 234.5z M410 1665q0 16 11.5 32.5t23.5 28.5l252 240q16 16 33 24.5t40 8.5t40.5 -8.5t33.5 -24.5l252 -240q12 -12 23.5 -28.5t11.5 -32.5q0 -29 -16.5 -43t-34.5 -14q-14 0 -23.5 1t-23.5 11l-263 156l-262 -156q-14 -10 -23 -11t-24 -1q-18 0 -34.5 14t-16.5 43z" />
<glyph unicode="&#xdc;" horiz-adv-x="1536" d="M217 537v841q0 43 31 73t74 30t73.5 -30t30.5 -73v-833q0 -188 89 -284.5t255 -96.5q168 0 257 96t89 285v833q0 43 31 73t74 30t73.5 -30t30.5 -73v-841q0 -131 -39 -234.5t-111.5 -175.5t-175 -109.5t-229.5 -37.5t-228.5 37.5t-174 109.5t-111.5 175.5t-39 234.5z M391 1802q0 59 44.5 103.5t103.5 44.5t103 -44.5t44 -103.5t-44 -103t-103 -44t-103.5 44t-44.5 103zM860 1802q0 59 44 103.5t104 44.5q59 0 103 -44.5t44 -103.5t-44 -103t-103 -44t-103.5 44t-44.5 103z" />
<glyph unicode="&#xdd;" horiz-adv-x="1198" d="M68 1378q0 41 28.5 72t73.5 31q25 0 49.5 -12.5t36.5 -34.5l346 -627l342 625q14 25 39 37t49 12q45 0 74 -31t29 -72q0 -16 -5.5 -31.5t-13.5 -29.5l-422 -703q2 -123 4 -227q0 -45 1.5 -89t2.5 -83t1 -68.5v-44.5q0 -43 -30 -72.5t-73 -29.5t-72.5 29.5t-29.5 72.5v44 t1 69t2 83t1 89q2 104 4 227l-420 703q-8 14 -13 29.5t-5 31.5zM339 1671q0 41 39 62l287 217q51 39 98 39q41 0 77 -32t36 -87q0 -41 -24.5 -69.5t-67.5 -45.5l-363 -137q-4 -2 -12 -2h-12q-27 0 -42.5 16.5t-15.5 38.5z" />
<glyph unicode="&#xde;" horiz-adv-x="1409" d="M236 1378q0 43 29.5 73t72.5 30t73.5 -30t30.5 -73v-164h314q111 0 210 -39.5t169 -113.5q51 -55 80.5 -129t29.5 -164q0 -174 -108 -295q-61 -68 -156.5 -107.5t-224.5 -39.5h-314v-224q0 -43 -29.5 -72.5t-72.5 -29.5t-72.5 29.5t-29.5 72.5zM442 510h308 q92 0 149 22.5t90 57.5q35 37 47.5 84t12.5 98q0 88 -60 160q-39 43 -98.5 70.5t-145.5 27.5h-303v-520z" />
<glyph unicode="&#xdf;" horiz-adv-x="1345" d="M215 102v924q0 100 29.5 183t88 143.5t144.5 94.5t199 34q96 0 180 -27t146.5 -78t98.5 -124.5t36 -168.5q0 -106 -45 -176.5t-111 -111.5q109 -39 173.5 -132.5t64.5 -220.5q0 -96 -36 -177t-100.5 -139t-154.5 -92t-199 -34q-35 0 -70.5 5t-72.5 15q-33 10 -57.5 30 t-24.5 54q0 27 12 51.5t39 34.5q8 4 18.5 5.5t18.5 1.5q23 0 57.5 -9.5t81.5 -9.5q141 0 215 75t74 189q0 51 -17.5 99.5t-51 83t-84 56t-113.5 21.5q-35 0 -59.5 24t-24.5 58q0 35 24.5 59.5t59.5 24.5q74 0 130 58.5t56 156.5q0 43 -15.5 83t-48 71t-85 49.5t-123.5 18.5 q-135 0 -195.5 -79t-60.5 -214v-910q0 -41 -28 -71.5t-71 -30.5t-70.5 30.5t-27.5 71.5z" />
<glyph unicode="&#xe0;" horiz-adv-x="1286" d="M139 549q0 125 35 228.5t96.5 177t145.5 114.5t182 41q80 0 154.5 -33t128.5 -104v31q0 41 27.5 68.5t68.5 27.5t68.5 -28t27.5 -68v-908q0 -41 -27.5 -68.5t-68.5 -27.5t-68.5 27.5t-27.5 68.5v35v4q-47 -70 -119 -107.5t-162 -37.5q-98 0 -182 40t-145.5 112.5 t-97.5 176t-36 230.5zM330 549q0 -186 77.5 -290.5t198.5 -104.5q57 0 108.5 26.5t88.5 77.5t58.5 125t21.5 166t-21.5 165.5t-58.5 125t-88 79t-109 27.5q-121 0 -198.5 -105.5t-77.5 -291.5zM416 1610q0 51 35 83.5t84 32.5q31 0 55.5 -15t42.5 -42l240 -336 q8 -10 13 -23.5t5 -25.5q0 -23 -16 -39t-43 -16t-45 16l-336 281q-35 31 -35 84z" />
<glyph unicode="&#xe1;" horiz-adv-x="1286" d="M139 549q0 125 35 228.5t96.5 177t145.5 114.5t182 41q80 0 154.5 -33t128.5 -104v31q0 41 27.5 68.5t68.5 27.5t68.5 -28t27.5 -68v-908q0 -41 -27.5 -68.5t-68.5 -27.5t-68.5 27.5t-27.5 68.5v35v4q-47 -70 -119 -107.5t-162 -37.5q-98 0 -182 40t-145.5 112.5 t-97.5 176t-36 230.5zM330 549q0 -186 77.5 -290.5t198.5 -104.5q57 0 108.5 26.5t88.5 77.5t58.5 125t21.5 166t-21.5 165.5t-58.5 125t-88 79t-109 27.5q-121 0 -198.5 -105.5t-77.5 -291.5zM342 1284q0 12 5 25.5t14 23.5l239 336q18 27 43 42t56 15q49 0 83.5 -32.5 t34.5 -83.5q0 -53 -34 -84l-336 -281q-18 -16 -45 -16t-43 16t-17 39z" />
<glyph unicode="&#xe2;" horiz-adv-x="1286" d="M139 549q0 125 35 228.5t96.5 177t145.5 114.5t182 41q80 0 154.5 -33t128.5 -104v31q0 41 27.5 68.5t68.5 27.5t68.5 -28t27.5 -68v-908q0 -41 -27.5 -68.5t-68.5 -27.5t-68.5 27.5t-27.5 68.5v35v4q-47 -70 -119 -107.5t-162 -37.5q-98 0 -182 40t-145.5 112.5 t-97.5 176t-36 230.5zM248 1286q0 29 18 53l246 340q18 27 39 37t55 10q35 0 54.5 -11t38.5 -36l245 -340q18 -25 19 -53q0 -20 -12 -35q-18 -23 -48 -22q-27 0 -41 14l-256 236l-258 -236q-14 -14 -41 -14q-29 0 -47 22q-12 14 -12 35zM330 549q0 -186 77.5 -290.5 t198.5 -104.5q57 0 108.5 26.5t88.5 77.5t58.5 125t21.5 166t-21.5 165.5t-58.5 125t-88 79t-109 27.5q-121 0 -198.5 -105.5t-77.5 -291.5z" />
<glyph unicode="&#xe3;" horiz-adv-x="1286" d="M139 549q0 125 35 228.5t96.5 177t145.5 114.5t182 41q80 0 154.5 -33t128.5 -104v31q0 41 27.5 68.5t68.5 27.5t68.5 -28t27.5 -68v-908q0 -41 -27.5 -68.5t-68.5 -27.5t-68.5 27.5t-27.5 68.5v35v4q-47 -70 -119 -107.5t-162 -37.5q-98 0 -182 40t-145.5 112.5 t-97.5 176t-36 230.5zM240 1370q0 39 18.5 71t46.5 60q45 45 93.5 61.5t87.5 16.5q25 0 44 -3t38.5 -9t41 -15.5t50.5 -23.5q35 -16 62.5 -27.5t49.5 -11.5q29 0 52.5 19.5t40.5 43.5q16 23 35.5 30t31.5 7q37 0 59.5 -26.5t22.5 -55.5q0 -39 -18.5 -70.5t-46.5 -60.5 q-45 -45 -92.5 -61.5t-86.5 -16.5q-45 0 -82.5 12.5t-97.5 41.5q-33 16 -59.5 26.5t-48.5 10.5q-29 0 -52.5 -19.5t-40.5 -44.5q-16 -23 -35.5 -30t-31.5 -7q-37 0 -59.5 26.5t-22.5 55.5zM330 549q0 -186 77.5 -290.5t198.5 -104.5q57 0 108.5 26.5t88.5 77.5t58.5 125 t21.5 166t-21.5 165.5t-58.5 125t-88 79t-109 27.5q-121 0 -198.5 -105.5t-77.5 -291.5z" />
<glyph unicode="&#xe4;" horiz-adv-x="1286" d="M139 549q0 125 35 228.5t96.5 177t145.5 114.5t182 41q80 0 154.5 -33t128.5 -104v31q0 41 27.5 68.5t68.5 27.5t68.5 -28t27.5 -68v-908q0 -41 -27.5 -68.5t-68.5 -27.5t-68.5 27.5t-27.5 68.5v35v4q-47 -70 -119 -107.5t-162 -37.5q-98 0 -182 40t-145.5 112.5 t-97.5 176t-36 230.5zM245 1442q0 59 44.5 103t103.5 44t103 -44t44 -103t-44 -103.5t-103 -44.5t-103.5 44t-44.5 104zM330 549q0 -186 77.5 -290.5t198.5 -104.5q57 0 108.5 26.5t88.5 77.5t58.5 125t21.5 166t-21.5 165.5t-58.5 125t-88 79t-109 27.5 q-121 0 -198.5 -105.5t-77.5 -291.5zM714 1442q0 59 44 103t104 44q59 0 103 -44t44 -103t-44 -103.5t-103 -44.5t-103.5 44t-44.5 104z" />
<glyph unicode="&#xe5;" horiz-adv-x="1286" d="M139 549q0 125 35 228.5t96.5 177t145.5 114.5t182 41q80 0 154.5 -33t128.5 -104v31q0 41 27.5 68.5t68.5 27.5t68.5 -28t27.5 -68v-908q0 -41 -27.5 -68.5t-68.5 -27.5t-68.5 27.5t-27.5 68.5v35v4q-47 -70 -119 -107.5t-162 -37.5q-98 0 -182 40t-145.5 112.5 t-97.5 176t-36 230.5zM317 1495q0 55 23 104.5t59.5 85t87 56t105.5 20.5t105.5 -20.5t88 -56t60 -84t22.5 -105.5t-22.5 -105.5t-60 -84t-88 -56t-105.5 -20.5t-105.5 20.5t-87 56t-59.5 84t-23 105.5zM330 549q0 -186 77.5 -290.5t198.5 -104.5q57 0 108.5 26.5t88.5 77.5 t58.5 125t21.5 166t-21.5 165.5t-58.5 125t-88 79t-109 27.5q-121 0 -198.5 -105.5t-77.5 -291.5zM442 1495q0 -61 44 -105t106 -44q61 0 105 44t44 105t-44 105.5t-105 44.5t-105.5 -44.5t-44.5 -105.5z" />
<glyph unicode="&#xe6;" horiz-adv-x="1763" d="M143 319q0 72 27 131.5t74 100.5t111.5 63.5t136.5 22.5h253v119q0 100 -54 144t-124 44q-53 0 -108.5 -24.5t-110.5 -61.5q-18 -12 -45 -12q-35 0 -59.5 23.5t-24.5 60.5q0 41 41 69q70 51 143.5 81t163.5 30q215 0 305 -158q23 -41 33 -104.5t15 -124.5q4 -72 0 -150 l-5 -340l-49 -86q-29 -29 -63.5 -56.5t-77.5 -50t-94 -36.5t-113 -14q-82 0 -150.5 22.5t-118.5 65.5t-78 104.5t-28 136.5zM338 319q0 -72 42 -113.5t140 -41.5q74 0 131.5 27.5t91.5 66.5l2 211h-239q-82 0 -125 -43t-43 -107zM743 549q0 135 38 239.5t102.5 176 t148.5 108.5t176 37q90 0 169 -35t137.5 -101.5t92 -165.5t33.5 -228q0 -53 -26.5 -77t-65.5 -24h-614q10 -143 81.5 -234t188.5 -91q80 0 134.5 30.5t97.5 89.5q33 45 77 45q37 0 58.5 -24.5t21.5 -61.5q0 -18 -7 -34.5t-15 -28.5q-51 -78 -140.5 -129t-222.5 -51 q-98 0 -183 39t-147.5 110.5t-98.5 176t-36 233.5zM938 643h514q-4 141 -68.5 222t-175.5 81t-185.5 -81t-84.5 -222z" />
<glyph unicode="&#xe7;" horiz-adv-x="1114" d="M137 549q0 127 36 230.5t98.5 177t147.5 113.5t183 40q131 0 226.5 -59.5t148.5 -161.5q6 -12 12 -29.5t6 -40.5q0 -33 -23.5 -56.5t-60.5 -23.5q-31 0 -51 17.5t-39 48.5q-37 61 -90 98t-131 37q-74 0 -125 -36t-84 -92t-48 -126t-15 -137q0 -186 77.5 -287.5 t198.5 -101.5q78 0 134.5 36.5t86.5 102.5q16 35 40 48t46 13q37 0 61.5 -26.5t24.5 -63.5q0 -16 -6 -33.5t-12 -31.5q-20 -43 -56 -82t-85.5 -68.5t-107.5 -47t-126 -17.5q-98 0 -184 40t-148.5 112.5t-98.5 176t-36 230.5zM365 -311q0 23 16 39q14 14 37 14q14 0 26 -6 q29 -14 66 -28.5t72 -14.5q80 0 80 69q0 35 -26 50.5t-61 15.5q-16 0 -25 -2t-15 -2q-8 0 -16.5 6t-8.5 23v188l70 -10v-117q18 4 34.5 6t26.5 2q61 0 109.5 -46t48.5 -116q0 -88 -61.5 -133t-147.5 -45q-27 0 -60.5 4t-78.5 21q-53 20 -69.5 38.5t-16.5 43.5z" />
<glyph unicode="&#xe8;" horiz-adv-x="1153" d="M135 549q0 135 38 239.5t102.5 176t148.5 108.5t176 37q90 0 169 -35t137.5 -101.5t92 -165.5t33.5 -228q0 -53 -26.5 -77t-65.5 -24h-614q10 -143 81.5 -234t188.5 -91q80 0 134 30.5t97 89.5q33 45 78 45q37 0 58.5 -24.5t21.5 -61.5q0 -18 -7 -34.5t-15 -28.5 q-51 -78 -140.5 -129t-222.5 -51q-98 0 -183 39t-147.5 110.5t-98.5 176t-36 233.5zM330 643h514q-4 141 -68.5 222t-175.5 81t-185.5 -81t-84.5 -222zM364 1610q0 51 35 83.5t84 32.5q31 0 55.5 -15t42.5 -42l240 -336q8 -10 13 -23.5t5 -25.5q0 -23 -16 -39t-43 -16 t-45 16l-336 281q-35 31 -35 84z" />
<glyph unicode="&#xe9;" horiz-adv-x="1153" d="M135 549q0 135 38 239.5t102.5 176t148.5 108.5t176 37q90 0 169 -35t137.5 -101.5t92 -165.5t33.5 -228q0 -53 -26.5 -77t-65.5 -24h-614q10 -143 81.5 -234t188.5 -91q80 0 134 30.5t97 89.5q33 45 78 45q37 0 58.5 -24.5t21.5 -61.5q0 -18 -7 -34.5t-15 -28.5 q-51 -78 -140.5 -129t-222.5 -51q-98 0 -183 39t-147.5 110.5t-98.5 176t-36 233.5zM330 643h514q-4 141 -68.5 222t-175.5 81t-185.5 -81t-84.5 -222zM350 1284q0 12 5 25.5t14 23.5l239 336q18 27 43 42t56 15q49 0 83.5 -32.5t34.5 -83.5q0 -53 -34 -84l-336 -281 q-18 -16 -45 -16t-43 16t-17 39z" />
<glyph unicode="&#xea;" horiz-adv-x="1153" d="M135 549q0 135 38 239.5t102.5 176t148.5 108.5t176 37q90 0 169 -35t137.5 -101.5t92 -165.5t33.5 -228q0 -53 -26.5 -77t-65.5 -24h-614q10 -143 81.5 -234t188.5 -91q80 0 134 30.5t97 89.5q33 45 78 45q37 0 58.5 -24.5t21.5 -61.5q0 -18 -7 -34.5t-15 -28.5 q-51 -78 -140.5 -129t-222.5 -51q-98 0 -183 39t-147.5 110.5t-98.5 176t-36 233.5zM238 1286q0 29 18 53l246 340q18 27 39 37t55 10q35 0 54.5 -11t38.5 -36l245 -340q18 -25 19 -53q0 -20 -12 -35q-18 -23 -48 -22q-27 0 -41 14l-256 236l-258 -236q-14 -14 -41 -14 q-29 0 -47 22q-12 14 -12 35zM330 643h514q-4 141 -68.5 222t-175.5 81t-185.5 -81t-84.5 -222z" />
<glyph unicode="&#xeb;" horiz-adv-x="1153" d="M135 549q0 135 38 239.5t102.5 176t148.5 108.5t176 37q90 0 169 -35t137.5 -101.5t92 -165.5t33.5 -228q0 -53 -26.5 -77t-65.5 -24h-614q10 -143 81.5 -234t188.5 -91q80 0 134 30.5t97 89.5q33 45 78 45q37 0 58.5 -24.5t21.5 -61.5q0 -18 -7 -34.5t-15 -28.5 q-51 -78 -140.5 -129t-222.5 -51q-98 0 -183 39t-147.5 110.5t-98.5 176t-36 233.5zM219 1442q0 59 44.5 103t103.5 44t103 -44t44 -103t-44 -103.5t-103 -44.5t-103.5 44t-44.5 104zM330 643h514q-4 141 -68.5 222t-175.5 81t-185.5 -81t-84.5 -222zM688 1442q0 59 44 103 t104 44q59 0 103 -44t44 -103t-44 -103.5t-103 -44.5t-103.5 44t-44.5 104z" />
<glyph unicode="&#xec;" horiz-adv-x="622" d="M63 1610q0 51 35 83.5t84 32.5q31 0 55.5 -15t42.5 -42l240 -336q8 -10 13 -23.5t5 -25.5q0 -23 -16 -39t-43 -16t-45 16l-336 281q-35 31 -35 84zM215 96v908q0 41 27.5 68.5t68.5 27.5t69 -28t28 -68v-908q0 -41 -28 -68.5t-69 -27.5t-68.5 27.5t-27.5 68.5z" />
<glyph unicode="&#xed;" horiz-adv-x="622" d="M92 1284q0 12 5 25.5t14 23.5l239 336q18 27 43 42t56 15q49 0 83.5 -32.5t34.5 -83.5q0 -53 -34 -84l-336 -281q-18 -16 -45 -16t-43 16t-17 39zM215 96v908q0 41 27.5 68.5t68.5 27.5t69 -28t28 -68v-908q0 -41 -28 -68.5t-69 -27.5t-68.5 27.5t-27.5 68.5z" />
<glyph unicode="&#xee;" horiz-adv-x="622" d="M-45 1288q0 29 18 53l246 340q18 27 39 37t55 10q35 0 54.5 -11t38.5 -36l245 -340q18 -25 19 -53q0 -20 -12 -35q-18 -23 -48 -22q-27 0 -41 14l-256 236l-258 -236q-14 -14 -41 -14q-29 0 -47 22q-12 14 -12 35zM215 96v908q0 41 27.5 68.5t68.5 27.5t69 -28t28 -68 v-908q0 -41 -28 -68.5t-69 -27.5t-68.5 27.5t-27.5 68.5z" />
<glyph unicode="&#xef;" horiz-adv-x="622" d="M-70 1442q0 59 44.5 103t103.5 44t103 -44t44 -103t-44 -103.5t-103 -44.5t-103.5 44t-44.5 104zM215 96v908q0 41 27.5 68.5t68.5 27.5t69 -28t28 -68v-908q0 -41 -28 -68.5t-69 -27.5t-68.5 27.5t-27.5 68.5zM399 1442q0 59 44 103t104 44q59 0 103 -44t44 -103 t-44 -103.5t-103 -44.5t-103.5 44t-44.5 104z" />
<glyph unicode="&#xf0;" horiz-adv-x="1257" d="M152 549q0 127 35.5 230.5t99 177t149.5 113.5t185 40q72 0 114.5 -19.5t89.5 -54.5q-72 193 -229 316l-115 -111q-20 -20 -51 -20q-35 0 -56.5 22.5t-17.5 50.5q2 27 25 49l88 87q-16 6 -35 14q-16 6 -36.5 14t-43.5 19q-35 14 -59.5 37.5t-24.5 60.5q0 41 28 65.5 t69 24.5q8 0 21 -2t24 -6q53 -16 102 -38t96 -52l131 127q23 23 56 22q29 0 48 -19.5t21 -47.5q0 -14 -4 -27.5t-20 -30.5l-115 -112q29 -27 58.5 -54.5t58.5 -62.5q106 -127 176 -326.5t70 -484.5q0 -127 -37 -230.5t-101.5 -177t-150.5 -113.5t-185 -40q-98 0 -183 40 t-147.5 112.5t-98 176t-35.5 230.5zM342 551q0 -186 78 -288.5t198 -102.5q121 0 201 102.5t80 288.5q0 92 -21.5 164.5t-59.5 123t-89 76t-111 25.5q-121 0 -198.5 -101.5t-77.5 -287.5z" />
<glyph unicode="&#xf1;" horiz-adv-x="1263" d="M217 96v908q0 41 27.5 68.5t68.5 27.5t69 -28t28 -68v-25q49 57 130 94t181 37q86 0 171 -37t136 -123q35 -57 44 -125.5t9 -140.5v-588q0 -41 -27.5 -68.5t-68.5 -27.5t-68.5 27.5t-27.5 68.5v578q0 37 -3 78t-14 67q-18 53 -66 85t-122 32q-66 0 -132.5 -32t-102.5 -93 q-23 -35 -31 -76t-8 -80v-559q0 -41 -28 -68.5t-69 -27.5t-68.5 27.5t-27.5 68.5zM264 1370q0 39 18.5 71t46.5 60q45 45 93.5 61.5t87.5 16.5q25 0 44 -3t38.5 -9t41 -15.5t50.5 -23.5q35 -16 62.5 -27.5t49.5 -11.5q29 0 52.5 19.5t40.5 43.5q16 23 35.5 30t31.5 7 q37 0 59.5 -26.5t22.5 -55.5q0 -39 -18.5 -70.5t-46.5 -60.5q-45 -45 -92.5 -61.5t-86.5 -16.5q-45 0 -82.5 12.5t-97.5 41.5q-33 16 -59.5 26.5t-48.5 10.5q-29 0 -52.5 -19.5t-40.5 -44.5q-16 -23 -35.5 -30t-31.5 -7q-37 0 -59.5 26.5t-22.5 55.5z" />
<glyph unicode="&#xf2;" horiz-adv-x="1204" d="M164 549q0 127 36 230.5t99.5 177t148.5 113.5t183 40t183 -40t148.5 -113.5t99.5 -177t36 -230.5t-36 -230.5t-98 -176t-148 -112.5t-185 -40q-98 0 -184 40t-148.5 112.5t-98.5 176t-36 230.5zM355 549q0 -186 77.5 -290.5t198.5 -104.5t199 104t78 291 q0 186 -78 291.5t-199 105.5t-198.5 -105.5t-77.5 -291.5zM395 1610q0 51 35 83.5t84 32.5q31 0 55.5 -15t42.5 -42l240 -336q8 -10 13 -23.5t5 -25.5q0 -23 -16 -39t-43 -16t-45 16l-336 281q-35 31 -35 84z" />
<glyph unicode="&#xf3;" horiz-adv-x="1204" d="M164 549q0 127 36 230.5t99.5 177t148.5 113.5t183 40t183 -40t148.5 -113.5t99.5 -177t36 -230.5t-36 -230.5t-98 -176t-148 -112.5t-185 -40q-98 0 -184 40t-148.5 112.5t-98.5 176t-36 230.5zM321 1284q0 12 5 25.5t14 23.5l239 336q18 27 43 42t56 15 q49 0 83.5 -32.5t34.5 -83.5q0 -53 -34 -84l-336 -281q-18 -16 -45 -16t-43 16t-17 39zM355 549q0 -186 77.5 -290.5t198.5 -104.5t199 104t78 291q0 186 -78 291.5t-199 105.5t-198.5 -105.5t-77.5 -291.5z" />
<glyph unicode="&#xf4;" horiz-adv-x="1204" d="M164 549q0 127 36 230.5t99.5 177t148.5 113.5t183 40t183 -40t148.5 -113.5t99.5 -177t36 -230.5t-36 -230.5t-98 -176t-148 -112.5t-185 -40q-98 0 -184 40t-148.5 112.5t-98.5 176t-36 230.5zM244 1286q0 29 18 53l246 340q18 27 39 37t55 10q35 0 54.5 -11t38.5 -36 l245 -340q18 -25 19 -53q0 -20 -12 -35q-18 -23 -48 -22q-27 0 -41 14l-256 236l-258 -236q-14 -14 -41 -14q-29 0 -47 22q-12 14 -12 35zM355 549q0 -186 77.5 -290.5t198.5 -104.5t199 104t78 291q0 186 -78 291.5t-199 105.5t-198.5 -105.5t-77.5 -291.5z" />
<glyph unicode="&#xf5;" horiz-adv-x="1204" d="M164 549q0 127 36 230.5t99.5 177t148.5 113.5t183 40t183 -40t148.5 -113.5t99.5 -177t36 -230.5t-36 -230.5t-98 -176t-148 -112.5t-185 -40q-98 0 -184 40t-148.5 112.5t-98.5 176t-36 230.5zM213 1370q0 39 18.5 71t46.5 60q45 45 93.5 61.5t87.5 16.5q25 0 44 -3 t38.5 -9t41 -15.5t50.5 -23.5q35 -16 62.5 -27.5t49.5 -11.5q29 0 52.5 19.5t40.5 43.5q16 23 35.5 30t31.5 7q37 0 59.5 -26.5t22.5 -55.5q0 -39 -18.5 -70.5t-46.5 -60.5q-45 -45 -92.5 -61.5t-86.5 -16.5q-45 0 -82.5 12.5t-97.5 41.5q-33 16 -59.5 26.5t-48.5 10.5 q-29 0 -52.5 -19.5t-40.5 -44.5q-16 -23 -35.5 -30t-31.5 -7q-37 0 -59.5 26.5t-22.5 55.5zM355 549q0 -186 77.5 -290.5t198.5 -104.5t199 104t78 291q0 186 -78 291.5t-199 105.5t-198.5 -105.5t-77.5 -291.5z" />
<glyph unicode="&#xf6;" horiz-adv-x="1204" d="M164 549q0 127 36 230.5t99.5 177t148.5 113.5t183 40t183 -40t148.5 -113.5t99.5 -177t36 -230.5t-36 -230.5t-98 -176t-148 -112.5t-185 -40q-98 0 -184 40t-148.5 112.5t-98.5 176t-36 230.5zM221 1442q0 59 44.5 103t103.5 44t103 -44t44 -103t-44 -103.5t-103 -44.5 t-103.5 44t-44.5 104zM355 549q0 -186 77.5 -290.5t198.5 -104.5t199 104t78 291q0 186 -78 291.5t-199 105.5t-198.5 -105.5t-77.5 -291.5zM690 1442q0 59 44 103t104 44q59 0 103 -44t44 -103t-44 -103.5t-103 -44.5t-103.5 44t-44.5 104z" />
<glyph unicode="&#xf7;" horiz-adv-x="1425" d="M133 563q0 39 26.5 65.5t65.5 26.5h975q39 0 65.5 -26.5t26.5 -65.5t-26.5 -65.5t-65.5 -26.5h-975q-39 0 -65.5 26.5t-26.5 65.5zM541 178q0 72 51 123t123 51t123 -51t51 -123t-51.5 -123t-122.5 -51q-72 0 -123 51t-51 123zM541 948q0 72 51 123t123 51t123 -51 t51 -123t-51.5 -123t-122.5 -51q-72 0 -123 51.5t-51 122.5z" />
<glyph unicode="&#xf8;" horiz-adv-x="1204" d="M135 547q0 127 36 230.5t99.5 177t148.5 113.5t183 40t183 -40t148.5 -113.5t99.5 -177t36 -230.5t-36 -230.5t-98.5 -176t-148.5 -112.5t-184 -40t-184 40t-148.5 112.5t-98.5 176t-36 230.5zM238 74q0 18 14 43l14 24l541 918q10 16 27.5 28.5t42.5 12.5q10 0 21 -2 t22 -8q39 -20 38 -68q0 -10 -5 -24.5t-11 -24.5l-551 -938q-10 -18 -25.5 -30.5t-43.5 -12.5q-39 0 -61.5 22.5t-22.5 59.5zM326 547q0 -186 77.5 -290.5t198.5 -104.5t199 104t78 291q0 186 -78 291.5t-199 105.5t-198.5 -105.5t-77.5 -291.5z" />
<glyph unicode="&#xf9;" horiz-adv-x="1263" d="M197 416v588q0 41 27.5 68.5t68.5 27.5t68.5 -28t27.5 -68v-578q0 -37 3.5 -78t13.5 -67q18 -53 66 -85t122 -32q66 0 132.5 31.5t103.5 93.5q23 35 31 76t8 79v560q0 41 27.5 68.5t68.5 27.5t68.5 -28t27.5 -68v-908q0 -41 -27.5 -68.5t-68.5 -27.5t-68.5 27.5 t-27.5 68.5v25q-49 -57 -130 -94t-182 -37q-86 0 -171 36.5t-136 123.5q-35 57 -44 125.5t-9 140.5zM397 1610q0 51 35 83.5t84 32.5q31 0 55.5 -15t42.5 -42l240 -336q8 -10 13 -23.5t5 -25.5q0 -23 -16 -39t-43 -16t-45 16l-336 281q-35 31 -35 84z" />
<glyph unicode="&#xfa;" horiz-adv-x="1263" d="M197 416v588q0 41 27.5 68.5t68.5 27.5t68.5 -28t27.5 -68v-578q0 -37 3.5 -78t13.5 -67q18 -53 66 -85t122 -32q66 0 132.5 31.5t103.5 93.5q23 35 31 76t8 79v560q0 41 27.5 68.5t68.5 27.5t68.5 -28t27.5 -68v-908q0 -41 -27.5 -68.5t-68.5 -27.5t-68.5 27.5 t-27.5 68.5v25q-49 -57 -130 -94t-182 -37q-86 0 -171 36.5t-136 123.5q-35 57 -44 125.5t-9 140.5zM362 1284q0 12 5 25.5t14 23.5l239 336q18 27 43 42t56 15q49 0 83.5 -32.5t34.5 -83.5q0 -53 -34 -84l-336 -281q-18 -16 -45 -16t-43 16t-17 39z" />
<glyph unicode="&#xfb;" horiz-adv-x="1263" d="M197 416v588q0 41 27.5 68.5t68.5 27.5t68.5 -28t27.5 -68v-578q0 -37 3.5 -78t13.5 -67q18 -53 66 -85t122 -32q66 0 132.5 31.5t103.5 93.5q23 35 31 76t8 79v560q0 41 27.5 68.5t68.5 27.5t68.5 -28t27.5 -68v-908q0 -41 -27.5 -68.5t-68.5 -27.5t-68.5 27.5 t-27.5 68.5v25q-49 -57 -130 -94t-182 -37q-86 0 -171 36.5t-136 123.5q-35 57 -44 125.5t-9 140.5zM272 1286q0 29 18 53l246 340q18 27 39 37t55 10q35 0 54.5 -11t38.5 -36l245 -340q18 -25 19 -53q0 -20 -12 -35q-18 -23 -48 -22q-27 0 -41 14l-256 236l-258 -236 q-14 -14 -41 -14q-29 0 -47 22q-12 14 -12 35z" />
<glyph unicode="&#xfc;" horiz-adv-x="1263" d="M197 416v588q0 41 27.5 68.5t68.5 27.5t68.5 -28t27.5 -68v-578q0 -37 3.5 -78t13.5 -67q18 -53 66 -85t122 -32q66 0 132.5 31.5t103.5 93.5q23 35 31 76t8 79v560q0 41 27.5 68.5t68.5 27.5t68.5 -28t27.5 -68v-908q0 -41 -27.5 -68.5t-68.5 -27.5t-68.5 27.5 t-27.5 68.5v25q-49 -57 -130 -94t-182 -37q-86 0 -171 36.5t-136 123.5q-35 57 -44 125.5t-9 140.5zM245 1442q0 59 44.5 103t103.5 44t103 -44t44 -103t-44 -103.5t-103 -44.5t-103.5 44t-44.5 104zM714 1442q0 59 44 103t104 44q59 0 103 -44t44 -103t-44 -103.5 t-103 -44.5t-103.5 44t-44.5 104z" />
<glyph unicode="&#xfd;" horiz-adv-x="1126" d="M49 -264q0 35 25 60.5t61 25.5q33 0 62 -23q23 -18 48.5 -30.5t55.5 -12.5q45 0 72 29t47 82l62 162q-18 6 -27 24l-367 905q-4 8 -7 19.5t-3 26.5q0 41 27.5 68.5t68.5 27.5q35 0 57.5 -18.5t30.5 -39.5l267 -690q4 -10 9 -25.5t10 -31.5t10 -31.5t8 -23.5h4q2 8 7 23.5 t10 31.5t10 31.5t9 25.5l269 695q10 29 34.5 41t51.5 12q41 0 68.5 -28t27.5 -68q0 -18 -10 -43l-479 -1192q-35 -90 -104.5 -138.5t-160.5 -48.5q-133 0 -219 80q-14 14 -24.5 32.5t-10.5 41.5zM336 1284q0 12 5 25.5t14 23.5l239 336q18 27 43 42t56 15q49 0 83.5 -32.5 t34.5 -83.5q0 -53 -34 -84l-336 -281q-18 -16 -45 -16t-43 16t-17 39z" />
<glyph unicode="&#xfe;" horiz-adv-x="1286" d="M236 -285v1669q0 41 27.5 69t68.5 28t68.5 -28t27.5 -69v-407q111 133 283 133q96 0 180 -40t145.5 -113.5t97 -177t35.5 -230.5q0 -125 -33.5 -227.5t-93 -176t-141.5 -114.5t-176 -41q-106 0 -178 42t-119 97v-414q0 -41 -27.5 -68.5t-68.5 -27.5t-68.5 27.5 t-27.5 68.5zM426 549q0 -92 21.5 -166t58.5 -125t87 -77.5t109 -26.5q121 0 199 104t78 291q0 186 -78 291.5t-199 105.5q-59 0 -109 -27.5t-87 -79t-58.5 -125t-21.5 -165.5z" />
<glyph unicode="&#xff;" horiz-adv-x="1126" d="M49 -264q0 35 25 60.5t61 25.5q33 0 62 -23q23 -18 48.5 -30.5t55.5 -12.5q45 0 72 29t47 82l62 162q-18 6 -27 24l-367 905q-4 8 -7 19.5t-3 26.5q0 41 27.5 68.5t68.5 27.5q35 0 57.5 -18.5t30.5 -39.5l267 -690q4 -10 9 -25.5t10 -31.5t10 -31.5t8 -23.5h4q2 8 7 23.5 t10 31.5t10 31.5t9 25.5l269 695q10 29 34.5 41t51.5 12q41 0 68.5 -28t27.5 -68q0 -18 -10 -43l-479 -1192q-35 -90 -104.5 -138.5t-160.5 -48.5q-133 0 -219 80q-14 14 -24.5 32.5t-10.5 41.5zM186 1442q0 59 44.5 103t103.5 44t103 -44t44 -103t-44 -103.5t-103 -44.5 t-103.5 44t-44.5 104zM655 1442q0 59 44 103t104 44q59 0 103 -44t44 -103t-44 -103.5t-103 -44.5t-103.5 44t-44.5 104z" />
<glyph unicode="&#x152;" horiz-adv-x="1687" d="M154 741q0 154 42 289t118.5 235.5t184 158t240.5 57.5h750q39 0 65.5 -27t26.5 -65q0 -39 -26.5 -66t-65.5 -27h-451v-462h281q39 0 65.5 -27t26.5 -66t-26.5 -65.5t-65.5 -26.5h-281v-465h451q39 0 65.5 -26.5t26.5 -65.5t-26.5 -65.5t-65.5 -26.5h-750 q-133 0 -240.5 58.5t-184 158.5t-118.5 235.5t-42 288.5zM358 741q0 -137 32 -241.5t85 -174t122 -105.5t142 -36h95v1112h-95q-74 0 -142.5 -34.5t-121.5 -104.5t-85 -174t-32 -242z" />
<glyph unicode="&#x153;" horiz-adv-x="1900" d="M133 549q0 127 36 230.5t99.5 177t148.5 113.5t183 40t183 -40t148.5 -113.5t99.5 -177t36 -230.5t-36 -230.5t-98.5 -176t-148.5 -112.5t-184 -40t-184 40t-148.5 112.5t-98.5 176t-36 230.5zM324 549q0 -186 77.5 -290.5t198.5 -104.5t199 104t78 291q0 186 -78 291.5 t-199 105.5t-198.5 -105.5t-77.5 -291.5zM881 549q0 135 37.5 239.5t102 176t148.5 108.5t177 37q90 0 168.5 -35t137 -101.5t92.5 -165.5t34 -228q0 -53 -27 -77t-65 -24h-615q10 -143 82 -234t188 -91q80 0 134.5 30.5t97.5 89.5q33 45 78 45q37 0 58.5 -24.5t21.5 -61.5 q0 -18 -7.5 -34.5t-15.5 -28.5q-51 -78 -140 -129t-222 -51q-98 0 -183.5 39t-148 110.5t-98 176t-35.5 233.5zM1075 643h514q-4 141 -68.5 222t-174.5 81q-111 0 -186 -81t-85 -222z" />
<glyph unicode="&#x178;" horiz-adv-x="1198" d="M68 1378q0 41 28.5 72t73.5 31q25 0 49.5 -12.5t36.5 -34.5l346 -627l342 625q14 25 39 37t49 12q45 0 74 -31t29 -72q0 -16 -5.5 -31.5t-13.5 -29.5l-422 -703q2 -123 4 -227q0 -45 1.5 -89t2.5 -83t1 -68.5v-44.5q0 -43 -30 -72.5t-73 -29.5t-72.5 29.5t-29.5 72.5v44 t1 69t2 83t1 89q2 104 4 227l-420 703q-8 14 -13 29.5t-5 31.5zM221 1823q0 59 44.5 103t103.5 44t103 -44t44 -103t-44 -103.5t-103 -44.5t-103.5 44t-44.5 104zM690 1823q0 59 44 103t104 44q59 0 103 -44t44 -103t-44 -103.5t-103 -44.5t-103.5 44t-44.5 104z" />
<glyph unicode="&#x2c6;" horiz-adv-x="892" d="M88 1286q0 29 18 53l246 340q18 27 39 37t55 10q35 0 54.5 -11t38.5 -36l245 -340q18 -25 19 -53q0 -20 -12 -35q-18 -23 -48 -22q-27 0 -41 14l-256 236l-258 -236q-14 -14 -41 -14q-29 0 -47 22q-12 14 -12 35z" />
<glyph unicode="&#x2dc;" horiz-adv-x="940" d="M82 1370q0 39 18.5 71t46.5 60q45 45 93.5 61.5t87.5 16.5q25 0 44 -3t38.5 -9t41 -15.5t50.5 -23.5q35 -16 62.5 -27.5t49.5 -11.5q29 0 52.5 19.5t40.5 43.5q16 23 35.5 30t31.5 7q37 0 59.5 -26.5t22.5 -55.5q0 -39 -18.5 -70.5t-46.5 -60.5q-45 -45 -92.5 -61.5 t-86.5 -16.5q-45 0 -82.5 12.5t-97.5 41.5q-33 16 -59.5 26.5t-48.5 10.5q-29 0 -52.5 -19.5t-40.5 -44.5q-16 -23 -35.5 -30t-31.5 -7q-37 0 -59.5 26.5t-22.5 55.5z" />
<glyph unicode="&#x2000;" horiz-adv-x="1034" />
<glyph unicode="&#x2001;" horiz-adv-x="2068" />
<glyph unicode="&#x2002;" horiz-adv-x="1034" />
<glyph unicode="&#x2003;" horiz-adv-x="2068" />
<glyph unicode="&#x2004;" horiz-adv-x="689" />
<glyph unicode="&#x2005;" horiz-adv-x="517" />
<glyph unicode="&#x2006;" horiz-adv-x="344" />
<glyph unicode="&#x2007;" horiz-adv-x="344" />
<glyph unicode="&#x2008;" horiz-adv-x="258" />
<glyph unicode="&#x2009;" horiz-adv-x="413" />
<glyph unicode="&#x200a;" horiz-adv-x="114" />
<glyph unicode="&#x2010;" horiz-adv-x="1046" d="M215 563q0 37 25.5 62.5t60.5 25.5h444q35 0 60.5 -25.5t25.5 -62.5t-25.5 -62.5t-60.5 -25.5h-444q-35 0 -60.5 25.5t-25.5 62.5z" />
<glyph unicode="&#x2011;" horiz-adv-x="1046" d="M215 563q0 37 25.5 62.5t60.5 25.5h444q35 0 60.5 -25.5t25.5 -62.5t-25.5 -62.5t-60.5 -25.5h-444q-35 0 -60.5 25.5t-25.5 62.5z" />
<glyph unicode="&#x2012;" horiz-adv-x="1046" d="M215 563q0 37 25.5 62.5t60.5 25.5h444q35 0 60.5 -25.5t25.5 -62.5t-25.5 -62.5t-60.5 -25.5h-444q-35 0 -60.5 25.5t-25.5 62.5z" />
<glyph unicode="&#x2013;" horiz-adv-x="1282" d="M41 563q0 37 25.5 62.5t62.5 25.5h1024q37 0 62.5 -25.5t25.5 -62.5t-25.5 -62.5t-62.5 -25.5h-1024q-37 0 -62.5 25.5t-25.5 62.5z" />
<glyph unicode="&#x2014;" horiz-adv-x="2969" d="M225 563q0 37 25.5 62.5t62.5 25.5h2343q37 0 62.5 -25.5t25.5 -62.5t-25.5 -62.5t-62.5 -25.5h-2343q-37 0 -62.5 25.5t-25.5 62.5z" />
<glyph unicode="&#x2018;" horiz-adv-x="679" d="M156 987q0 88 15 155.5t56 141.5q37 66 76 110t84 74q41 27 72 27t49 -17.5t18 -45.5q0 -35 -30 -58q-55 -41 -97.5 -90t-42.5 -115q0 -23 12.5 -26.5t24.5 -7.5q63 -16 99 -64.5t36 -112.5q0 -76 -52 -128t-128 -52q-88 0 -140 59.5t-52 149.5z" />
<glyph unicode="&#x2019;" horiz-adv-x="679" d="M152 1307q0 76 52 128t128 52q88 0 140 -59.5t52 -149.5q0 -88 -15 -155.5t-56 -141.5q-37 -66 -76 -110t-84 -74q-41 -27 -72 -27t-49 17.5t-18 46.5q0 35 30 57q55 41 97.5 90t42.5 115q0 23 -12.5 26.5t-24.5 7.5q-63 16 -99 64.5t-36 112.5z" />
<glyph unicode="&#x201a;" horiz-adv-x="679" d="M152 168q0 76 52 128t128 52q88 0 140 -59.5t52 -149.5q0 -88 -15 -155.5t-56 -141.5q-37 -66 -76 -109.5t-84 -74.5q-41 -27 -72 -27t-49 17.5t-18 46.5q0 35 30 57q55 41 97.5 90t42.5 115q0 23 -12.5 27t-24.5 8q-63 16 -99 64t-36 112z" />
<glyph unicode="&#x201c;" horiz-adv-x="1148" d="M156 987q0 88 15 155.5t56 141.5q37 66 76 110t84 74q41 27 72 27t49 -17.5t18 -45.5q0 -35 -30 -58q-55 -41 -97.5 -90t-42.5 -115q0 -23 12.5 -26.5t24.5 -7.5q63 -16 99 -64.5t36 -112.5q0 -76 -52 -128t-128 -52q-88 0 -140 59.5t-52 149.5zM625 987q0 88 15 155.5 t56 141.5q37 66 76 110t84 74q41 27 72 27t49 -17.5t18 -45.5q0 -35 -30 -58q-55 -41 -97.5 -90t-42.5 -115q0 -23 12.5 -26.5t24.5 -7.5q63 -16 99 -64.5t36 -112.5q0 -76 -52 -128t-128 -52q-88 0 -140 59.5t-52 149.5z" />
<glyph unicode="&#x201d;" horiz-adv-x="1148" d="M152 1307q0 76 52 128t128 52q88 0 140 -59.5t52 -149.5q0 -88 -15 -155.5t-56 -141.5q-37 -66 -76 -110t-84 -74q-41 -27 -72 -27t-49 17.5t-18 46.5q0 35 30 57q55 41 97.5 90t42.5 115q0 23 -12.5 26.5t-24.5 7.5q-63 16 -99 64.5t-36 112.5zM621 1307q0 76 52 128 t128 52q88 0 140 -59.5t52 -149.5q0 -88 -15 -155.5t-56 -141.5q-37 -66 -76 -110t-84 -74q-41 -27 -72 -27t-49 17.5t-18 46.5q0 35 30 57q55 41 97.5 90t42.5 115q0 23 -12.5 26.5t-24.5 7.5q-63 16 -99 64.5t-36 112.5z" />
<glyph unicode="&#x201e;" horiz-adv-x="1148" d="M152 168q0 76 52 128t128 52q88 0 140 -59.5t52 -149.5q0 -88 -15 -155.5t-56 -141.5q-37 -66 -76 -109.5t-84 -74.5q-41 -27 -72 -27t-49 17.5t-18 46.5q0 35 30 57q55 41 97.5 90t42.5 115q0 23 -12.5 27t-24.5 8q-63 16 -99 64t-36 112zM621 168q0 76 52 128t128 52 q88 0 140 -59.5t52 -149.5q0 -88 -15 -155.5t-56 -141.5q-37 -66 -76 -109.5t-84 -74.5q-41 -27 -72 -27t-49 17.5t-18 46.5q0 35 30 57q55 41 97.5 90t42.5 115q0 23 -12.5 27t-24.5 8q-63 16 -99 64t-36 112z" />
<glyph unicode="&#x2022;" horiz-adv-x="1114" d="M215 739q0 70 26.5 132.5t73.5 109.5t108.5 73.5t133.5 26.5t134.5 -26.5t108.5 -73.5t72.5 -109.5t26.5 -132.5q0 -72 -26.5 -134t-72.5 -108t-108.5 -73t-134.5 -27t-133.5 27t-108.5 73t-73.5 108.5t-26.5 133.5z" />
<glyph unicode="&#x2026;" horiz-adv-x="1830" d="M131 172q0 78 53.5 131t128.5 53q76 0 129.5 -53t53.5 -131q0 -76 -53.5 -129t-129.5 -53t-129 53t-53 129zM733 172q0 78 53.5 131t128.5 53q76 0 129.5 -53t53.5 -131q0 -76 -53.5 -129t-129.5 -53t-129 53t-53 129zM1335 172q0 78 53.5 131t129.5 53t129 -53t53 -131 q0 -76 -53.5 -129t-128.5 -53q-76 0 -129.5 53t-53.5 129z" />
<glyph unicode="&#x202f;" horiz-adv-x="413" />
<glyph unicode="&#x2039;" horiz-adv-x="696" d="M123 551q0 33 11 50t30 44l301 420q16 23 28.5 28t26.5 5q23 0 39 -15q20 -16 21 -45q0 -14 -11 -34l-221 -453l221 -453q10 -20 11 -35q0 -29 -21 -45q-16 -14 -39 -14q-14 0 -26.5 5t-28.5 28l-301 420q-18 27 -29.5 44t-11.5 50z" />
<glyph unicode="&#x203a;" horiz-adv-x="696" d="M117 63q0 14 10 35l221 453l-221 453q-10 20 -10 34q0 29 20 45q16 14 39 15q14 0 26.5 -5.5t28.5 -27.5l301 -420q18 -27 29.5 -44t11.5 -50t-11 -50.5t-30 -43.5l-301 -420q-16 -23 -28.5 -28t-26.5 -5q-23 0 -39 14q-20 16 -20 45z" />
<glyph unicode="&#x205f;" horiz-adv-x="517" />
<glyph unicode="&#x20ac;" horiz-adv-x="1515" d="M92 610q0 33 21.5 55.5t54.5 22.5h711q35 0 58.5 -22.5t23.5 -55.5q0 -35 -21.5 -57.5t-54.5 -22.5h-711q-35 0 -58.5 22.5t-23.5 57.5zM92 920q0 33 21.5 55t54.5 22h711q35 0 58.5 -22.5t23.5 -54.5q0 -35 -21.5 -57.5t-54.5 -22.5h-711q-35 0 -58.5 22.5t-23.5 57.5z M219 741q0 172 44 311.5t126 240t195.5 154.5t255.5 54q100 0 180 -21.5t141.5 -59.5t108.5 -89t82 -108q10 -16 18 -35t8 -43q0 -39 -24.5 -65.5t-65.5 -26.5q-31 0 -52.5 14t-33.5 35q-39 63 -77 105t-79.5 67.5t-90 36t-105.5 10.5q-88 0 -165 -38t-133 -110.5t-89 -181 t-33 -250.5q0 -145 33 -253.5t89 -181.5t131 -109.5t159 -36.5q72 0 127 19.5t96 50t70.5 68.5t52.5 75q16 27 36.5 48t59.5 21t65.5 -25.5t26.5 -64.5q0 -27 -9 -47t-32 -61q-23 -37 -60.5 -83t-97 -86t-143 -67.5t-200.5 -27.5q-143 0 -257 55t-194 154.5t-122 239.5 t-42 312z" />
<glyph unicode="&#x2122;" horiz-adv-x="1769" d="M174 1427q0 23 15.5 38.5t37.5 15.5h437q23 0 39 -15.5t16 -38.5t-16.5 -38t-38.5 -15h-160v-524q0 -23 -17.5 -40t-40.5 -17q-25 0 -42 17t-17 40v524h-160q-23 0 -38 15.5t-15 37.5zM813 850v573q0 23 16.5 40.5t40.5 17.5h45q14 0 27.5 -7.5t20.5 -23.5l153 -332 l154 332q14 31 49 31h45q23 0 40 -17.5t17 -40.5v-573q0 -23 -17.5 -40t-41.5 -17q-23 0 -40 17t-17 40v455l-140 -289q-16 -31 -49 -31t-47 31l-141 289v-455q0 -23 -15.5 -40t-42.5 -17t-42 17t-15 40z" />
<glyph unicode="&#xe000;" horiz-adv-x="1095" d="M0 0v1096h1096v-1096h-1096z" />
</font>
</defs>
</svg>
