<?xml version="1.0" standalone="no"?>
<!DOCTYPE svg PUBLIC "-//W3C//DTD SVG 1.1//EN" "http://www.w3.org/Graphics/SVG/1.1/DTD/svg11.dtd" >
<svg xmlns="http://www.w3.org/2000/svg">
<metadata></metadata>
<defs>
<font id="hermescond_lightregular" horiz-adv-x="1425" >
<font-face units-per-em="2048" ascent="1630" descent="-418" />
<missing-glyph horiz-adv-x="655" />
<glyph unicode="&#xfb01;" horiz-adv-x="1296" d="M12 1042q0 23 17.5 40.5t40.5 17.5h225v108q0 154 80 242t209 88q84 0 143 -32.5t98 -88.5q4 -8 9.5 -18t5.5 -23q0 -25 -16.5 -44t-43.5 -19q-31 0 -47 22q-27 41 -61.5 64.5t-87.5 23.5q-80 0 -122 -60t-42 -155v-108h600q27 0 44 -18.5t17 -45.5v-975q0 -27 -17 -44 t-44 -17t-45.5 17.5t-18.5 43.5v924h-536v-901q0 -27 -18.5 -45.5t-45.5 -18.5t-44 18.5t-17 45.5v901h-225q-23 0 -40.5 17.5t-17.5 39.5zM891 1432q0 51 37 87.5t88 36.5t88 -36.5t37 -87.5t-37 -88t-88 -37t-88 36.5t-37 88.5z" />
<glyph unicode="&#xfb02;" horiz-adv-x="1382" d="M12 1042q0 23 17.5 40.5t40.5 17.5h225v108q0 154 80 242t209 88q84 0 143 -32.5t98 -88.5q4 -8 9.5 -18t5.5 -23q0 -23 -15.5 -43t-44.5 -20q-27 0 -45 22q-29 37 -63.5 62.5t-87.5 25.5q-80 0 -122 -60t-42 -155v-108h293q23 0 40 -17.5t17 -40.5t-17.5 -40t-39.5 -17 h-293v-901q0 -27 -18.5 -45.5t-45.5 -18.5t-44 18.5t-17 45.5v901h-225q-23 0 -40.5 17.5t-17.5 39.5zM1042 61v1356q0 27 17.5 44.5t44.5 17.5t45 -17.5t18 -44.5v-1356q0 -27 -18.5 -44t-44.5 -17q-27 0 -44.5 17.5t-17.5 43.5z" />
<glyph horiz-adv-x="0" />
<glyph horiz-adv-x="0" />
<glyph unicode="&#xd;" horiz-adv-x="655" />
<glyph unicode=" "  horiz-adv-x="655" />
<glyph unicode="&#x09;" horiz-adv-x="655" />
<glyph unicode="&#xa0;" horiz-adv-x="655" />
<glyph unicode="!" horiz-adv-x="765" d="M258 115q0 51 37 88t88 37t88 -37t37 -88t-37 -88t-88 -37t-88 36.5t-37 88.5zM305 1403q0 33 22.5 55.5t55.5 22.5t55.5 -22.5t22.5 -55.5q0 -8 -1 -50t-3 -106.5t-5 -144.5t-6 -162q-6 -193 -12 -432q0 -23 -14 -37t-37 -14t-37 14t-14 37q-8 240 -15 432q-2 82 -4 162 t-4 144.5t-3 106.5t-1 50z" />
<glyph unicode="&#x22;" horiz-adv-x="993" d="M215 1405q0 35 25.5 60.5t60.5 25.5t60.5 -25.5t25.5 -60.5q0 -8 -3 -44t-6 -87t-8 -110.5t-9.5 -112t-7.5 -91t-3 -49.5q-2 -20 -14 -34.5t-35 -14.5t-35 14.5t-14 34.5q0 10 -3 49t-7 91.5t-9.5 112t-8.5 110.5t-6 87t-3 44zM606 1405q0 35 25.5 60.5t60.5 25.5 t60.5 -25.5t25.5 -60.5q0 -8 -3 -44t-6 -87t-8 -110.5t-9 -112t-7.5 -91t-3.5 -49.5q-2 -20 -14 -34.5t-35 -14.5t-35 14.5t-14 34.5q0 10 -3 49t-7 91.5t-9.5 112t-8.5 110.5t-6 87t-3 44z" />
<glyph unicode="#" horiz-adv-x="1519" d="M184 367q0 23 14.5 37t37.5 14h247l60 282h-228q-23 0 -37 14.5t-14 37.5t14.5 37t36.5 14h250l56 254q4 14 18 28.5t37 14.5q25 0 41 -17.5t16 -40.5q0 -8 -2 -16l-49 -223h248l55 254q4 14 18.5 28.5t36.5 14.5q25 0 41.5 -17.5t16.5 -40.5q0 -8 -2 -16l-49 -223h239 q23 0 37 -14.5t14 -36.5q0 -23 -14 -37.5t-37 -14.5h-260l-61 -282h241q23 0 37 -14.5t14 -36.5q0 -23 -14 -37.5t-37 -14.5h-262l-57 -266q-4 -23 -20.5 -36t-37.5 -13q-23 0 -40 17.5t-17 39.5q0 8 2 17l51 241h-245l-58 -266q-4 -23 -20.5 -36t-36.5 -13q-23 0 -40 17.5 t-17 39.5q0 8 2 17l51 241h-225q-23 0 -37.5 14.5t-14.5 37.5zM600 418h248l59 282h-245z" />
<glyph unicode="$" horiz-adv-x="1310" d="M145 293q0 27 17.5 46t46.5 19q14 0 28.5 -5t26.5 -21q45 -61 89 -106.5t93.5 -73t106.5 -41t125 -13.5q111 0 182.5 34t114.5 85q39 45 53 92t14 92q0 59 -15 103.5t-52 81.5q-39 37 -89 58.5t-134 43.5l-174 45q-92 25 -168 54.5t-130.5 72.5t-84 102.5t-29.5 141.5 q0 68 26.5 133.5t79 118.5t130 90t182.5 49v205q0 29 18.5 48t46.5 19q29 0 48.5 -19t19.5 -48v-201q133 -8 220 -57t142 -105q6 -6 15.5 -18t9.5 -35t-13.5 -43t-48.5 -20q-16 0 -29.5 8t-23.5 18q-37 33 -71.5 57.5t-72.5 42t-82 26.5t-101 9q-92 0 -160 -23.5t-113 -61 t-67.5 -88t-22.5 -103.5q0 -47 14.5 -83t48 -64.5t88 -52t136.5 -44.5l188 -47q117 -29 189.5 -62.5t123.5 -90.5q45 -51 67 -108.5t22 -156.5q0 -70 -27 -139.5t-76 -122.5q-63 -68 -145 -109.5t-211 -45.5v-185q0 -29 -19.5 -48t-48.5 -19t-47 19.5t-18 47.5v189 q-135 16 -236.5 82.5t-185.5 181.5q-16 23 -17 45z" />
<glyph unicode="%" horiz-adv-x="1761" d="M164 1178q0 68 25.5 126t69.5 102t102.5 69.5t125.5 25.5q68 0 126.5 -25.5t101.5 -69.5t68.5 -102t25.5 -126t-25.5 -126.5t-68.5 -101.5t-101.5 -68.5t-126.5 -25.5t-126 25.5t-102 68.5t-69.5 101.5t-25.5 126.5zM279 1178q0 -43 16 -82t44 -68t65.5 -46t82.5 -17 q43 0 81 17t66 46t43 68t15 82t-15 81.5t-43 68.5t-66 46.5t-81 16.5q-45 0 -82.5 -16.5t-65.5 -46.5t-44 -68.5t-16 -81.5zM338 -184q0 12 6 24l993 1827q16 27 45 27q12 0 25 -6q27 -16 27 -46q0 -12 -7 -24l-993 -1827q-16 -27 -45 -27q-12 0 -24 7q-27 16 -27 45z M965 295q0 66 24.5 124t67.5 101t101.5 67.5t123.5 24.5q66 0 123 -24.5t100 -67.5t67.5 -101t24.5 -124t-24.5 -123t-67.5 -100t-100 -67.5t-123 -24.5t-124 24.5t-101 67.5t-67.5 100t-24.5 123zM1077 295q0 -43 15.5 -81t43 -66.5t65.5 -45t81 -16.5t80 16.5t64.5 45 t43 66.5t15.5 81t-15.5 81t-43 67.5t-64.5 46t-80 16.5t-81 -16.5t-65.5 -46t-43 -67.5t-15.5 -81z" />
<glyph unicode="&#x26;" horiz-adv-x="1355" d="M123 371q0 66 16.5 125t56.5 116.5t107.5 113.5t169.5 114l-49 59q-66 78 -90.5 143.5t-24.5 137.5q0 66 23.5 124t67.5 101t105.5 68.5t137.5 25.5q72 0 131.5 -24.5t102.5 -67.5t66.5 -100.5t23.5 -122.5q0 -51 -11.5 -98.5t-44 -93.5t-91 -91t-152.5 -94l327 -391 q27 39 52.5 80t35.5 61q10 16 25.5 22.5t28.5 6.5q25 0 44 -17.5t19 -46.5q0 -10 -5 -21.5t-9 -19.5q-6 -10 -18.5 -29.5t-27 -42t-31.5 -47t-32 -45.5l174 -204q23 -29 23 -50q0 -25 -17.5 -44t-46.5 -19q-10 0 -22 4t-23 16l-164 193q-92 -102 -201.5 -167.5t-254.5 -65.5 q-88 0 -165 28.5t-134.5 79.5t-90 123t-32.5 160zM256 375q0 -53 18.5 -102.5t55.5 -88.5t93 -61.5t132 -22.5q104 0 189 54.5t178 152.5l-371 441q-86 -49 -143.5 -96.5t-91 -93.5t-47 -92t-13.5 -91zM442 1176q0 -57 23.5 -105.5t71.5 -105.5l59 -72q82 45 129 84 t71.5 73.5t31 68.5t6.5 69t-12.5 68.5t-37 61.5t-61.5 44t-86 16q-80 0 -137.5 -57t-57.5 -145z" />
<glyph unicode="'" horiz-adv-x="479" d="M154 1405q0 35 25.5 60.5t60.5 25.5t60.5 -25.5t25.5 -60.5q0 -8 -3.5 -44t-6.5 -87t-8 -110.5t-9 -112t-7 -91t-3 -49.5q-2 -20 -14.5 -34.5t-34.5 -14.5q-23 0 -35.5 14.5t-14.5 34.5q0 10 -3 49t-7 91.5t-9 112t-8 110.5t-6 87t-3 44z" />
<glyph unicode="(" horiz-adv-x="622" d="M133 606q0 317 93 601t270 507q10 12 22 17.5t25 5.5q23 0 39 -16.5t16 -39.5q0 -20 -14 -39q-160 -223 -242 -478t-82 -558t82 -559t242 -479q14 -18 14 -39q0 -23 -16.5 -39t-38.5 -16q-12 0 -24.5 5t-22.5 17q-176 223 -269.5 508t-93.5 602z" />
<glyph unicode=")" horiz-adv-x="622" d="M25 -471q0 20 14 39q160 223 241.5 479t81.5 559t-81.5 558t-241.5 478q-14 18 -14 39q0 23 16 39.5t39 16.5q12 0 24.5 -5.5t22.5 -17.5q176 -223 269 -507t93 -601t-93 -602t-269 -508q-10 -12 -22.5 -17t-24.5 -5q-23 0 -39 16t-16 39z" />
<glyph unicode="*" horiz-adv-x="1429" d="M188 1188q0 23 14.5 37t37.5 14h383l-191 334q-6 12 -6 24q0 23 14.5 37.5t36.5 14.5q31 0 45 -27l191 -332l190 332q14 27 45 27q23 0 37 -14.5t14 -37.5q0 -12 -6 -24l-192 -334h385q23 0 37 -14.5t14 -36.5q0 -23 -14.5 -37t-36.5 -14h-385l192 -334q6 -12 6 -25 q0 -23 -14 -37t-37 -14q-12 0 -24.5 6t-20.5 21l-190 331l-191 -331q-8 -14 -20.5 -20.5t-24.5 -6.5q-23 0 -37 14.5t-14 36.5q0 12 6 25l191 334h-383q-23 0 -37.5 14t-14.5 37z" />
<glyph unicode="+" d="M174 553q0 27 17.5 44t44.5 17h411v406q0 29 18.5 47t47.5 18t47 -18t18 -47v-406h412q27 0 44 -17t17 -44t-17 -44t-44 -17h-412v-408q0 -29 -18.5 -47.5t-46.5 -18.5q-29 0 -47.5 18.5t-18.5 47.5v408h-411q-27 0 -44.5 17t-17.5 44z" />
<glyph unicode="," horiz-adv-x="634" d="M172 -252q0 25 23 39q18 12 40.5 31.5t42 42t34 49.5t14.5 55q0 12 -7.5 18.5t-15.5 6.5q-41 8 -75.5 42t-34.5 89t37.5 94t95.5 39q57 0 95 -41t38 -102q0 -111 -33 -189q-23 -57 -68 -108.5t-102 -92.5q-25 -16 -43 -16q-16 0 -28.5 12.5t-12.5 30.5z" />
<glyph unicode="-" horiz-adv-x="993" d="M215 563q0 25 17.5 42.5t41.5 17.5h445q25 0 42 -17.5t17 -42.5t-17.5 -42t-41.5 -17h-445q-25 0 -42 17.5t-17 41.5z" />
<glyph unicode="." horiz-adv-x="634" d="M184 123q0 55 39 94t94 39t94.5 -39t39.5 -94t-39 -94t-95 -39q-55 0 -94 39t-39 94z" />
<glyph unicode="/" horiz-adv-x="985" d="M31 -336q0 14 6 27l786 2132q8 20 23.5 28.5t34.5 8.5q27 0 44 -17.5t17 -44.5q0 -14 -6 -26l-786 -2132q-8 -20 -23.5 -28.5t-34.5 -8.5q-27 0 -44 17.5t-17 43.5z" />
<glyph unicode="0" horiz-adv-x="1294" d="M143 741q0 162 31 301.5t93.5 241.5t157.5 160.5t222 58.5t222.5 -58.5t158 -160.5t93 -241.5t30.5 -301.5t-30.5 -301t-93 -241.5t-158 -160.5t-222.5 -58t-222 58t-157.5 160.5t-93.5 242t-31 300.5zM276 737q0 -322 100.5 -479.5t268.5 -157.5q84 0 152.5 40t118 119 t76 198.5t26.5 279.5t-26.5 281t-76 200.5t-118 119.5t-152.5 40q-168 0 -268.5 -159.5t-100.5 -481.5z" />
<glyph unicode="1" horiz-adv-x="1294" d="M139 1073q0 31 25 49l485 346q18 12 37 13h51q29 0 48.5 -19.5t19.5 -48.5v-1347q0 -29 -19.5 -47.5t-48.5 -18.5t-47 18.5t-18 47.5v1267l-436 -311q-16 -12 -35 -12q-33 0 -49 26q-12 18 -13 37z" />
<glyph unicode="2" horiz-adv-x="1294" d="M188 66v30.5t2 36.5q6 82 30 155.5t75 141.5t136 132.5t212 131.5q61 33 118.5 70t100.5 84t69.5 106.5t26.5 137.5q0 61 -20 114.5t-57 91t-91.5 60t-121.5 22.5q-139 0 -218 -92t-100 -233q-4 -23 -21.5 -39.5t-45.5 -16.5q-27 0 -46.5 18.5t-19.5 47.5q0 6 1 24.5 t3 24.5q12 82 49 153.5t94.5 124t134 82t169.5 29.5q104 0 184 -35.5t133 -94t80 -132.5t27 -151q0 -98 -28 -173t-80 -133.5t-125 -107.5t-161 -96q-115 -61 -186.5 -116.5t-112.5 -110t-57 -111t-23 -119.5h736q27 0 44 -17.5t17 -44.5t-17.5 -44t-43.5 -17h-801 q-29 0 -47.5 18.5t-18.5 47.5z" />
<glyph unicode="3" horiz-adv-x="1294" d="M123 158q0 23 17.5 44t45.5 21q12 0 22.5 -4t22.5 -10q66 -33 164.5 -70t220.5 -37q96 0 168 26t120 69t71.5 101t23.5 124q0 141 -117.5 227t-340.5 86q-29 0 -46.5 17.5t-17.5 44.5t17.5 44t46.5 17q199 0 289 70.5t90 175.5q0 51 -20.5 101t-63.5 88t-108.5 61.5 t-154.5 23.5q-80 0 -146.5 -24.5t-131.5 -61.5q-23 -12 -47 -12q-25 0 -44.5 16.5t-19.5 46.5q0 23 10.5 38.5t38.5 29.5q72 39 157 64.5t183 25.5q106 0 195.5 -30.5t152 -84t97.5 -126t35 -156.5q0 -117 -62.5 -192.5t-177.5 -106.5q63 -12 120.5 -44t101.5 -80t71 -112.5 t27 -146.5q0 -100 -36 -181t-102.5 -139.5t-162 -90t-216.5 -31.5q-129 0 -239.5 32.5t-208.5 81.5q-45 20 -45 64z" />
<glyph unicode="4" horiz-adv-x="1294" d="M111 436v29q0 20 12 39l616 950q20 27 49 27h64q29 0 48.5 -19.5t19.5 -48.5v-915h133q27 0 44 -17.5t17 -44.5t-17.5 -44t-43.5 -17h-133v-309q0 -29 -19.5 -47.5t-48.5 -18.5t-47.5 18.5t-18.5 47.5v309h-614q-27 0 -44 17.5t-17 43.5zM260 498h526v825z" />
<glyph unicode="5" horiz-adv-x="1294" d="M184 842q2 10 2 18q0 20 2 27l62 530q4 29 20.5 46.5t44.5 17.5h672q27 0 44.5 -17.5t17.5 -44.5t-17.5 -44t-44.5 -17h-614l-49 -453q78 74 168 116t186 42q98 0 181 -36t144.5 -104.5t95.5 -168t34 -226.5q0 -123 -36 -223t-101.5 -171t-155.5 -109.5t-201 -38.5 q-117 0 -213 31.5t-184 99.5q-25 18 -25 51q0 29 17.5 47t46.5 18q16 0 27 -5t22 -15q53 -45 135 -74.5t168 -29.5q82 0 150.5 29.5t115.5 85t73.5 132t26.5 170.5q0 104 -24.5 181t-68.5 129.5t-103.5 78t-126.5 25.5q-92 0 -172 -44t-139 -118q-6 -8 -18.5 -14t-33.5 -6 q-12 0 -24 4l-60 16q-45 12 -45 64z" />
<glyph unicode="6" horiz-adv-x="1290" d="M152 598q0 121 20.5 232.5t56 210t82.5 181.5t103 146q63 72 135 127t142.5 92t134 55.5t108.5 18.5q27 0 45 -14.5t18 -40.5q0 -49 -59 -64q-82 -20 -146.5 -47t-119 -62.5t-100.5 -80.5t-91 -101q-41 -49 -80 -128t-61 -150q63 70 148 103.5t184 33.5q113 0 205 -42 t156.5 -118t99 -180t34.5 -229q0 -121 -36.5 -223.5t-103 -177t-161 -117.5t-209.5 -43q-166 0 -274.5 75.5t-167.5 198.5q-33 68 -48 157t-15 187zM283 547q0 -98 27.5 -180t76.5 -140.5t118.5 -91.5t153.5 -33q88 0 159 33t118 91.5t72.5 140.5t25.5 180q0 94 -24.5 174 t-71.5 139.5t-116.5 93t-159.5 33.5q-86 0 -157 -32.5t-120 -91t-75.5 -139.5t-26.5 -177z" />
<glyph unicode="7" horiz-adv-x="1294" d="M170 1419q0 27 17.5 44.5t43.5 17.5h820q27 0 47 -19.5t20 -48.5q0 -20 -5 -45t-11 -47q-27 -102 -66 -185t-86 -159t-99 -150.5t-103 -158.5q-35 -55 -68 -117t-59.5 -133.5t-42 -157.5t-15.5 -192q0 -29 -19.5 -48.5t-47.5 -19.5q-29 0 -47.5 19.5t-18.5 48.5 q0 113 17.5 210t47 180t68.5 154.5t80 132.5q61 92 113.5 168t94.5 146.5t73.5 142.5t56.5 156h-750q-27 0 -44 17.5t-17 43.5z" />
<glyph unicode="8" horiz-adv-x="1294" d="M145 430q0 74 24 135.5t61.5 109.5t86 80.5t99.5 51.5q-37 16 -72 45t-62.5 66.5t-45 87t-17.5 108.5q0 86 33 157.5t90 122t136 79t171 28.5t171 -28.5t135.5 -80t88 -122t31.5 -156.5q0 -117 -56 -197.5t-142 -109.5q51 -16 100 -49t88 -80t62.5 -109.5t23.5 -138.5 q0 -104 -38 -188t-104.5 -142.5t-158.5 -89t-199 -30.5q-109 0 -201 30.5t-159.5 89t-106.5 142.5t-39 188zM279 430q0 -70 26.5 -129t74.5 -103t115.5 -70t151.5 -26t152.5 26t117 70t75 103t26.5 129q0 61 -21.5 116.5t-66.5 97.5t-115 67.5t-164 25.5t-163.5 -25.5 t-115.5 -67.5t-69.5 -97t-23.5 -117zM350 1114q0 -117 82 -186.5t215 -69.5t215 69.5t82 186.5q0 53 -18.5 101.5t-55 85t-92 58t-131.5 21.5t-131 -21.5t-92 -58t-55.5 -85t-18.5 -101.5z" />
<glyph unicode="9" horiz-adv-x="1290" d="M109 940q0 119 36.5 222.5t103 178t161 117.5t208.5 43q166 0 274.5 -75.5t168.5 -198.5q33 -68 48 -157t15 -187q0 -121 -20.5 -233.5t-56 -211t-82.5 -180.5t-103 -145q-63 -72 -136 -127.5t-143.5 -92t-133 -55t-107.5 -18.5q-27 0 -45 14t-18 41q0 49 59 64 q82 20 146.5 46.5t118.5 62.5t100.5 81t91.5 100q41 49 79.5 128t61.5 151q-63 -70 -148.5 -103.5t-183.5 -33.5q-115 0 -206 42t-155.5 117.5t-99 180t-34.5 229.5zM242 934q0 -94 24.5 -174t71.5 -139.5t116.5 -93t159.5 -33.5q86 0 157 32.5t120 91t75.5 139.5t26.5 177 q0 98 -27.5 180t-76.5 140.5t-119 91t-154 32.5q-90 0 -159.5 -32.5t-116.5 -91t-72.5 -140.5t-25.5 -180z" />
<glyph unicode=":" horiz-adv-x="634" d="M184 123q0 55 39 94t94 39t94.5 -39t39.5 -94t-39 -94t-95 -39q-55 0 -94 39t-39 94zM184 977q0 55 39 94t94 39t94.5 -39t39.5 -94t-39 -94t-95 -39q-55 0 -94 39t-39 94z" />
<glyph unicode=";" horiz-adv-x="634" d="M170 -252q0 25 23 39q18 12 40.5 31.5t42 42t34 49.5t14.5 55q0 12 -7.5 18.5t-15.5 6.5q-41 8 -76 42t-35 89t38 94t96 39q57 0 95 -41t38 -102q0 -111 -33 -189q-23 -57 -68 -108.5t-102 -92.5q-25 -16 -43 -16q-16 0 -28.5 12.5t-12.5 30.5zM190 977q0 55 39 94t95 39 q55 0 94 -39t39 -94t-39 -94t-94 -39t-94.5 39t-39.5 94z" />
<glyph unicode="&#x3c;" d="M166 535v32q0 37 35 56l952 462q14 6 27 7q29 0 45 -18.5t16 -43.5q0 -39 -35 -55l-905 -424l905 -424q35 -16 35 -55q0 -25 -16.5 -43.5t-44.5 -18.5q-12 0 -27 6l-952 463q-35 18 -35 56z" />
<glyph unicode="=" d="M174 356q0 27 17.5 44.5t44.5 17.5h954q27 0 44 -17.5t17 -44.5t-17 -44t-44 -17h-954q-27 0 -44.5 17.5t-17.5 43.5zM174 745q0 27 17.5 44.5t44.5 17.5h954q27 0 44 -17.5t17 -44.5t-17 -44t-44 -17h-954q-27 0 -44.5 17.5t-17.5 43.5z" />
<glyph unicode="&#x3e;" d="M184 72q0 39 35 55l905 424l-905 424q-35 16 -35 55q0 25 16.5 43.5t45.5 18.5q10 0 26 -7l953 -462q35 -18 35 -56v-32q0 -37 -35 -56l-953 -463q-16 -6 -26 -6q-29 0 -45.5 18.5t-16.5 43.5z" />
<glyph unicode="?" horiz-adv-x="1169" d="M156 1122q2 78 36.5 145.5t94 117t137.5 78t164 28.5q98 0 175 -32t131 -84t83 -119.5t29 -139.5q0 -102 -44 -167.5t-120 -123.5l-133 -100q-39 -29 -62.5 -56.5t-23.5 -84.5v-90q0 -27 -17.5 -44.5t-44.5 -17.5t-44 17.5t-17 44.5v102q0 72 30.5 119t90.5 92l129 96 q31 23 54 43.5t38.5 44t22.5 53t7 70.5q0 43 -17 88t-53 83t-89.5 62.5t-124.5 24.5q-70 0 -124 -20.5t-92 -56t-59.5 -82t-23.5 -95.5q-2 -27 -21.5 -44t-46.5 -17q-29 0 -47 19.5t-18 45.5zM430 123q0 55 39 94t94 39t94 -39t39 -94t-39 -94t-94 -39t-94 39t-39 94z" />
<glyph unicode="@" horiz-adv-x="1589" d="M225 551q0 205 36 387t136 328q72 102 183.5 172.5t271.5 70.5q117 0 200 -32.5t144 -92.5q31 -31 60.5 -76.5t51 -116.5t35 -168t13.5 -230v-590q0 -23 -18.5 -40.5t-41.5 -17.5t-41 17.5t-18 40.5v100q-111 -141 -279 -141q-74 0 -138 24.5t-112.5 72.5t-77 121 t-28.5 169q0 113 43 195.5t121 136.5q51 35 116.5 55t168.5 20q29 0 83 -6t103 -28q-6 135 -32.5 231t-94.5 164q-90 90 -266 90q-106 0 -203.5 -55.5t-155.5 -149.5q-78 -129 -107.5 -283.5t-29.5 -349.5q0 -205 43 -358.5t127 -257.5q78 -98 167 -143.5t196 -45.5 q88 0 167.5 25t151.5 84q16 14 37 14q23 0 37 -14t14 -37q0 -27 -22 -43q-82 -66 -185.5 -101.5t-214.5 -35.5q-117 0 -225.5 51t-189.5 143q-106 119 -166 302.5t-60 398.5zM723 563q0 -135 62.5 -212t191.5 -77q66 0 129 34t131 112v405q-37 10 -83 19.5t-87 9.5 q-82 0 -135 -16.5t-88 -40.5q-53 -35 -87 -92.5t-34 -141.5z" />
<glyph unicode="A" horiz-adv-x="1355" d="M70 76q0 6 4 16l532 1352q14 37 58 37h30q45 0 60 -37l526 -1346q6 -16 6 -30q0 -18 -10 -35t-29 -27q-12 -6 -28 -6q-23 0 -39.5 12.5t-24.5 30.5l-131 338h-700l-131 -342q-14 -39 -60 -39q-14 0 -27 6q-36 16 -36 55v15zM371 500h608l-303 788z" />
<glyph unicode="B" horiz-adv-x="1480" d="M238 66v1347q0 29 18 48.5t47 19.5h524q86 0 161 -25.5t130.5 -74t87 -119t31.5 -158.5q0 -109 -50 -185.5t-136 -121.5q125 -39 189.5 -137.5t64.5 -233.5q0 -92 -32 -170t-91.5 -134t-145.5 -89t-194 -33h-539q-29 0 -47 18.5t-18 47.5zM369 852h446q143 0 214 67.5 t71 184.5q0 121 -82 187.5t-207 66.5h-442v-506zM371 123h469q82 0 144.5 25.5t104 68.5t62 97.5t20.5 111.5q0 135 -86 219t-245 84h-469v-606z" />
<glyph unicode="C" horiz-adv-x="1423" d="M145 739q0 172 44 312.5t126 240t197 154.5t254 55q98 0 177 -25.5t140.5 -67.5t106.5 -95t74 -109q10 -18 17 -36.5t7 -37.5q0 -25 -13 -44t-42 -19q-25 0 -39 15.5t-23 31.5q-55 123 -155 193.5t-250 70.5q-111 0 -201 -46t-153.5 -130t-98 -201.5t-34.5 -261.5 q0 -145 34.5 -263t97 -200.5t151.5 -129t200 -46.5q150 0 241 69t156 202q20 45 60 45q29 0 45 -20.5t16 -45.5q0 -14 -5 -25.5t-9 -21.5q-33 -66 -79 -125t-108.5 -103t-140.5 -69.5t-172 -25.5q-139 0 -254 54t-197 154.5t-126 239.5t-44 311z" />
<glyph unicode="D" horiz-adv-x="1462" d="M238 102v1276q0 41 29.5 72t70.5 31h315q164 0 276.5 -54.5t194.5 -140.5q92 -98 142.5 -231.5t50.5 -313.5t-49 -314t-146 -234q-78 -84 -191.5 -138.5t-277.5 -54.5h-315q-41 0 -70.5 30.5t-29.5 71.5zM371 123h241q82 0 145.5 12t112 33.5t85 50.5t69.5 64 q72 78 116 189t44 269q0 147 -44 262t-124 201q-66 70 -152 112t-219 42h-274v-1235z" />
<glyph unicode="E" horiz-adv-x="1327" d="M238 66v1347q0 29 18 48.5t47 19.5h854q27 0 44.5 -17.5t17.5 -44.5t-17.5 -44t-44.5 -17h-786v-555h540q27 0 44.5 -17.5t17.5 -44.5t-17.5 -44t-44.5 -17h-540v-557h786q27 0 44.5 -17.5t17.5 -44.5t-17.5 -44t-44.5 -17h-854q-29 0 -47 18.5t-18 47.5z" />
<glyph unicode="F" horiz-adv-x="1265" d="M238 66v1347q0 29 18 48.5t47 19.5h854q27 0 44.5 -17.5t17.5 -44.5t-17.5 -44t-44.5 -17h-786v-555h540q27 0 44.5 -17.5t17.5 -44.5t-17.5 -44t-44.5 -17h-540v-614q0 -29 -19.5 -47.5t-48.5 -18.5t-47 18.5t-18 47.5z" />
<glyph unicode="G" horiz-adv-x="1468" d="M145 739q0 172 46.5 312.5t129 240t198.5 154.5t255 55q164 0 279.5 -67.5t187.5 -167.5q8 -10 14.5 -25.5t6.5 -32.5q0 -25 -14.5 -42t-43.5 -17q-23 0 -38 12.5t-29 30.5q-72 94 -158 140t-203 46q-111 0 -203 -46t-157.5 -130t-101 -201.5t-35.5 -261.5 q0 -111 26.5 -224.5t86 -205.5t153.5 -150.5t229 -58.5q137 0 231.5 51.5t143.5 122.5v394h-389q-27 0 -44.5 17t-17.5 44t17.5 44.5t44.5 17.5h461q27 0 44 -17.5t17 -44.5v-491q-35 -53 -83 -100.5t-110.5 -82.5t-137 -55t-163.5 -20q-154 0 -273.5 60t-201.5 163.5 t-125 242t-43 293.5z" />
<glyph unicode="H" horiz-adv-x="1536" d="M238 66v1347q0 29 18 48.5t47 19.5t48.5 -19.5t19.5 -48.5v-610h794v610q0 29 18.5 48.5t47.5 19.5t48 -19.5t19 -48.5v-1347q0 -29 -19 -47.5t-48 -18.5t-47.5 18.5t-18.5 47.5v614h-794v-614q0 -29 -19.5 -47.5t-48.5 -18.5t-47 18.5t-18 47.5z" />
<glyph unicode="I" horiz-adv-x="608" d="M238 66v1347q0 29 18 48.5t47 19.5t48.5 -19.5t19.5 -48.5v-1347q0 -29 -19.5 -47.5t-48.5 -18.5t-47 18.5t-18 47.5z" />
<glyph unicode="J" horiz-adv-x="1114" d="M43 246q0 23 17.5 43t41.5 20q23 0 36.5 -10t23.5 -27q51 -80 122.5 -125t188.5 -45q78 0 130 25t85 61q35 41 55.5 97.5t20.5 146.5v981q0 29 19.5 48.5t47.5 19.5q29 0 47.5 -19.5t18.5 -48.5v-975q0 -109 -24.5 -186.5t-69.5 -134.5q-55 -70 -134 -103.5t-200 -33.5 q-80 0 -145.5 19t-116.5 51t-88 70t-60 75q-16 27 -16 51z" />
<glyph unicode="K" horiz-adv-x="1431" d="M238 66v1347q0 29 18 48.5t47 19.5t48.5 -19.5t19.5 -48.5v-854l731 897q18 25 51 25q29 0 46.5 -19.5t17.5 -46.5q0 -29 -23 -57l-430 -514l518 -735q14 -23 14 -43q0 -29 -18 -47.5t-47 -18.5q-37 0 -55 29l-492 716l-313 -374v-305q0 -29 -19.5 -47.5t-48.5 -18.5 t-47 18.5t-18 47.5z" />
<glyph unicode="L" horiz-adv-x="1161" d="M238 66v1347q0 29 18 48.5t47 19.5t48.5 -19.5t19.5 -48.5v-1290h696q27 0 44 -17.5t17 -44.5t-17 -44t-44 -17h-764q-29 0 -47 18.5t-18 47.5z" />
<glyph unicode="M" horiz-adv-x="1714" d="M238 63v1352q0 29 17 47.5t46 18.5h80q35 0 53 -35l420 -881l420 881q18 35 53 35h82q29 0 48.5 -19.5t19.5 -48.5v-1347q0 -29 -19.5 -47.5t-48.5 -18.5t-47.5 18.5t-18.5 47.5v1157q0 33 3.5 71.5t9.5 71.5h-4q-8 -33 -20.5 -65.5t-26.5 -61.5l-392 -821 q-20 -37 -59 -37t-59 37l-394 821q-14 29 -25 61.5t-20 65.5h-4q6 -33 10.5 -72t4.5 -71v-1160q0 -29 -18.5 -46t-47.5 -17t-46 17.5t-17 45.5z" />
<glyph unicode="N" horiz-adv-x="1536" d="M238 63v1352q0 29 17 47.5t46 18.5h76q29 0 53 -35l690 -1174q35 -51 51 -98h5q-10 57 -11 115v1126q0 29 18.5 47.5t47.5 18.5t48 -18.5t19 -47.5v-1349q0 -29 -19 -47.5t-48 -18.5h-78q-35 0 -53 35l-688 1179q-35 51 -52 99h-4q10 -57 11 -115v-1135q0 -29 -18.5 -46 t-47.5 -17t-46 17.5t-17 45.5z" />
<glyph unicode="O" horiz-adv-x="1552" d="M145 739q0 172 46.5 312.5t129 240t199.5 154.5t256 55t256 -55t200 -154.5t129 -240t46 -312.5t-46 -311t-129 -239.5t-200 -154.5t-256 -54t-256 54t-199.5 154.5t-129 239.5t-46.5 311zM279 739q0 -145 35.5 -263t101 -200.5t157.5 -129t203 -46.5t203 46.5t157.5 129 t101.5 200.5t36 263q0 143 -36 261t-101.5 202t-157.5 130t-203 46t-203 -46t-157.5 -130t-101 -201.5t-35.5 -261.5z" />
<glyph unicode="P" horiz-adv-x="1343" d="M238 66v1347q0 29 18 48.5t47 19.5h440q113 0 207 -40t160 -116q47 -53 72.5 -120.5t25.5 -149.5q0 -98 -29.5 -172t-82.5 -127q-59 -57 -146.5 -92t-212.5 -35h-366v-563q0 -29 -19.5 -47.5t-48.5 -18.5t-47 18.5t-18 47.5zM371 752h366q96 0 157.5 23.5t96.5 58.5 q41 39 62.5 93t21.5 128q0 104 -65 188q-43 55 -112 85t-155 30h-372v-606z" />
<glyph unicode="Q" horiz-adv-x="1552" d="M145 739q0 172 46.5 312.5t129 240t199.5 154.5t256 55t256 -55t200 -154.5t129 -240t46 -312.5t-46 -311t-129 -239.5t-200 -154.5t-256 -54t-256 54t-199.5 154.5t-129 239.5t-46.5 311zM279 739q0 -145 35.5 -263t101 -200.5t157.5 -129t203 -46.5t203 46.5t157.5 129 t101.5 200.5t36 263q0 143 -36 261t-101.5 202t-157.5 130t-203 46t-203 -46t-157.5 -130t-101 -201.5t-35.5 -261.5zM815 481q0 29 18.5 47.5t47.5 18.5q16 0 30.5 -7.5t24.5 -21.5l397 -563q14 -23 15 -43q0 -29 -18.5 -47.5t-47.5 -18.5q-16 0 -29.5 6.5t-29.5 28.5 l-396 561q-12 18 -12 39z" />
<glyph unicode="R" d="M238 66v1347q0 29 18 48.5t47 19.5h506q111 0 202 -40t154 -116q43 -53 69 -120.5t26 -151.5q0 -98 -29 -172t-82 -127q-51 -51 -116.5 -81t-162.5 -42l353 -518q18 -23 18 -47q0 -29 -18.5 -47.5t-46.5 -18.5q-16 0 -29.5 9t-24.5 22l-409 598h-342v-563 q0 -29 -19.5 -47.5t-48.5 -18.5t-47 18.5t-18 47.5zM371 752h413q98 0 163 23.5t100 58.5q37 37 58 92t21 129q0 109 -65 188q-45 55 -117 85t-160 30h-413v-606z" />
<glyph unicode="S" horiz-adv-x="1320" d="M145 293q0 27 17.5 46t46.5 19q14 0 28.5 -5t26.5 -21q45 -61 89 -106.5t93.5 -73t106.5 -41t125 -13.5q111 0 182.5 34t114.5 85q39 45 53 92t14 92q0 59 -15 103.5t-52 81.5q-39 37 -89 58.5t-134 43.5l-174 45q-92 25 -168 54.5t-130.5 72.5t-84 102.5t-29.5 141.5 q0 74 31.5 145.5t95 128t159 90t220.5 33.5q76 0 138 -14t111.5 -38t88.5 -52.5t69 -59.5q6 -6 15.5 -18t9.5 -35t-13.5 -43t-48.5 -20q-16 0 -28.5 8t-24.5 18q-37 33 -71.5 58.5t-72.5 42t-82 25.5t-101 9q-92 0 -160 -23.5t-113 -61t-67.5 -88t-22.5 -103.5 q0 -47 14.5 -83t48 -64.5t88 -52t136.5 -44.5l188 -47q117 -29 189.5 -62.5t123.5 -90.5q45 -51 67 -109t22 -156q0 -70 -27 -139.5t-76 -122.5q-68 -72 -157 -115t-236 -43q-172 0 -296 69t-222 202q-16 23 -17 45z" />
<glyph unicode="T" horiz-adv-x="1210" d="M68 1419q0 27 17 44.5t44 17.5h952q27 0 44.5 -17.5t17.5 -44.5t-17.5 -44t-44.5 -17h-409v-1292q0 -29 -19.5 -47.5t-48.5 -18.5t-47 18.5t-18 47.5v1292h-410q-27 0 -44 17.5t-17 43.5z" />
<glyph unicode="U" horiz-adv-x="1540" d="M217 537v876q0 29 18.5 48.5t47.5 19.5t48 -19.5t19 -48.5v-874q0 -211 110.5 -324t309.5 -113q207 0 313.5 117t106.5 336v858q0 29 19.5 48.5t47.5 19.5q29 0 47.5 -19.5t18.5 -48.5v-868q0 -131 -39 -235.5t-110.5 -178.5t-174 -112.5t-229.5 -38.5t-228.5 37.5 t-174 109.5t-111.5 175.5t-39 234.5z" />
<glyph unicode="V" horiz-adv-x="1361" d="M92 1413q0 29 18.5 48.5t49.5 19.5q45 0 65 -51l437 -1190q10 -29 15 -50.5t9 -44.5h4q4 23 9.5 44.5t15.5 50.5l426 1194q16 47 63 47q29 0 47.5 -18.5t18.5 -47.5q0 -8 -2 -17t-4 -16l-488 -1343q-6 -18 -22.5 -28.5t-36.5 -10.5h-70q-18 0 -34.5 11.5t-22.5 31.5 l-492 1341q-6 14 -6 29z" />
<glyph unicode="W" horiz-adv-x="1730" d="M125 1415q0 23 13.5 41.5t35.5 22.5q6 2 16 2q23 0 42.5 -13.5t23.5 -35.5l291 -1143q8 -33 13 -69t7 -64h4q4 31 8.5 66.5t12.5 68.5l215 852q4 18 20.5 33.5t38.5 15.5q51 0 62 -45l217 -856q8 -33 12 -69t8 -66h4q2 29 7.5 64.5t13.5 68.5l289 1143q4 23 21.5 36 t39.5 13q10 0 16 -2q23 -4 36.5 -22.5t13.5 -41.5q0 -10 -2 -16l-353 -1352q-6 -23 -22.5 -35t-38.5 -12h-45q-23 0 -39 12.5t-21 32.5l-202 786q-6 27 -11.5 64t-5.5 72h-4q0 -35 -5 -72t-11 -64l-201 -784q-6 -23 -23.5 -35t-37.5 -12h-43q-27 0 -42.5 13.5t-21.5 35.5 l-350 1348q-2 6 -2 18z" />
<glyph unicode="X" horiz-adv-x="1351" d="M115 61q0 23 14 43l498 697l75 -105l-475 -669q-20 -27 -51 -27q-29 0 -45 18.5t-16 42.5zM143 1415q0 27 16.5 46.5t49.5 19.5t55 -29l961 -1348q12 -18 12 -38q0 -25 -15.5 -45.5t-45.5 -20.5q-33 0 -54 29l-966 1345q-12 18 -13 41zM651 834l439 618q20 29 53 29 q27 0 44 -17.5t17 -44.5q0 -23 -14 -43l-465 -649z" />
<glyph unicode="Y" horiz-adv-x="1210" d="M72 1409q0 29 20.5 50.5t46.5 21.5q18 0 33.5 -9.5t26.5 -23.5l407 -664l412 664q20 33 55 33q29 0 47.5 -20.5t18.5 -49.5q0 -20 -15 -41l-452 -729v-575q0 -29 -19.5 -47.5t-48.5 -18.5t-47 18.5t-18 47.5v575l-455 729q-12 18 -12 39z" />
<glyph unicode="Z" horiz-adv-x="1292" d="M104 66q0 12 5.5 23t13.5 24l868 1245h-776q-27 0 -44 17.5t-17 43.5q0 27 17 44.5t44 17.5h891q31 0 49.5 -21.5t18.5 -46.5q0 -20 -17 -43l-870 -1247h839q27 0 44.5 -17.5t17.5 -44.5t-17.5 -44t-44.5 -17h-956q-29 0 -47.5 19.5t-18.5 46.5z" />
<glyph unicode="[" horiz-adv-x="686" d="M174 -459v2134q0 27 17.5 44.5t44.5 17.5h362q23 0 39 -16.5t16 -39.5t-16 -39t-39 -16h-301v-2036h301q23 0 39 -16t16 -39t-16 -39t-39 -16h-362q-27 0 -44.5 17.5t-17.5 43.5z" />
<glyph unicode="\" horiz-adv-x="985" d="M43 1798q0 27 17.5 44.5t43.5 17.5q18 0 34 -8.5t24 -28.5l786 -2132q6 -12 6 -27q0 -27 -17 -44t-44 -17q-18 0 -33.5 8t-23.5 29l-787 2132q-6 12 -6 26z" />
<glyph unicode="]" horiz-adv-x="686" d="M33 -465q0 23 16.5 39t38.5 16h301v2036h-301q-23 0 -39 16.5t-16 38.5q0 23 16.5 39.5t38.5 16.5h363q27 0 44 -17.5t17 -44.5v-2134q0 -27 -17.5 -44t-43.5 -17h-363q-23 0 -39 16.5t-16 38.5z" />
<glyph unicode="^" horiz-adv-x="1236" d="M260 1087q0 16 10 33l275 522q10 20 30.5 33t42.5 13q23 0 43.5 -12.5t30.5 -33.5l275 -522q10 -16 10 -33q0 -18 -12.5 -30.5t-30.5 -12.5q-23 0 -33 15l-283 444l-282 -442q-12 -16 -33 -17q-18 0 -30.5 12.5t-12.5 30.5z" />
<glyph unicode="_" horiz-adv-x="790" d="M-63 -244q0 23 18 41.5t41 18.5h799q23 0 41 -18.5t18 -41.5q0 -25 -18.5 -42t-40.5 -17h-799q-23 0 -41 17.5t-18 41.5z" />
<glyph unicode="`" horiz-adv-x="585" d="M88 1606q0 33 22.5 55t55.5 22q35 0 53 -24l285 -359q14 -14 14 -30t-12 -28.5t-29 -12.5q-12 0 -24 8l-334 307q-10 10 -20.5 24.5t-10.5 37.5z" />
<glyph unicode="a" horiz-adv-x="1302" d="M143 549q0 127 36 230.5t99.5 177t151.5 113.5t191 40q121 0 206.5 -58.5t128.5 -133.5v118q0 27 16.5 45.5t43.5 18.5t46 -18.5t19 -45.5v-975q0 -27 -19.5 -44t-45.5 -17q-27 0 -43.5 17.5t-16.5 43.5v129q-20 -39 -52 -74.5t-75 -63t-95 -45t-113 -17.5 q-104 0 -192.5 40t-151 112.5t-98.5 176t-36 230.5zM268 547q0 -211 97.5 -327t259.5 -116q66 0 126 29t106 85t72.5 137t26.5 186q0 104 -26.5 188t-71.5 143.5t-105.5 91t-127.5 31.5q-80 0 -145.5 -30.5t-113 -88t-73 -140.5t-25.5 -189z" />
<glyph unicode="b" horiz-adv-x="1302" d="M221 61v1356q0 27 19.5 45.5t46.5 18.5t43 -18.5t16 -45.5v-504q45 78 131 137.5t221 59.5q98 0 182.5 -40t147 -113.5t97 -177t34.5 -230.5t-36 -230.5t-98 -176t-147.5 -112.5t-181.5 -40q-133 0 -219 56t-131 134v-119q0 -27 -16.5 -44t-42.5 -17q-27 0 -46.5 17.5 t-19.5 43.5zM346 541q0 -104 27.5 -185.5t74 -137.5t108.5 -85t132 -29q154 0 250 116t96 327q0 106 -25.5 189t-71.5 140.5t-107.5 88t-135.5 30.5t-138 -31.5t-110.5 -91t-73 -143.5t-26.5 -188z" />
<glyph unicode="c" horiz-adv-x="1132" d="M143 549q0 131 38 235.5t101.5 176t148.5 110.5t179 39q76 0 137.5 -20.5t107.5 -54.5t79 -78t51 -91q8 -23 8 -43q0 -25 -15 -42t-42 -17q-45 0 -62 45q-33 80 -93 133t-171 53q-72 0 -134 -30.5t-108 -87t-73 -138.5t-27 -186q0 -106 27 -189t73 -140.5t108.5 -88.5 t133.5 -31q109 0 173.5 51.5t97.5 123.5q14 33 28.5 44t32.5 11q27 0 42 -16.5t15 -43.5q0 -10 -2 -20t-6 -21q-39 -100 -136 -171.5t-245 -71.5q-98 0 -183 39t-147.5 111.5t-99.5 176t-37 232.5z" />
<glyph unicode="d" horiz-adv-x="1302" d="M143 551q0 127 36 230.5t98.5 176t147.5 112.5t181 40q68 0 122 -15.5t97 -42t76 -60.5t55 -72v499q0 27 16.5 44.5t43.5 17.5t46 -17.5t19 -44.5v-1356q0 -27 -18.5 -45t-44.5 -18q-27 0 -44.5 18.5t-17.5 44.5v123q-45 -78 -131 -137t-221 -59q-98 0 -182 40 t-146.5 113.5t-97.5 177t-35 230.5zM268 553q0 -106 25.5 -189t72 -140.5t108 -88.5t134.5 -31q74 0 138.5 32t110.5 91.5t72.5 143.5t26.5 188t-27.5 185t-73.5 137.5t-108.5 85t-132.5 28.5q-154 0 -250 -115.5t-96 -326.5z" />
<glyph unicode="e" horiz-adv-x="1183" d="M143 549q0 135 40 239.5t104.5 176t148.5 108.5t172 37q90 0 169 -35t138.5 -102.5t93 -169t33.5 -234.5q0 -31 -18 -47t-47 -16h-707q0 -88 27 -162t72 -127t105.5 -83t129.5 -30q98 0 160.5 42t109.5 108q10 14 21.5 23.5t30.5 9.5q25 0 42 -15.5t17 -44.5 q0 -14 -5 -27.5t-11 -23.5q-51 -80 -139.5 -133t-223.5 -53q-98 0 -183 39t-147.5 110.5t-97.5 176t-35 233.5zM270 616h645q-4 178 -89 278.5t-218 100.5q-66 0 -124 -25.5t-103 -74.5t-75 -119.5t-36 -159.5z" />
<glyph unicode="f" horiz-adv-x="870" d="M47 1042q0 23 17.5 40.5t39.5 17.5h226v108q0 154 79.5 242t208.5 88q84 0 143.5 -32.5t98.5 -88.5l9 -18t5 -23q0 -23 -15 -43t-44 -20q-27 0 -45 22q-29 37 -63.5 62.5t-88.5 25.5q-80 0 -121.5 -60t-41.5 -155v-108h293q23 0 40 -17.5t17 -40.5t-17.5 -40t-39.5 -17 h-293v-901q0 -27 -18.5 -45.5t-45.5 -18.5t-44 18.5t-17 45.5v901h-226q-23 0 -40 17.5t-17 39.5z" />
<glyph unicode="g" horiz-adv-x="1302" d="M143 549q0 127 36 230.5t99.5 177t151.5 113.5t191 40q59 0 110 -16.5t94 -43t76 -62.5t55 -75v123q0 27 16.5 45.5t43.5 18.5t46 -18.5t19 -45.5v-983q0 -123 -33.5 -213t-111.5 -155q-59 -51 -137 -77t-197 -26q-98 0 -191.5 30t-156.5 81q-16 14 -27.5 29.5 t-11.5 33.5q0 27 16.5 45.5t44.5 18.5q14 0 27.5 -9.5t28.5 -19.5q53 -41 120.5 -68.5t153.5 -27.5q82 0 147.5 20.5t112.5 67.5t68.5 116.5t21.5 155.5v135q-20 -39 -52 -74.5t-75 -63t-95 -45t-113 -17.5q-104 0 -192.5 40t-151 112.5t-98.5 176t-36 230.5zM268 547 q0 -211 97.5 -327t259.5 -116q66 0 126 29t106 85t72.5 137t26.5 186q0 104 -26.5 188t-71.5 143.5t-105.5 91t-127.5 31.5q-80 0 -145.5 -30.5t-113 -88t-73 -140.5t-25.5 -189z" />
<glyph unicode="h" horiz-adv-x="1286" d="M221 61v1356q0 27 18.5 45.5t45.5 18.5t44 -18.5t17 -45.5v-463q57 66 145.5 110t206.5 44q123 0 206 -43t126 -117q31 -53 43 -118.5t12 -139.5v-629q0 -27 -17 -44t-44 -17t-45 17.5t-18 43.5v625q0 45 -7.5 91t-21.5 77q-59 139 -244 139q-109 0 -179.5 -40 t-107.5 -87q-33 -41 -44 -95t-11 -120v-590q0 -27 -17.5 -44t-43.5 -17q-27 0 -45.5 17.5t-18.5 43.5z" />
<glyph unicode="i" horiz-adv-x="589" d="M170 1432q0 51 37 87.5t88 36.5t88 -36.5t37 -87.5t-37 -88t-88 -37t-88 36.5t-37 88.5zM231 61v975q0 27 18.5 45.5t45.5 18.5t44 -18.5t17 -45.5v-975q0 -27 -17 -44t-44 -17t-45.5 17.5t-18.5 43.5z" />
<glyph unicode="j" horiz-adv-x="831" d="M37 -254q0 23 16.5 42t44.5 19q29 0 47 -22q31 -37 68 -62.5t86 -25.5q84 0 129 60.5t45 154.5v1124q0 27 18.5 45.5t45.5 18.5t44 -18.5t17 -45.5v-1124q0 -78 -22.5 -138.5t-62.5 -103.5t-96.5 -65.5t-121.5 -22.5q-76 0 -138.5 33t-105.5 92q-14 18 -14 39zM412 1432 q0 51 36.5 87.5t88.5 36.5q51 0 88 -36.5t37 -87.5t-37 -88t-88 -37t-88 36.5t-37 88.5z" />
<glyph unicode="k" horiz-adv-x="1165" d="M221 61v1356q0 27 18.5 45.5t45.5 18.5t44 -18.5t17 -45.5v-942l608 608q16 16 37 17q25 0 43.5 -16.5t18.5 -43.5q0 -29 -19 -45l-389 -379l416 -518q16 -23 16 -43q0 -25 -16 -39q-14 -16 -41 -16q-10 0 -22.5 4t-20.5 14l-412 521l-219 -215v-263q0 -27 -17.5 -44 t-43.5 -17q-27 0 -45.5 17.5t-18.5 43.5z" />
<glyph unicode="l" horiz-adv-x="567" d="M221 61v1356q0 27 17.5 44.5t44.5 17.5t45 -17.5t18 -44.5v-1356q0 -27 -18.5 -44t-44.5 -17q-27 0 -44.5 17.5t-17.5 43.5z" />
<glyph unicode="m" horiz-adv-x="1761" d="M221 61v975q0 27 18.5 45.5t45.5 18.5t44 -18.5t17 -45.5v-51q51 59 120 92t150 33q106 0 181 -44t114 -130q51 82 131 128t177 46q156 0 243.5 -92t87.5 -273v-684q0 -27 -17 -44t-44 -17t-45.5 17.5t-18.5 43.5v684q0 250 -223 250q-63 0 -121.5 -34.5t-89.5 -86.5 q-23 -37 -33 -87t-10 -97v-629q0 -27 -17.5 -44t-43.5 -17q-27 0 -45.5 17.5t-18.5 43.5v684q0 250 -223 250q-63 0 -121.5 -34.5t-89.5 -86.5q-20 -35 -31.5 -80.5t-11.5 -93.5v-639q0 -27 -17.5 -44t-43.5 -17q-27 0 -45.5 17.5t-18.5 43.5z" />
<glyph unicode="n" horiz-adv-x="1296" d="M221 61v975q0 27 18.5 45.5t45.5 18.5t44 -18.5t17 -45.5v-82q57 66 145.5 110t206.5 44q123 0 206 -43t126 -117q31 -53 43 -118.5t12 -139.5v-629q0 -27 -17 -44t-44 -17t-45 17.5t-18 43.5v625q0 45 -7.5 91t-21.5 77q-59 139 -244 139q-109 0 -179.5 -40t-107.5 -87 q-33 -41 -44 -95t-11 -120v-590q0 -27 -17.5 -44t-43.5 -17q-27 0 -45.5 17.5t-18.5 43.5z" />
<glyph unicode="o" horiz-adv-x="1220" d="M143 551q0 127 36 230.5t99.5 176t148.5 112.5t183 40t183.5 -40t149 -112.5t99 -176t35.5 -230.5t-35.5 -230.5t-99 -177t-148.5 -113.5t-184 -40q-98 0 -183 40t-148.5 113.5t-99.5 177t-36 230.5zM270 551q0 -104 26 -187t71 -140.5t107 -88.5t136 -31t136.5 31 t107.5 88.5t70.5 140t25.5 187.5q0 102 -25.5 185t-70.5 140.5t-107.5 88t-136.5 30.5t-136 -30.5t-107 -88t-71 -140.5t-26 -185z" />
<glyph unicode="p" horiz-adv-x="1302" d="M221 -319v1366q0 27 18.5 45t45.5 18t44 -18.5t17 -44.5v-134q45 78 131 137.5t221 59.5q98 0 182.5 -40t147 -113.5t97 -177t34.5 -230.5t-36 -230.5t-98 -176t-147.5 -112.5t-181.5 -40q-133 0 -219 56t-131 134v-499q0 -27 -17.5 -44.5t-43.5 -17.5q-27 0 -45.5 17.5 t-18.5 44.5zM346 541q0 -104 27.5 -185.5t74 -137.5t108.5 -85t132 -29q154 0 250 116t96 327q0 106 -25.5 189t-71.5 140.5t-107.5 88t-135.5 30.5t-138 -31.5t-110.5 -91t-73 -143.5t-26.5 -188z" />
<glyph unicode="q" horiz-adv-x="1302" d="M143 551q0 127 36 230.5t98.5 176t147.5 112.5t181 40q68 0 122 -15.5t97 -42t76 -60.5t55 -72v116q0 27 17.5 45.5t44.5 18.5t45 -18.5t18 -45.5v-1355q0 -27 -18.5 -45.5t-44.5 -18.5q-27 0 -44.5 18.5t-17.5 45.5v505q-45 -78 -131 -137t-221 -59q-98 0 -182 40 t-146.5 113.5t-97.5 177t-35 230.5zM268 553q0 -106 25.5 -189t72 -140.5t108 -88.5t134.5 -31q74 0 138.5 32t110.5 91.5t72.5 143.5t26.5 188t-27.5 185t-73.5 137.5t-108.5 85t-132.5 28.5q-154 0 -250 -115.5t-96 -326.5z" />
<glyph unicode="r" horiz-adv-x="1060" d="M221 61v975q0 27 18.5 45.5t45.5 18.5t44 -18.5t17 -45.5v-82q55 68 135 112t197 44q104 0 182 -39t125 -102q18 -25 19 -49q0 -23 -15.5 -42.5t-44.5 -19.5q-12 0 -25.5 6.5t-23.5 18.5q-35 45 -87 78.5t-134 33.5q-53 0 -96 -11t-76 -29.5t-57.5 -42t-43.5 -46.5 q-33 -41 -44 -95t-11 -120v-590q0 -27 -17.5 -44t-43.5 -17q-27 0 -45.5 17.5t-18.5 43.5z" />
<glyph unicode="s" horiz-adv-x="1183" d="M160 227q0 27 16.5 45.5t42.5 18.5q27 0 45 -19q31 -33 64.5 -63.5t73.5 -54t91.5 -38t118.5 -14.5q137 0 210 61.5t73 149.5q0 72 -39 114t-133 62l-213 46q-172 35 -249 101t-77 177q0 61 30 115.5t84 94.5t127 63.5t159 23.5q117 0 207 -39t155 -98q23 -18 23 -47 q0 -25 -15.5 -40.5t-40.5 -15.5t-47 17q-68 51 -136 80.5t-146 29.5q-68 0 -119 -16t-85 -43t-51.5 -58.5t-17.5 -62.5q0 -59 47.5 -101t171.5 -69l215 -45q279 -59 279 -285q0 -78 -33 -138t-88 -102t-130 -64.5t-161 -22.5q-90 0 -159.5 18.5t-123 47t-91 63t-64.5 67.5 q-14 18 -14 41z" />
<glyph unicode="t" horiz-adv-x="983" d="M88 1042q0 23 17.5 40.5t39.5 17.5h222v342q0 27 17 44t44 17t45.5 -17.5t18.5 -43.5v-342h305q23 0 40 -17.5t17 -40.5t-17.5 -40t-39.5 -17h-305v-661q0 -41 8 -80t24 -66q45 -74 123 -74q53 0 90 21.5t66 60.5q16 23 45 23q27 0 41 -17.5t14 -41.5q0 -14 -5 -25.5 t-11 -20.5q-39 -53 -98.5 -83.5t-141.5 -30.5q-76 0 -126 26.5t-83 67.5q-35 41 -53 99.5t-18 135.5v666h-222q-23 0 -40 17.5t-17 39.5z" />
<glyph unicode="u" horiz-adv-x="1296" d="M211 410v628q0 27 17.5 44.5t43.5 17.5q27 0 45.5 -17.5t18.5 -44.5v-624q0 -45 7 -91.5t22 -76.5q59 -139 243 -140q109 0 179.5 40t107.5 87q33 41 44 95.5t11 120.5v589q0 27 17.5 44.5t44.5 17.5t45 -17.5t18 -44.5v-975q0 -27 -18.5 -45t-44.5 -18q-27 0 -44.5 18.5 t-17.5 44.5v82q-57 -66 -145 -110.5t-207 -44.5q-123 0 -206 44t-126 118q-31 53 -43 118.5t-12 139.5z" />
<glyph unicode="v" horiz-adv-x="1097" d="M82 1038q0 39 35 56q12 6 26 6q16 0 33 -9.5t23 -25.5l313 -799q10 -18 20.5 -43.5t14.5 -42.5h4q4 16 14 42t21 44l313 799q6 16 22.5 25.5t32.5 9.5q14 0 27 -6q35 -16 35 -56q0 -16 -6 -28l-389 -977q-6 -16 -21.5 -24.5t-34.5 -8.5h-33q-18 0 -33.5 8t-21.5 25 l-389 977q-6 12 -6 28z" />
<glyph unicode="w" horiz-adv-x="1501" d="M123 1038q0 27 17.5 44.5t43.5 17.5q23 0 39.5 -13.5t22.5 -33.5l211 -807q4 -16 8 -33.5t6 -34.5q2 -18 2 -37h4q0 16 2 35q2 16 5 34.5t10 35.5l198 608q6 16 20.5 30.5t37.5 14.5t37 -14.5t20 -30.5l201 -608q4 -16 8 -34.5t6 -35.5q2 -18 2 -35h4q0 18 2 37 q2 16 5 33.5t9 34.5l211 807q4 20 21.5 33.5t40.5 13.5q27 0 44 -17.5t17 -44.5q0 -10 -4 -22l-270 -977q-4 -18 -21.5 -28.5t-35.5 -10.5h-35q-16 0 -31.5 9t-22.5 26l-190 567q-6 16 -9 34.5t-5 35.5q-2 18 -2 35h-4q0 -18 -3 -37q-2 -16 -6 -34t-8 -34l-188 -567 q-4 -16 -20.5 -25.5t-33.5 -9.5h-34q-18 0 -36 10t-22 29l-270 977q-4 12 -4 22z" />
<glyph unicode="x" horiz-adv-x="1157" d="M123 61q0 12 5 23.5t13 21.5l367 465l-330 418q-8 10 -13 23.5t-5 25.5q0 27 18 45q20 16 43 17q33 0 51 -27l314 -409l309 415q8 10 21.5 15.5t27.5 5.5q23 0 43 -17q18 -18 19 -45q0 -12 -5.5 -23t-13.5 -22l-328 -420l357 -462q8 -10 13 -23.5t5 -26.5q0 -27 -18 -45 q-16 -16 -43 -16q-29 0 -49 20l-342 455l-349 -455q-14 -20 -49 -20q-23 0 -43 16q-18 18 -18 45z" />
<glyph unicode="y" horiz-adv-x="1142" d="M66 -268q0 29 18 46t41 17q31 0 51 -26q29 -35 57.5 -54.5t75.5 -19.5q49 0 81 27.5t54 87.5l91 225q-23 8 -41 43l-377 932q-6 12 -6 28q0 39 34 56q12 6 29 6q18 0 33.5 -9.5t21.5 -25.5l328 -829q8 -20 16.5 -45t12.5 -41h4q4 20 13 43.5t18 42.5l327 829 q6 16 21.5 25.5t34.5 9.5q14 0 26 -6q35 -16 35 -56q0 -16 -6 -28l-510 -1256q-29 -72 -86 -122t-154 -50q-74 0 -129 28t-100 81q-14 16 -14 41z" />
<glyph unicode="z" horiz-adv-x="1120" d="M129 63q0 10 2 21.5t10 21.5l645 879h-573q-23 0 -40 17.5t-17 39.5q0 23 17 40.5t40 17.5h684q20 0 41 -17q20 -18 20 -45q0 -10 -2 -21t-10 -22l-647 -880h631q23 0 42 -17.5t19 -40.5t-17.5 -40t-39.5 -17h-741q-20 0 -41 16q-23 18 -23 47z" />
<glyph unicode="{" horiz-adv-x="780" d="M51 608q0 25 17.5 42.5t42.5 17.5q113 0 165 59t52 162v440q0 104 26.5 181t73.5 127.5t111.5 75t142.5 24.5q23 0 39 -16.5t16 -39.5t-16 -39t-39 -16q-117 0 -174 -73.5t-57 -237.5v-447q0 -86 -44.5 -159.5t-134.5 -100.5q90 -27 134.5 -100.5t44.5 -159.5v-446 q0 -164 57 -238t174 -74q23 0 39 -16t16 -39t-16 -39t-39 -16q-78 0 -142.5 24.5t-111.5 74.5t-73.5 127t-26.5 181v441q0 102 -52.5 161.5t-164.5 59.5q-25 0 -42.5 17t-17.5 42z" />
<glyph unicode="|" horiz-adv-x="491" d="M184 -459v2134q0 27 17.5 44.5t44.5 17.5t44 -17.5t17 -44.5v-2134q0 -27 -17.5 -44t-43.5 -17q-27 0 -44.5 17.5t-17.5 43.5z" />
<glyph unicode="}" horiz-adv-x="780" d="M43 -465q0 23 16.5 39t38.5 16q117 0 174.5 74t57.5 238v446q0 86 44 160t134 100q-90 27 -134 100.5t-44 159.5v447q0 164 -57.5 237.5t-174.5 73.5q-23 0 -39 16.5t-16 38.5q0 23 16.5 39.5t38.5 16.5q78 0 142.5 -24.5t111.5 -75t74 -127t27 -181.5v-440 q0 -102 52 -161.5t165 -59.5q25 0 42 -17.5t17 -42.5t-17.5 -42t-41.5 -17q-113 0 -165 -59.5t-52 -161.5v-441q0 -104 -27 -181t-74 -127t-111.5 -74.5t-142.5 -24.5q-23 0 -39 16.5t-16 38.5z" />
<glyph unicode="~" d="M43 553q0 14 10 33q31 51 72 91t90 67.5t102.5 42t106.5 14.5q119 0 195.5 -38t142.5 -95q55 -49 107.5 -74t131.5 -25q102 0 172 47.5t111 106.5q18 25 45 25q23 0 38 -15.5t15 -38.5q0 -14 -10 -32q-31 -51 -71.5 -91.5t-90 -68t-102.5 -42t-107 -14.5 q-113 0 -189 41.5t-146 102.5q-51 45 -106.5 66.5t-135.5 21.5q-102 0 -172 -47t-111 -107q-18 -25 -45 -24q-23 0 -38 15t-15 38z" />
<glyph unicode="&#xa1;" horiz-adv-x="765" d="M258 1364q0 51 37 88t88 37t88 -37t37 -88t-37 -88t-88 -37t-88 37t-37 88zM309 78q0 6 1 49t3 107.5t4 144.5t5 162q6 193 14 432q0 23 14.5 37t36.5 14q23 0 37 -14t14 -37q6 -240 13 -432q2 -82 5 -162t5 -144.5t3 -107.5t1 -49q0 -33 -22.5 -55.5t-55.5 -22.5 t-55.5 22.5t-22.5 55.5z" />
<glyph unicode="&#xa2;" horiz-adv-x="1114" d="M133 549q0 131 38 235.5t101.5 176t148.5 110.5t179 39q76 0 137.5 -20.5t107.5 -54.5t78.5 -78t51.5 -91q8 -23 8 -43q0 -25 -15.5 -42t-41.5 -17q-45 0 -62 45q-33 80 -93 133t-171 53q-72 0 -134.5 -30.5t-108.5 -87t-72.5 -138.5t-26.5 -186q0 -106 26.5 -189 t72.5 -140.5t108.5 -88.5t134.5 -31q109 0 173.5 51.5t96.5 123.5q14 33 28.5 44t33.5 11q27 0 42 -16.5t15 -43.5q0 -10 -2 -20t-6 -21q-39 -100 -136 -171.5t-245 -71.5q-98 0 -183 39t-147.5 111.5t-99.5 176t-37 232.5zM537 -217v1542q0 23 17 40t40 17t40 -17t17 -40 v-1542q0 -23 -17.5 -40t-39.5 -17q-23 0 -40 17t-17 40z" />
<glyph unicode="&#xa3;" horiz-adv-x="1275" d="M164 731q0 27 17.5 44.5t43.5 17.5h99q-18 63 -34 128.5t-16 137.5q0 92 29 172t80 140.5t124 95t163 34.5q66 0 118 -15.5t93 -42t72.5 -62t58.5 -76.5q10 -14 12 -24.5t2 -18.5q0 -23 -14.5 -43.5t-42.5 -20.5q-16 0 -29.5 9.5t-21.5 19.5q-23 35 -45.5 63.5t-51 50 t-65.5 33.5t-86 12q-55 0 -102.5 -21.5t-82 -63t-55 -102t-20.5 -140.5q0 -72 17 -136.5t38 -129.5h274q27 0 44.5 -17.5t17.5 -44.5t-17.5 -44t-44.5 -17h-241q8 -39 13 -79t5 -87q0 -96 -33.5 -195.5t-120.5 -165.5q31 14 55.5 24.5t47 16.5t44 8.5t48.5 2.5 q47 0 88 -13.5t80 -27.5q45 -16 85 -30.5t79 -14.5q47 0 85 22.5t89 63.5q8 6 17.5 9t15.5 3q27 0 44 -17.5t17 -44.5q0 -31 -27 -55q-55 -49 -111 -75.5t-142 -26.5q-41 0 -83 11t-81 26q-47 16 -93.5 29.5t-101.5 13.5q-39 0 -68.5 -5.5t-54 -12.5t-47 -15t-47.5 -15 q-29 -8 -43 -14t-31 -6q-23 0 -40 17.5t-17 39.5q0 10 4 21.5t19 25.5q43 43 78.5 84t61 87.5t39 102.5t13.5 132q0 41 -7 80t-18 80h-135q-27 0 -44 17.5t-17 43.5z" />
<glyph unicode="&#xa4;" horiz-adv-x="1519" d="M311 549q0 74 22.5 141.5t63.5 122.5l-59 61q-23 23 -23 56q0 31 23 53q23 23 55 23q33 0 53 -23l58 -63q53 37 117.5 57t136.5 20t135 -20.5t119 -56.5l57 63q20 23 53 23t56 -23t22 -53q0 -33 -22 -56l-58 -57q41 -55 64.5 -122.5t23.5 -143.5t-22.5 -143.5 t-63.5 -122.5l56 -56q23 -23 22 -55q0 -31 -22 -53q-23 -23 -56 -23t-53 23l-55 59q-55 -37 -120 -57.5t-136 -20.5q-141 0 -256 80l-56 -61q-20 -23 -53 -23t-55 23q-23 23 -23 53q0 33 23 55l57 58q-41 55 -62.5 121.5t-21.5 140.5zM451 551q0 -68 22.5 -126t63.5 -102 t97 -69t124 -25t125 25t98 69t64.5 102t23.5 126t-23.5 126t-64.5 102t-98.5 68.5t-124.5 24.5q-68 0 -124 -25.5t-97 -68.5t-63.5 -101.5t-22.5 -125.5z" />
<glyph unicode="&#xa5;" horiz-adv-x="1288" d="M111 1409q0 29 20.5 50.5t46.5 21.5q18 0 33.5 -9.5t26.5 -23.5l407 -664l412 664q20 33 55 33q29 0 47.5 -20.5t18.5 -49.5q0 -20 -15 -41l-409 -659h213q23 0 40 -17.5t17 -40.5t-17.5 -40t-39.5 -17h-256v-154h256q23 0 40 -17t17 -40t-17.5 -40t-39.5 -17h-256v-262 q0 -29 -19.5 -47.5t-48.5 -18.5t-47 18.5t-18 47.5v262h-259q-23 0 -40 17t-17 40t17.5 40t39.5 17h259v154h-259q-23 0 -40 17.5t-17 39.5q0 23 17.5 40.5t39.5 17.5h216l-412 659q-12 18 -12 39z" />
<glyph unicode="&#xa6;" horiz-adv-x="450" d="M164 -162v584q0 27 17.5 44t43.5 17q27 0 44.5 -17t17.5 -44v-584q0 -27 -17.5 -44t-44.5 -17t-44 17.5t-17 43.5zM164 1034v586q0 27 17.5 44t43.5 17q27 0 44.5 -17t17.5 -44v-586q0 -27 -17.5 -44t-44.5 -17t-44 17.5t-17 43.5z" />
<glyph unicode="&#xa7;" horiz-adv-x="1372" d="M279 707q0 86 48 147t130 90q-49 47 -84 107.5t-35 138.5q0 74 29.5 132t78 98t108.5 60.5t122 20.5q68 0 119 -17.5t89 -44t63.5 -59t37.5 -65.5q4 -8 7 -18.5t3 -20.5q0 -23 -14 -41t-43 -18q-14 0 -29.5 7t-25.5 27q-63 137 -207 138q-92 0 -152.5 -52.5t-60.5 -146.5 q0 -74 52 -124t126 -79l246 -94q98 -37 153.5 -101.5t55.5 -168.5q0 -55 -17.5 -97.5t-45 -71t-63.5 -46t-71 -25.5q53 -33 95 -98.5t42 -161.5q0 -78 -25.5 -135.5t-69.5 -97.5t-101.5 -59t-120.5 -19q-66 0 -118 17t-92 44t-67.5 59.5t-44.5 65.5q-10 16 -10 39 q0 27 17.5 44t44.5 17q14 0 30.5 -7t26.5 -30q35 -70 89 -103.5t124 -33.5q96 0 144 52.5t48 146.5q0 86 -54 137t-163 96l-241 101q-92 37 -133 107.5t-41 142.5zM399 713q0 -53 28 -91t105 -69l259 -102q78 10 129 50.5t51 112.5q0 59 -36 104.5t-128 78.5l-250 88 q-68 -16 -113 -61.5t-45 -110.5z" />
<glyph unicode="&#xa8;" horiz-adv-x="886" d="M98 1432q0 51 37 87.5t88 36.5t88 -36.5t37 -87.5t-37 -88t-88 -37t-88 36.5t-37 88.5zM539 1432q0 51 36.5 87.5t88.5 36.5q51 0 87.5 -36.5t36.5 -87.5t-36.5 -88t-87.5 -37t-88 36.5t-37 88.5z" />
<glyph unicode="&#xa9;" horiz-adv-x="1777" d="M143 741q0 156 58.5 295.5t160 242.5t237.5 163.5t290 60.5t289 -60.5t236.5 -163.5t160.5 -242.5t59 -295.5q0 -158 -59 -296t-160.5 -241.5t-237 -163.5t-288.5 -60q-154 0 -290 60t-237.5 163.5t-160 242t-58.5 295.5zM254 741q0 -137 51 -256.5t138 -209t202 -140.5 t244 -51t243.5 51t201.5 140.5t138.5 209t51.5 256.5t-51.5 257t-138.5 208t-201.5 139.5t-243.5 51.5t-244 -51.5t-202 -139.5t-138 -207.5t-51 -257.5zM516 741q0 80 31 151t84 123t124.5 82.5t155.5 30.5q111 0 182.5 -43t118.5 -116q12 -18 13 -37q0 -55 -54 -55 q-35 0 -49 26q-31 53 -82 86t-129 33q-57 0 -107 -20.5t-88 -57.5t-59.5 -88t-21.5 -115q0 -127 76.5 -204.5t197.5 -77.5q66 0 122 26.5t97 96.5q14 27 43 26q25 0 41.5 -14t16.5 -41q0 -20 -12 -39q-61 -94 -138.5 -127t-173.5 -33q-72 0 -141.5 28t-124.5 78t-89 121.5 t-34 159.5z" />
<glyph unicode="&#xaa;" horiz-adv-x="829" d="M100 1155q0 78 22.5 141.5t61.5 107.5t93 68.5t118 24.5q59 0 107.5 -24.5t76.5 -61.5v33q0 20 13.5 33.5t35.5 13.5q20 0 36 -13.5t16 -33.5v-576q0 -20 -15.5 -34.5t-36.5 -14.5q-23 0 -36 14.5t-13 34.5v33q-29 -39 -75 -63.5t-109 -24.5q-131 0 -213 92t-82 250z M200 1153q0 -117 53.5 -182.5t143.5 -65.5q74 0 128 63.5t54 180.5q0 119 -53 188.5t-129 69.5q-88 0 -142.5 -66.5t-54.5 -187.5z" />
<glyph unicode="&#xab;" horiz-adv-x="1099" d="M123 549q0 29 18 51l353 479q12 16 32 17q16 0 28.5 -12.5t12.5 -28.5q0 -12 -10 -29l-268 -477l268 -477q10 -16 10 -29q0 -16 -12 -28.5t-29 -12.5q-20 0 -32 16l-353 480q-18 22 -18 51zM537 549q0 29 18 51l352 479q12 16 33 17q16 0 28.5 -12.5t12.5 -28.5 q0 -12 -10 -29l-269 -477l269 -477q10 -16 10 -29q0 -16 -12.5 -28.5t-28.5 -12.5q-20 0 -33 16l-352 480q-18 22 -18 51z" />
<glyph unicode="&#xac;" d="M119 563q0 23 17.5 40.5t39.5 17.5h1051q27 0 44 -18.5t17 -45.5v-379q0 -27 -17.5 -44t-43.5 -17q-27 0 -45.5 17.5t-18.5 43.5v328h-987q-23 0 -40 17.5t-17 39.5z" />
<glyph unicode="&#xad;" horiz-adv-x="993" d="M215 563q0 25 17.5 42.5t41.5 17.5h445q25 0 42 -17.5t17 -42.5t-17.5 -42t-41.5 -17h-445q-25 0 -42 17.5t-17 41.5z" />
<glyph unicode="&#xae;" horiz-adv-x="1777" d="M143 741q0 156 58.5 295.5t160 242.5t237.5 163.5t290 60.5t289 -60.5t236.5 -163.5t160.5 -242.5t59 -295.5q0 -158 -59 -296t-160.5 -241.5t-237 -163.5t-288.5 -60q-154 0 -290 60t-237.5 163.5t-160 242t-58.5 295.5zM254 741q0 -137 51 -256.5t138 -209t202 -140.5 t244 -51t243.5 51t201.5 140.5t138.5 209t51.5 256.5t-51.5 257t-138.5 208t-201.5 139.5t-243.5 51.5t-244 -51.5t-202 -139.5t-138 -207.5t-51 -257.5zM578 391v684q0 23 15 38t38 15h323q68 0 125.5 -21.5t96.5 -64.5q25 -29 41 -65.5t16 -81.5q0 -109 -64 -166 q-53 -51 -143 -63l180 -240q4 -8 8.5 -17.5t4.5 -17.5q0 -23 -14.5 -37t-37.5 -14q-12 0 -22 6t-19 14l-223 299h-221v-268q0 -23 -15.5 -37t-35.5 -14q-23 0 -38 14.5t-15 36.5zM682 756h272q53 0 87 11t51 28q37 33 36 100q0 51 -30 84q-47 51 -144 51h-272v-274z" />
<glyph unicode="&#xaf;" horiz-adv-x="913" d="M109 1442q0 23 17 40t40 17h582q23 0 40 -17.5t17 -39.5q0 -23 -17.5 -40.5t-39.5 -17.5h-582q-23 0 -40 17.5t-17 40.5z" />
<glyph unicode="&#xb0;" horiz-adv-x="919" d="M113 1165q0 70 27.5 131.5t75.5 107.5t110.5 71.5t132.5 25.5t133 -25.5t110.5 -70.5t76 -106.5t28.5 -133.5t-28.5 -133t-76 -106t-111 -71t-132.5 -26q-70 0 -132.5 26t-110.5 71t-75.5 106.5t-27.5 132.5zM223 1165q0 -49 18.5 -91t51.5 -74.5t75 -51t91 -18.5 t91 18.5t74.5 51t51 74.5t18.5 91t-18.5 91t-51 75t-74.5 51.5t-91 18.5t-91 -18.5t-75 -51.5t-51.5 -75t-18.5 -91z" />
<glyph unicode="&#xb1;" d="M174 61q0 27 17.5 44.5t44.5 17.5h954q27 0 44 -17.5t17 -44.5t-17 -44t-44 -17h-954q-27 0 -44.5 17.5t-17.5 43.5zM174 700q0 27 17.5 44.5t44.5 17.5h411v311q0 29 18.5 47.5t47.5 18.5t47 -18.5t18 -47.5v-311h412q27 0 44 -17.5t17 -44.5t-17 -44t-44 -17h-412v-309 q0 -29 -18.5 -47.5t-46.5 -18.5q-29 0 -47.5 18.5t-18.5 47.5v309h-411q-27 0 -44.5 17.5t-17.5 43.5z" />
<glyph unicode="&#xb2;" horiz-adv-x="833" d="M131 625v17t2 24q8 94 73.5 177t199.5 161q92 53 137 100t45 123q0 66 -40 112.5t-112 46.5q-82 0 -128 -48t-60 -132q-4 -16 -17.5 -29.5t-31.5 -13.5q-23 0 -37.5 14.5t-14.5 36.5q0 4 1.5 14.5t3.5 16.5q8 49 31.5 92t60.5 75t85 51.5t107 19.5q63 0 110.5 -22.5 t79 -58.5t48 -82t16.5 -93q0 -59 -14 -102.5t-44 -78t-75 -66.5t-106 -65q-61 -35 -101.5 -65.5t-65 -60t-34.5 -59.5t-14 -60h419q20 0 35 -14.5t15 -32.5q0 -20 -14.5 -35t-35.5 -15h-473q-23 0 -37 14.5t-14 37.5z" />
<glyph unicode="&#xb3;" horiz-adv-x="804" d="M82 682q0 18 14.5 32.5t32.5 14.5q10 0 18.5 -4t16.5 -8q35 -18 93 -39t128 -21q111 0 162 52.5t51 126.5q0 76 -65.5 123t-192.5 47q-20 0 -34.5 14t-14.5 35q0 23 14 36t35 13q113 0 163 38t50 93q0 59 -47 105t-148 46q-43 0 -80.5 -12t-72.5 -33q-16 -10 -37 -10 q-20 0 -35.5 12.5t-15.5 34.5q0 29 37 49q43 25 94 40.5t110 15.5q68 0 122.5 -19.5t93 -52.5t60 -79t21.5 -97q0 -123 -112 -174q66 -27 111.5 -83t45.5 -142q0 -125 -84 -200t-231 -75q-78 0 -143.5 20.5t-124.5 51.5q-35 16 -35 49z" />
<glyph unicode="&#xb4;" horiz-adv-x="585" d="M78 1270q0 16 14 30l285 359q18 25 53 24q33 0 55.5 -22t22.5 -55q0 -23 -10.5 -37.5t-20.5 -24.5l-334 -307q-12 -8 -24 -8q-16 0 -28.5 12t-12.5 29z" />
<glyph unicode="&#xb5;" horiz-adv-x="1294" d="M215 -319v1357q0 27 17.5 44.5t43.5 17.5q27 0 45.5 -17.5t18.5 -44.5v-624q0 -45 7 -91.5t22 -76.5q59 -139 243 -140q109 0 179.5 40t107.5 87q33 41 44 95.5t11 120.5v589q0 27 17.5 44.5t44.5 17.5t45 -17.5t18 -44.5v-975q0 -27 -18.5 -45t-44.5 -18 q-27 0 -44.5 18.5t-17.5 44.5v82q-57 -66 -145 -110.5t-207 -44.5q-90 0 -157.5 23.5t-114.5 66.5l10 -399q0 -27 -18.5 -44.5t-45.5 -17.5t-44 17.5t-17 44.5z" />
<glyph unicode="&#xb6;" horiz-adv-x="1464" d="M113 1098q0 74 29.5 138t78.5 112q66 66 162 99.5t207 33.5h524q23 0 40 -17.5t17 -40.5v-1362q0 -23 -17 -40t-40 -17t-40 17.5t-17 39.5v1315h-301v-1315q0 -23 -17.5 -40t-40.5 -17t-40 17.5t-17 39.5v646q-160 2 -256 28.5t-160 83.5q-53 47 -82.5 117t-29.5 162z " />
<glyph unicode="&#xb7;" horiz-adv-x="634" d="M184 729q0 55 39 94t94 39t94.5 -39t39.5 -94t-39 -94t-95 -39q-55 0 -94 39t-39 94z" />
<glyph unicode="&#xb8;" horiz-adv-x="509" d="M41 -322q0 18 13.5 32t31.5 14q10 0 23 -7q37 -20 66.5 -34.5t76.5 -14.5q106 0 106 94q0 45 -24.5 65.5t-59.5 20.5q-31 0 -47 -6t-26 -6q-8 0 -16.5 6t-8.5 23v180h62v-135q37 12 71 12q68 0 111 -48t43 -114q0 -80 -51 -125q-27 -23 -65 -38t-89 -15q-59 0 -99 14.5 t-85 36.5q-12 6 -22.5 17.5t-10.5 27.5z" />
<glyph unicode="&#xb9;" horiz-adv-x="737" d="M98 1219q0 20 21 38l284 205q6 6 13.5 7t15.5 1h31q20 0 35.5 -14t15.5 -37v-794q0 -23 -15.5 -37.5t-35.5 -14.5q-23 0 -37 14.5t-14 37.5v725l-240 -172q-16 -8 -27 -9q-27 0 -39 23q-8 16 -8 27z" />
<glyph unicode="&#xba;" horiz-adv-x="780" d="M100 1155q0 78 22.5 141.5t61.5 107.5t91 68.5t114 24.5q61 0 113.5 -24.5t92.5 -68.5t62.5 -107.5t22.5 -141.5t-22.5 -141.5t-62.5 -107.5t-93.5 -68.5t-114.5 -24.5t-113.5 23.5t-90.5 68.5t-60.5 108.5t-22.5 141.5zM200 1157q0 -119 52.5 -185.5t136.5 -66.5 q82 0 136 66.5t54 185.5q0 117 -54 183.5t-136 66.5q-84 0 -136.5 -66.5t-52.5 -183.5z" />
<glyph unicode="&#xbb;" horiz-adv-x="1099" d="M119 43q0 12 10 29l268 477l-268 477q-10 16 -10 29q0 16 12 28.5t29 12.5q20 0 33 -17l352 -479q18 -22 18 -51t-18 -51l-352 -480q-12 -16 -33 -16q-16 0 -28.5 12.5t-12.5 28.5zM532 43q0 12 11 29l268 477l-268 477q-10 16 -11 29q0 16 12.5 28.5t28.5 12.5 q20 0 33 -17l352 -479q19 -22 19 -51t-19 -51l-352 -480q-12 -16 -33 -16q-16 0 -28.5 12.5t-12.5 28.5z" />
<glyph unicode="&#xbc;" horiz-adv-x="1939" d="M98 1233q0 20 20 39l285 205q6 6 13 7t16 1h30q20 0 36 -14t16 -37v-795q0 -23 -15.5 -37t-36.5 -14q-23 0 -37 14.5t-14 36.5v725l-239 -172q-16 -8 -27 -8q-27 0 -39 23q-8 16 -8 26zM506 -184q0 12 6 24l822 1827q16 27 45 27q12 0 24 -6q27 -16 27 -46q0 -16 -4 -24 l-821 -1827q-16 -27 -48 -27q-12 0 -24 7q-27 16 -27 45zM1235 275v16q0 8 1 14t5 15l365 571q8 10 33 10h39q23 0 37 -14t14 -37v-528h67q20 0 34 -13.5t14 -33.5t-13.5 -35t-34.5 -15h-67v-170q0 -23 -14.5 -37t-36.5 -14q-23 0 -37.5 14.5t-14.5 36.5v170h-344 q-20 0 -33.5 14.5t-13.5 35.5zM1354 322h272v442z" />
<glyph unicode="&#xbd;" horiz-adv-x="2054" d="M98 1233q0 20 20 39l285 205q6 6 13 7t16 1h30q20 0 36 -14t16 -37v-795q0 -23 -15.5 -37t-36.5 -14q-23 0 -37 14.5t-14 36.5v725l-239 -172q-16 -8 -27 -8q-27 0 -39 23q-8 16 -8 26zM504 -184q0 12 6 24l822 1827q16 27 45 27q12 0 24 -6q27 -16 27 -46q0 -16 -4 -24 l-821 -1827q-16 -27 -48 -27q-12 0 -24 7q-27 16 -27 45zM1352 55v17.5t2 23.5q8 94 73.5 177t198.5 161q92 53 137 100.5t45 123.5q0 66 -39.5 112.5t-111.5 46.5q-82 0 -128 -48t-61 -132q-4 -16 -17 -29.5t-32 -13.5q-23 0 -37 14.5t-14 36.5q0 4 1 14.5t3 16.5 q8 49 32 92t60.5 75t84.5 51.5t108 19.5q63 0 110.5 -23t79 -58.5t48 -81.5t16.5 -93q0 -59 -14.5 -102.5t-44 -78.5t-74.5 -66.5t-107 -64.5q-61 -35 -101 -65.5t-64.5 -60t-35 -59.5t-14.5 -61h420q20 0 34.5 -14t14.5 -33q0 -20 -14 -34.5t-35 -14.5h-473q-23 0 -37 14.5 t-14 36.5z" />
<glyph unicode="&#xbe;" horiz-adv-x="2011" d="M82 697q0 18 14.5 32.5t32.5 14.5q10 0 18.5 -4t16.5 -8q35 -18 93.5 -39t127.5 -21q111 0 162 52.5t51 125.5q0 76 -65.5 123t-192.5 47q-20 0 -34.5 14.5t-14.5 34.5q0 23 14.5 36.5t34.5 13.5q113 0 163 37.5t50 93.5q0 59 -47 105t-147 46q-43 0 -81 -12t-73 -33 q-16 -10 -37 -10q-20 0 -35.5 12.5t-15.5 34.5q0 29 37 49q43 25 94 40.5t111 15.5q68 0 122 -19.5t93 -52.5t60.5 -79t21.5 -97q0 -123 -113 -174q66 -27 112 -83.5t46 -142.5q0 -125 -84 -199.5t-232 -74.5q-78 0 -143 20.5t-125 51.5q-35 16 -35 49zM573 -184q0 12 6 24 l822 1827q16 27 45 27q12 0 24 -6q27 -16 27 -46q0 -16 -4 -24l-821 -1827q-16 -27 -48 -27q-12 0 -24 7q-27 16 -27 45zM1306 275v16q0 8 1 14t5 15l365 571q8 10 33 10h39q23 0 37 -14t14 -37v-528h67q20 0 34 -13.5t14 -33.5t-13.5 -35t-34.5 -15h-67v-170 q0 -23 -14.5 -37t-36.5 -14q-23 0 -37.5 14.5t-14.5 36.5v170h-344q-20 0 -33.5 14.5t-13.5 35.5zM1425 322h272v442z" />
<glyph unicode="&#xbf;" horiz-adv-x="1169" d="M164 367q0 102 44 167.5t120 122.5l133 101q18 14 34.5 27.5t28 28.5t17.5 35.5t6 49.5v90q0 27 17.5 44.5t43.5 17.5q27 0 44.5 -17.5t17.5 -44.5v-102q0 -72 -31 -119t-90 -92l-129 -96q-31 -23 -54.5 -43.5t-39 -44t-22.5 -53t-7 -70.5q0 -43 17.5 -88t52 -83 t89 -62.5t126.5 -24.5q70 0 124 20.5t92 56t58.5 81.5t24.5 96q2 27 21.5 44t45.5 17q29 0 47.5 -19.5t18.5 -46.5q-2 -78 -37 -145.5t-94.5 -116.5t-137 -77.5t-163.5 -28.5q-98 0 -175 31.5t-131.5 84t-83 120t-28.5 139.5zM473 1360q0 55 39 94t94 39t94 -39t39 -94 t-38.5 -94t-94.5 -39q-55 0 -94 39t-39 94z" />
<glyph unicode="&#xc0;" horiz-adv-x="1265" d="M27 63v12.5t4 16.5l532 1352q14 37 58 37h30q45 0 60 -37l526 -1346q6 -16 6 -30q0 -18 -10 -35t-29 -27q-12 -6 -28 -6q-23 0 -39.5 12.5t-24.5 30.5l-131 338h-700l-131 -342q-14 -39 -60 -39q-14 0 -27 6q-37 16 -36 57zM328 500h608l-303 788zM387 1878 q0 35 20.5 55.5t49.5 20.5q37 0 65 -21l328 -223q10 -8 18 -16t8 -25q0 -16 -10 -26.5t-26 -10.5h-11.5t-11.5 2l-369 166q-29 14 -45 31.5t-16 46.5z" />
<glyph unicode="&#xc1;" horiz-adv-x="1265" d="M27 63v12.5t4 16.5l532 1352q14 37 58 37h30q45 0 60 -37l526 -1346q6 -16 6 -30q0 -18 -10 -35t-29 -27q-12 -6 -28 -6q-23 0 -39.5 12.5t-24.5 30.5l-131 338h-700l-131 -342q-14 -39 -60 -39q-14 0 -27 6q-37 16 -36 57zM328 500h608l-303 788zM391 1669q0 16 8 24.5 t19 16.5l327 223q29 20 66 21q29 0 49 -20.5t20 -55.5q0 -29 -16 -46t-45 -32l-369 -166q-4 -2 -11 -2h-11q-16 0 -26.5 10.5t-10.5 26.5z" />
<glyph unicode="&#xc2;" horiz-adv-x="1265" d="M27 63v12.5t4 16.5l532 1352q14 37 58 37h30q45 0 60 -37l526 -1346q6 -16 6 -30q0 -18 -10 -35t-29 -27q-12 -6 -28 -6q-23 0 -39.5 12.5t-24.5 30.5l-131 338h-700l-131 -342q-14 -39 -60 -39q-14 0 -27 6q-37 16 -36 57zM272 1663q0 18 18 33l287 246q12 10 25.5 17 t29.5 7t29.5 -7t26.5 -15l286 -248q18 -14 19 -33q0 -16 -9.5 -26.5t-25.5 -10.5q-8 0 -17.5 1t-13.5 5l-295 183l-294 -181q-12 -8 -31 -8q-16 0 -25.5 10.5t-9.5 26.5zM328 500h608l-303 788z" />
<glyph unicode="&#xc3;" horiz-adv-x="1265" d="M27 63v12.5t4 16.5l532 1352q14 37 58 37h30q45 0 60 -37l526 -1346q6 -16 6 -30q0 -18 -10 -35t-29 -27q-12 -6 -28 -6q-23 0 -39.5 12.5t-24.5 30.5l-131 338h-700l-131 -342q-14 -39 -60 -39q-14 0 -27 6q-37 16 -36 57zM244 1714q0 8 1 16.5t3 18.5q4 16 17.5 48 t40 64.5t70.5 56.5t109 24q66 0 112 -30t77 -65t57.5 -52t65.5 -17t70.5 23.5t48.5 101.5q4 25 22.5 33t30.5 8q23 0 38 -15.5t15 -38.5q0 -8 -1 -19t-3 -22q-2 -16 -14.5 -46.5t-39 -61.5t-67.5 -54.5t-102 -23.5q-72 0 -120 27.5t-83 64.5q-29 31 -56.5 51.5t-66.5 20.5 q-33 0 -68.5 -26.5t-50.5 -98.5q-4 -25 -22.5 -33t-30.5 -8q-23 0 -38 15.5t-15 37.5zM328 500h608l-303 788z" />
<glyph unicode="&#xc4;" horiz-adv-x="1265" d="M27 63v12.5t4 16.5l532 1352q14 37 58 37h30q45 0 60 -37l526 -1346q6 -16 6 -30q0 -18 -10 -35t-29 -27q-12 -6 -28 -6q-23 0 -39.5 12.5t-24.5 30.5l-131 338h-700l-131 -342q-14 -39 -60 -39q-14 0 -27 6q-37 16 -36 57zM286 1802q0 51 37 88t88 37t88 -37t37 -88 t-37 -88t-88 -37t-88 37t-37 88zM328 500h608l-303 788zM727 1802q0 51 36.5 88t88.5 37q51 0 87.5 -37t36.5 -88t-36.5 -88t-87.5 -37t-88 37t-37 88z" />
<glyph unicode="&#xc5;" horiz-adv-x="1265" d="M27 63v12.5t4 16.5l532 1352q14 37 58 37h30q45 0 60 -37l526 -1346q6 -16 6 -30q0 -18 -10 -35t-29 -27q-12 -6 -28 -6q-23 0 -39.5 12.5t-24.5 30.5l-131 338h-700l-131 -342q-14 -39 -60 -39q-14 0 -27 6q-37 16 -36 57zM328 500h608l-303 788zM356 1802 q0 55 23 104.5t59.5 85.5t87 56t105.5 20t105.5 -20t88 -56t60 -84.5t22.5 -105.5t-22.5 -105t-60 -84t-88 -56.5t-105.5 -20.5t-105.5 20.5t-87 56.5t-59.5 84t-23 105zM445 1802q0 -78 54 -132t132 -54t132 54t54 132t-54 132.5t-132 54.5t-132 -54.5t-54 -132.5z" />
<glyph unicode="&#xc6;" horiz-adv-x="1671" d="M100 63q0 14 6 27l668 1354q16 37 57 37h658q27 0 44 -17.5t17 -44.5t-17 -44t-44 -17h-514v-555h381q27 0 44 -17.5t17 -44.5t-17.5 -44t-43.5 -17h-381v-557h514q27 0 44 -17.5t17 -44.5t-17 -44t-44 -17h-582q-29 0 -47 18.5t-18 47.5v315h-453l-166 -342 q-20 -39 -61 -39q-12 0 -25 6q-37 16 -37 57zM449 500h393v803z" />
<glyph unicode="&#xc7;" horiz-adv-x="1456" d="M151 739q0 172 44 312.5t126 240t197 154.5t254 55q98 0 177 -25.5t140.5 -67.5t106.5 -95t74 -109q10 -18 17 -36.5t7 -37.5q0 -25 -13 -44t-42 -19q-25 0 -39 15.5t-23 31.5q-55 123 -155 193.5t-250 70.5q-111 0 -201 -46t-153.5 -130t-98 -201.5t-34.5 -261.5 q0 -145 34.5 -263t97 -200.5t151.5 -129t200 -46.5q150 0 241 69t156 202q20 45 60 45q29 0 45 -20.5t16 -45.5q0 -14 -5 -25.5t-9 -21.5q-33 -66 -79 -125t-108.5 -103t-140.5 -69.5t-172 -25.5q-139 0 -254 54t-197 154.5t-126 239.5t-44 311zM565 -322q0 18 13.5 32 t31.5 14q10 0 23 -7q37 -20 66.5 -34.5t76.5 -14.5q106 0 106 94q0 45 -24.5 65.5t-59.5 20.5q-31 0 -47 -6t-26 -6q-8 0 -16.5 6t-8.5 23v180h62v-135q37 12 71 12q68 0 111 -48t43 -114q0 -80 -51 -125q-27 -23 -65 -38t-89 -15q-59 0 -99 14.5t-85 36.5q-12 6 -22.5 17.5 t-10.5 27.5z" />
<glyph unicode="&#xc8;" horiz-adv-x="1323" d="M238 66v1347q0 29 18 48.5t47 19.5h854q27 0 44.5 -17.5t17.5 -44.5t-17.5 -44t-44.5 -17h-786v-555h540q27 0 44.5 -17.5t17.5 -44.5t-17.5 -44t-44.5 -17h-540v-557h786q27 0 44.5 -17.5t17.5 -44.5t-17.5 -44t-44.5 -17h-854q-29 0 -47 18.5t-18 47.5zM455 1878 q0 35 20.5 55.5t49.5 20.5q37 0 65 -21l328 -223q10 -8 18 -16t8 -25q0 -16 -10 -26.5t-26 -10.5h-11.5t-11.5 2l-369 166q-29 14 -45 31.5t-16 46.5z" />
<glyph unicode="&#xc9;" horiz-adv-x="1323" d="M238 66v1347q0 29 18 48.5t47 19.5h854q27 0 44.5 -17.5t17.5 -44.5t-17.5 -44t-44.5 -17h-786v-555h540q27 0 44.5 -17.5t17.5 -44.5t-17.5 -44t-44.5 -17h-540v-557h786q27 0 44.5 -17.5t17.5 -44.5t-17.5 -44t-44.5 -17h-854q-29 0 -47 18.5t-18 47.5zM500 1669 q0 16 8 24.5t19 16.5l327 223q29 20 66 21q29 0 49 -20.5t20 -55.5q0 -29 -16 -46t-45 -32l-369 -166q-4 -2 -11 -2h-11q-16 0 -26.5 10.5t-10.5 26.5z" />
<glyph unicode="&#xca;" horiz-adv-x="1323" d="M238 66v1347q0 29 18 48.5t47 19.5h854q27 0 44.5 -17.5t17.5 -44.5t-17.5 -44t-44.5 -17h-786v-555h540q27 0 44.5 -17.5t17.5 -44.5t-17.5 -44t-44.5 -17h-540v-557h786q27 0 44.5 -17.5t17.5 -44.5t-17.5 -44t-44.5 -17h-854q-29 0 -47 18.5t-18 47.5zM375 1663 q0 18 18 33l287 246q12 10 25.5 17t29.5 7t29.5 -7t26.5 -15l286 -248q18 -14 19 -33q0 -16 -9.5 -26.5t-25.5 -10.5q-8 0 -17.5 1t-13.5 5l-295 183l-294 -181q-12 -8 -31 -8q-16 0 -25.5 10.5t-9.5 26.5z" />
<glyph unicode="&#xcb;" horiz-adv-x="1323" d="M238 66v1347q0 29 18 48.5t47 19.5h854q27 0 44.5 -17.5t17.5 -44.5t-17.5 -44t-44.5 -17h-786v-555h540q27 0 44.5 -17.5t17.5 -44.5t-17.5 -44t-44.5 -17h-540v-557h786q27 0 44.5 -17.5t17.5 -44.5t-17.5 -44t-44.5 -17h-854q-29 0 -47 18.5t-18 47.5zM397 1802 q0 51 37 88t88 37t88 -37t37 -88t-37 -88t-88 -37t-88 37t-37 88zM838 1802q0 51 36.5 88t88.5 37q51 0 87.5 -37t36.5 -88t-36.5 -88t-87.5 -37t-88 37t-37 88z" />
<glyph unicode="&#xcc;" horiz-adv-x="604" d="M59 1878q0 35 20.5 55.5t49.5 20.5q37 0 65 -21l328 -223q10 -8 18 -16t8 -25q0 -16 -10 -26.5t-26 -10.5h-11.5t-11.5 2l-369 166q-29 14 -45 31.5t-16 46.5zM238 66v1347q0 29 18 48.5t47 19.5t48.5 -19.5t19.5 -48.5v-1347q0 -29 -19.5 -47.5t-48.5 -18.5t-47 18.5 t-18 47.5z" />
<glyph unicode="&#xcd;" horiz-adv-x="604" d="M68 1669q0 16 8 24.5t19 16.5l327 223q29 20 66 21q29 0 49 -20.5t20 -55.5q0 -29 -16 -46t-45 -32l-369 -166q-4 -2 -11 -2h-11q-16 0 -26.5 10.5t-10.5 26.5zM238 66v1347q0 29 18 48.5t47 19.5t48.5 -19.5t19.5 -48.5v-1347q0 -29 -19.5 -47.5t-48.5 -18.5t-47 18.5 t-18 47.5z" />
<glyph unicode="&#xce;" horiz-adv-x="604" d="M-59 1663q0 18 18 33l287 246q12 10 25.5 17t29.5 7t29.5 -7t26.5 -15l286 -248q18 -14 19 -33q0 -16 -9.5 -26.5t-25.5 -10.5q-8 0 -17.5 1t-13.5 5l-295 183l-294 -181q-12 -8 -31 -8q-16 0 -25.5 10.5t-9.5 26.5zM238 66v1347q0 29 18 48.5t47 19.5t48.5 -19.5 t19.5 -48.5v-1347q0 -29 -19.5 -47.5t-48.5 -18.5t-47 18.5t-18 47.5z" />
<glyph unicode="&#xcf;" horiz-adv-x="604" d="M-43 1802q0 51 37 88t88 37t88 -37t37 -88t-37 -88t-88 -37t-88 37t-37 88zM238 66v1347q0 29 18 48.5t47 19.5t48.5 -19.5t19.5 -48.5v-1347q0 -29 -19.5 -47.5t-48.5 -18.5t-47 18.5t-18 47.5zM398 1802q0 51 36.5 88t88.5 37q51 0 87.5 -37t36.5 -88t-36.5 -88 t-87.5 -37t-88 37t-37 88z" />
<glyph unicode="&#xd0;" horiz-adv-x="1495" d="M57 778q0 23 17.5 40.5t40.5 17.5h145v542q0 41 29.5 72t70.5 31h316q164 0 276.5 -54.5t194.5 -140.5q92 -98 142 -231.5t50 -313.5t-49 -314t-145 -234q-78 -84 -191.5 -138.5t-277.5 -54.5h-316q-41 0 -70.5 30.5t-29.5 71.5v619h-145q-23 0 -40.5 17.5t-17.5 39.5z M393 123h242q82 0 145.5 12t111.5 33.5t85 50.5t70 64q72 78 115.5 189.5t43.5 268.5q0 147 -44 262t-124 201q-66 70 -151.5 112t-218.5 42h-275v-522h350q23 0 40.5 -17.5t17.5 -40.5t-17.5 -40t-40.5 -17h-350v-598z" />
<glyph unicode="&#xd1;" horiz-adv-x="1511" d="M238 63v1352q0 29 17 47.5t46 18.5h76q29 0 53 -35l690 -1174q35 -51 51 -98h5q-10 57 -11 115v1126q0 29 18.5 47.5t47.5 18.5t48 -18.5t19 -47.5v-1349q0 -29 -19 -47.5t-48 -18.5h-78q-35 0 -53 35l-688 1179q-35 51 -52 99h-4q10 -57 11 -115v-1135q0 -29 -18.5 -46 t-47.5 -17t-46 17.5t-17 45.5zM389 1714q0 8 1 16.5t3 18.5q4 16 17.5 48t40 64.5t70.5 56.5t109 24q66 0 112 -30t77 -65t57.5 -52t65.5 -17t70.5 23.5t48.5 101.5q4 25 22.5 33t30.5 8q23 0 38 -15.5t15 -38.5q0 -8 -1 -19t-3 -22q-2 -16 -14.5 -46.5t-39 -61.5 t-67.5 -54.5t-102 -23.5q-72 0 -120 27.5t-83 64.5q-29 31 -56.5 51.5t-66.5 20.5q-33 0 -68.5 -26.5t-50.5 -98.5q-4 -25 -22.5 -33t-30.5 -8q-23 0 -38 15.5t-15 37.5z" />
<glyph unicode="&#xd2;" horiz-adv-x="1552" d="M145 739q0 172 46.5 312.5t129 240t199.5 154.5t256 55t256 -55t200 -154.5t129 -240t46 -312.5t-46 -311t-129 -239.5t-200 -154.5t-256 -54t-256 54t-199.5 154.5t-129 239.5t-46.5 311zM279 739q0 -145 35.5 -263t101 -200.5t157.5 -129t203 -46.5t203 46.5t157.5 129 t101.5 200.5t36 263q0 143 -36 261t-101.5 202t-157.5 130t-203 46t-203 -46t-157.5 -130t-101 -201.5t-35.5 -261.5zM524 1878q0 35 20.5 55.5t49.5 20.5q37 0 65 -21l328 -223q10 -8 18 -16t8 -25q0 -16 -10 -26.5t-26 -10.5h-11.5t-11.5 2l-369 166q-29 14 -45 31.5 t-16 46.5z" />
<glyph unicode="&#xd3;" horiz-adv-x="1552" d="M145 739q0 172 46.5 312.5t129 240t199.5 154.5t256 55t256 -55t200 -154.5t129 -240t46 -312.5t-46 -311t-129 -239.5t-200 -154.5t-256 -54t-256 54t-199.5 154.5t-129 239.5t-46.5 311zM279 739q0 -145 35.5 -263t101 -200.5t157.5 -129t203 -46.5t203 46.5t157.5 129 t101.5 200.5t36 263q0 143 -36 261t-101.5 202t-157.5 130t-203 46t-203 -46t-157.5 -130t-101 -201.5t-35.5 -261.5zM526 1669q0 16 8 24.5t19 16.5l327 223q29 20 66 21q29 0 49 -20.5t20 -55.5q0 -29 -16 -46t-45 -32l-369 -166q-4 -2 -11 -2h-11q-16 0 -26.5 10.5 t-10.5 26.5z" />
<glyph unicode="&#xd4;" horiz-adv-x="1552" d="M145 739q0 172 46.5 312.5t129 240t199.5 154.5t256 55t256 -55t200 -154.5t129 -240t46 -312.5t-46 -311t-129 -239.5t-200 -154.5t-256 -54t-256 54t-199.5 154.5t-129 239.5t-46.5 311zM279 739q0 -145 35.5 -263t101 -200.5t157.5 -129t203 -46.5t203 46.5t157.5 129 t101.5 200.5t36 263q0 143 -36 261t-101.5 202t-157.5 130t-203 46t-203 -46t-157.5 -130t-101 -201.5t-35.5 -261.5zM410 1663q0 18 18 33l287 246q12 10 25.5 17t29.5 7t29.5 -7t26.5 -15l286 -248q18 -14 19 -33q0 -16 -9.5 -26.5t-25.5 -10.5q-8 0 -17.5 1t-13.5 5 l-295 183l-294 -181q-12 -8 -31 -8q-16 0 -25.5 10.5t-9.5 26.5z" />
<glyph unicode="&#xd5;" horiz-adv-x="1552" d="M145 739q0 172 46.5 312.5t129 240t199.5 154.5t256 55t256 -55t200 -154.5t129 -240t46 -312.5t-46 -311t-129 -239.5t-200 -154.5t-256 -54t-256 54t-199.5 154.5t-129 239.5t-46.5 311zM279 739q0 -145 35.5 -263t101 -200.5t157.5 -129t203 -46.5t203 46.5t157.5 129 t101.5 200.5t36 263q0 143 -36 261t-101.5 202t-157.5 130t-203 46t-203 -46t-157.5 -130t-101 -201.5t-35.5 -261.5zM385 1714q0 8 1 16.5t3 18.5q4 16 17.5 48t40 64.5t70.5 56.5t109 24q66 0 112 -30t77 -65t57.5 -52t65.5 -17t70.5 23.5t48.5 101.5q4 25 22.5 33t30.5 8 q23 0 38 -15.5t15 -38.5q0 -8 -1 -19t-3 -22q-2 -16 -14.5 -46.5t-39 -61.5t-67.5 -54.5t-102 -23.5q-72 0 -120 27.5t-83 64.5q-29 31 -56.5 51.5t-66.5 20.5q-33 0 -68.5 -26.5t-50.5 -98.5q-4 -25 -22.5 -33t-30.5 -8q-23 0 -38 15.5t-15 37.5z" />
<glyph unicode="&#xd6;" horiz-adv-x="1552" d="M145 739q0 172 46.5 312.5t129 240t199.5 154.5t256 55t256 -55t200 -154.5t129 -240t46 -312.5t-46 -311t-129 -239.5t-200 -154.5t-256 -54t-256 54t-199.5 154.5t-129 239.5t-46.5 311zM279 739q0 -145 35.5 -263t101 -200.5t157.5 -129t203 -46.5t203 46.5t157.5 129 t101.5 200.5t36 263q0 143 -36 261t-101.5 202t-157.5 130t-203 46t-203 -46t-157.5 -130t-101 -201.5t-35.5 -261.5zM430 1802q0 51 37 88t88 37t88 -37t37 -88t-37 -88t-88 -37t-88 37t-37 88zM871 1802q0 51 36.5 88t88.5 37q51 0 87.5 -37t36.5 -88t-36.5 -88t-87.5 -37 t-88 37t-37 88z" />
<glyph unicode="&#xd7;" d="M215 115q0 23 18 45l392 391l-392 391q-18 20 -18 45q0 27 17.5 44.5t43.5 17.5q27 0 46 -19l391 -391l389 389q20 18 45 19q27 0 44 -17.5t17 -44.5t-18 -45l-389 -389l389 -389q18 -18 18 -45t-17 -44.5t-44 -17.5q-25 0 -45 19l-389 389l-391 -391q-18 -18 -46 -19 q-27 0 -44 17.5t-17 44.5z" />
<glyph unicode="&#xd8;" horiz-adv-x="1568" d="M154 739q0 172 46 312.5t129 240t199.5 154.5t255.5 55t256 -55t200 -154.5t129 -240t46 -312.5t-46 -311t-129 -239.5t-199.5 -154.5t-256.5 -54q-139 0 -255.5 54t-199.5 154.5t-129 239.5t-46 311zM287 739q0 -145 35.5 -263t101 -200.5t157.5 -129t203 -46.5 t203 46.5t157.5 129t101.5 200.5t36 263q0 143 -36 261t-101.5 202t-157.5 130t-203 46t-203 -46t-157.5 -130t-101 -201.5t-35.5 -261.5zM342 39q0 18 10 35l770 1401q8 14 22.5 20t29.5 6q27 0 44 -17.5t17 -43.5q0 -14 -10 -35l-770 -1401q-8 -14 -22.5 -20.5t-29.5 -6.5 q-29 0 -45 18.5t-16 43.5z" />
<glyph unicode="&#xd9;" horiz-adv-x="1536" d="M217 537v876q0 29 18.5 48.5t47.5 19.5t48 -19.5t19 -48.5v-874q0 -211 110.5 -324t309.5 -113q207 0 313.5 117t106.5 336v858q0 29 19.5 48.5t47.5 19.5q29 0 47.5 -19.5t18.5 -48.5v-868q0 -131 -39 -235.5t-110.5 -178.5t-174 -112.5t-229.5 -38.5t-228.5 37.5 t-174 109.5t-111.5 175.5t-39 234.5zM522 1878q0 35 20.5 55.5t49.5 20.5q37 0 65 -21l328 -223q10 -8 18 -16t8 -25q0 -16 -10 -26.5t-26 -10.5h-11.5t-11.5 2l-369 166q-29 14 -45 31.5t-16 46.5z" />
<glyph unicode="&#xda;" horiz-adv-x="1536" d="M217 537v876q0 29 18.5 48.5t47.5 19.5t48 -19.5t19 -48.5v-874q0 -211 110.5 -324t309.5 -113q207 0 313.5 117t106.5 336v858q0 29 19.5 48.5t47.5 19.5q29 0 47.5 -19.5t18.5 -48.5v-868q0 -131 -39 -235.5t-110.5 -178.5t-174 -112.5t-229.5 -38.5t-228.5 37.5 t-174 109.5t-111.5 175.5t-39 234.5zM539 1669q0 16 8 24.5t19 16.5l327 223q29 20 66 21q29 0 49 -20.5t20 -55.5q0 -29 -16 -46t-45 -32l-369 -166q-4 -2 -11 -2h-11q-16 0 -26.5 10.5t-10.5 26.5z" />
<glyph unicode="&#xdb;" horiz-adv-x="1536" d="M217 537v876q0 29 18.5 48.5t47.5 19.5t48 -19.5t19 -48.5v-874q0 -211 110.5 -324t309.5 -113q207 0 313.5 117t106.5 336v858q0 29 19.5 48.5t47.5 19.5q29 0 47.5 -19.5t18.5 -48.5v-868q0 -131 -39 -235.5t-110.5 -178.5t-174 -112.5t-229.5 -38.5t-228.5 37.5 t-174 109.5t-111.5 175.5t-39 234.5zM401 1663q0 18 18 33l287 246q12 10 25.5 17t29.5 7t29.5 -7t26.5 -15l286 -248q18 -14 19 -33q0 -16 -9.5 -26.5t-25.5 -10.5q-8 0 -17.5 1t-13.5 5l-295 183l-294 -181q-12 -8 -31 -8q-16 0 -25.5 10.5t-9.5 26.5z" />
<glyph unicode="&#xdc;" horiz-adv-x="1536" d="M217 537v876q0 29 18.5 48.5t47.5 19.5t48 -19.5t19 -48.5v-874q0 -211 110.5 -324t309.5 -113q207 0 313.5 117t106.5 336v858q0 29 19.5 48.5t47.5 19.5q29 0 47.5 -19.5t18.5 -48.5v-868q0 -131 -39 -235.5t-110.5 -178.5t-174 -112.5t-229.5 -38.5t-228.5 37.5 t-174 109.5t-111.5 175.5t-39 234.5zM422 1802q0 51 37 88t88 37t88 -37t37 -88t-37 -88t-88 -37t-88 37t-37 88zM863 1802q0 51 36.5 88t88.5 37q51 0 87.5 -37t36.5 -88t-36.5 -88t-87.5 -37t-88 37t-37 88z" />
<glyph unicode="&#xdd;" horiz-adv-x="1198" d="M68 1409q0 29 20.5 50.5t46.5 21.5q18 0 33.5 -9.5t26.5 -23.5l407 -664l412 664q20 33 55 33q29 0 47.5 -20.5t18.5 -49.5q0 -20 -15 -41l-452 -729v-575q0 -29 -19.5 -47.5t-48.5 -18.5t-47 18.5t-18 47.5v575l-455 729q-12 18 -12 39zM356 1669q0 16 8 24.5t19 16.5 l327 223q29 20 66 21q29 0 49 -20.5t20 -55.5q0 -29 -16 -46t-45 -32l-369 -166q-4 -2 -11 -2h-11q-16 0 -26.5 10.5t-10.5 26.5z" />
<glyph unicode="&#xde;" horiz-adv-x="1409" d="M236 66v1349q0 29 18 47.5t47 18.5t48.5 -18.5t19.5 -47.5v-219h372q113 0 207 -40t160 -116q47 -53 72.5 -120.5t25.5 -149.5q0 -98 -29.5 -172t-82.5 -127q-59 -57 -146.5 -92t-212.5 -35h-366v-278q0 -29 -19.5 -47.5t-48.5 -18.5t-47 18.5t-18 47.5zM369 467h366 q96 0 157.5 23.5t96.5 58.5q41 39 62.5 93t21.5 128q0 104 -65 188q-43 55 -112 85t-155 30h-372v-606z" />
<glyph unicode="&#xdf;" horiz-adv-x="1345" d="M215 61v973q0 106 34 189.5t94 140.5t145 87t188 30q100 0 185 -29t146.5 -80t96.5 -120.5t35 -151.5q0 -117 -54.5 -197t-171.5 -112q147 -16 227.5 -113.5t80.5 -251.5q0 -90 -32 -167t-95.5 -135t-155.5 -91t-211 -33q-25 0 -64.5 4t-76.5 14q-49 12 -49 56 q0 23 15 39t40 16q8 0 14 -1t15 -3q29 -8 51 -11t55 -3q92 0 161.5 25.5t115 68.5t68 100t22.5 121q0 131 -79 210t-259 93q-23 2 -39.5 17.5t-16.5 37.5q0 23 16.5 38.5t39.5 17.5q127 12 193.5 80.5t66.5 173.5q0 57 -21.5 107t-65.5 88t-109.5 59.5t-153.5 21.5 q-143 0 -235.5 -85t-92.5 -267v-957q0 -27 -19.5 -44t-42.5 -17q-25 0 -43 17.5t-18 43.5z" />
<glyph unicode="&#xe0;" horiz-adv-x="1286" d="M135 549q0 127 36 230.5t99.5 177t151.5 113.5t191 40q121 0 206.5 -58.5t128.5 -133.5v118q0 27 16.5 45.5t43.5 18.5t46 -18.5t19 -45.5v-975q0 -27 -19.5 -44t-45.5 -17q-27 0 -43.5 17.5t-16.5 43.5v129q-20 -39 -52 -74.5t-75 -63t-95 -45t-113 -17.5 q-104 0 -192.5 40t-151 112.5t-98.5 176t-36 230.5zM260 547q0 -211 97.5 -327t259.5 -116q66 0 126 29t106 85t72.5 137t26.5 186q0 104 -26.5 188t-71.5 143.5t-105.5 91t-127.5 31.5q-80 0 -145.5 -30.5t-113 -88t-73 -140.5t-25.5 -189zM424 1606q0 33 22.5 55t55.5 22 q35 0 53 -24l285 -359q14 -14 14 -30t-12 -28.5t-29 -12.5q-12 0 -24 8l-334 307q-10 10 -20.5 24.5t-10.5 37.5z" />
<glyph unicode="&#xe1;" horiz-adv-x="1286" d="M135 549q0 127 36 230.5t99.5 177t151.5 113.5t191 40q121 0 206.5 -58.5t128.5 -133.5v118q0 27 16.5 45.5t43.5 18.5t46 -18.5t19 -45.5v-975q0 -27 -19.5 -44t-45.5 -17q-27 0 -43.5 17.5t-16.5 43.5v129q-20 -39 -52 -74.5t-75 -63t-95 -45t-113 -17.5 q-104 0 -192.5 40t-151 112.5t-98.5 176t-36 230.5zM260 547q0 -211 97.5 -327t259.5 -116q66 0 126 29t106 85t72.5 137t26.5 186q0 104 -26.5 188t-71.5 143.5t-105.5 91t-127.5 31.5q-80 0 -145.5 -30.5t-113 -88t-73 -140.5t-25.5 -189zM422 1270q0 16 14 30l285 359 q18 25 53 24q33 0 55.5 -22t22.5 -55q0 -23 -10.5 -37.5t-20.5 -24.5l-334 -307q-12 -8 -24 -8q-16 0 -28.5 12t-12.5 29z" />
<glyph unicode="&#xe2;" horiz-adv-x="1286" d="M135 549q0 127 36 230.5t99.5 177t151.5 113.5t191 40q121 0 206.5 -58.5t128.5 -133.5v118q0 27 16.5 45.5t43.5 18.5t46 -18.5t19 -45.5v-975q0 -27 -19.5 -44t-45.5 -17q-27 0 -43.5 17.5t-16.5 43.5v129q-20 -39 -52 -74.5t-75 -63t-95 -45t-113 -17.5 q-104 0 -192.5 40t-151 112.5t-98.5 176t-36 230.5zM254 1270q0 16 14 30l287 363q25 25 53 25q29 0 54 -25l291 -363q14 -14 14 -30t-12.5 -28.5t-28.5 -12.5q-12 0 -25 8l-293 272l-288 -272q-12 -8 -25 -8q-16 0 -28.5 12t-12.5 29zM260 547q0 -211 97.5 -327t259.5 -116 q66 0 126 29t106 85t72.5 137t26.5 186q0 104 -26.5 188t-71.5 143.5t-105.5 91t-127.5 31.5q-80 0 -145.5 -30.5t-113 -88t-73 -140.5t-25.5 -189z" />
<glyph unicode="&#xe3;" horiz-adv-x="1286" d="M135 549q0 127 36 230.5t99.5 177t151.5 113.5t191 40q121 0 206.5 -58.5t128.5 -133.5v118q0 27 16.5 45.5t43.5 18.5t46 -18.5t19 -45.5v-975q0 -27 -19.5 -44t-45.5 -17q-27 0 -43.5 17.5t-16.5 43.5v129q-20 -39 -52 -74.5t-75 -63t-95 -45t-113 -17.5 q-104 0 -192.5 40t-151 112.5t-98.5 176t-36 230.5zM219 1352q0 8 1 16t3 18q4 16 17.5 48t40 65t70.5 56.5t109 23.5q66 0 112 -29.5t77 -64.5t57.5 -52.5t65.5 -17.5t70.5 23.5t48.5 101.5q4 25 22.5 33t30.5 8q23 0 38 -15.5t15 -37.5q0 -8 -1 -19.5t-3 -21.5 q-2 -16 -14.5 -47t-39 -61.5t-67.5 -54.5t-102 -24q-72 0 -120 28t-83 65q-29 31 -56.5 51t-66.5 20q-33 0 -68.5 -26.5t-50.5 -98.5q-4 -25 -22.5 -33t-30.5 -8q-23 0 -38 15.5t-15 38.5zM260 547q0 -211 97.5 -327t259.5 -116q66 0 126 29t106 85t72.5 137t26.5 186 q0 104 -26.5 188t-71.5 143.5t-105.5 91t-127.5 31.5q-80 0 -145.5 -30.5t-113 -88t-73 -140.5t-25.5 -189z" />
<glyph unicode="&#xe4;" horiz-adv-x="1286" d="M135 549q0 127 36 230.5t99.5 177t151.5 113.5t191 40q121 0 206.5 -58.5t128.5 -133.5v118q0 27 16.5 45.5t43.5 18.5t46 -18.5t19 -45.5v-975q0 -27 -19.5 -44t-45.5 -17q-27 0 -43.5 17.5t-16.5 43.5v129q-20 -39 -52 -74.5t-75 -63t-95 -45t-113 -17.5 q-104 0 -192.5 40t-151 112.5t-98.5 176t-36 230.5zM260 547q0 -211 97.5 -327t259.5 -116q66 0 126 29t106 85t72.5 137t26.5 186q0 104 -26.5 188t-71.5 143.5t-105.5 91t-127.5 31.5q-80 0 -145.5 -30.5t-113 -88t-73 -140.5t-25.5 -189zM264 1432q0 51 37 87.5t88 36.5 t88 -36.5t37 -87.5t-37 -88t-88 -37t-88 36.5t-37 88.5zM705 1432q0 51 36.5 87.5t88.5 36.5q51 0 87.5 -36.5t36.5 -87.5t-36.5 -88t-87.5 -37t-88 36.5t-37 88.5z" />
<glyph unicode="&#xe5;" horiz-adv-x="1286" d="M135 549q0 127 36 230.5t99.5 177t151.5 113.5t191 40q121 0 206.5 -58.5t128.5 -133.5v118q0 27 16.5 45.5t43.5 18.5t46 -18.5t19 -45.5v-975q0 -27 -19.5 -44t-45.5 -17q-27 0 -43.5 17.5t-16.5 43.5v129q-20 -39 -52 -74.5t-75 -63t-95 -45t-113 -17.5 q-104 0 -192.5 40t-151 112.5t-98.5 176t-36 230.5zM260 547q0 -211 97.5 -327t259.5 -116q66 0 126 29t106 85t72.5 137t26.5 186q0 104 -26.5 188t-71.5 143.5t-105.5 91t-127.5 31.5q-80 0 -145.5 -30.5t-113 -88t-73 -140.5t-25.5 -189zM335 1495q0 55 23 104.5t59.5 85 t87 56t105.5 20.5t105.5 -20.5t88 -56t60 -84t22.5 -105.5t-22.5 -105.5t-60 -84t-88 -56t-105.5 -20.5t-105.5 20.5t-87 56t-59.5 84t-23 105.5zM424 1495q0 -78 54 -132t132 -54t132 54t54 132t-54 132t-132 54t-132 -54t-54 -132z" />
<glyph unicode="&#xe6;" horiz-adv-x="1753" d="M150 315q0 147 104 225t281 78h239v136q0 242 -201 241q-84 0 -140 -40t-97 -85q-25 -25 -51 -24q-25 0 -43.5 19.5t-18.5 43.5q0 25 29 54q55 61 135 104t178 43t163 -33t101 -88q12 -20 22.5 -39.5t18.5 -42.5q63 98 153.5 150.5t190.5 52.5q88 0 164 -35t132.5 -102.5 t88 -169t31.5 -234.5q0 -31 -18.5 -47t-46.5 -16h-664q0 -88 22.5 -162t63.5 -127t97.5 -83t125.5 -30q98 0 159 40t104 112q10 14 20 23.5t29 9.5q25 0 44 -16.5t19 -45.5q0 -14 -6 -26.5t-12 -22.5q-47 -84 -133 -136t-222 -52q-113 0 -201.5 53t-148.5 154 q-70 -96 -157 -151.5t-205 -55.5q-74 0 -137.5 24.5t-111.5 67.5t-74.5 102.5t-26.5 130.5zM272 326q0 -53 18.5 -94.5t51.5 -69t74 -42t88 -14.5q53 0 96 15.5t76 40t57.5 56.5t40.5 65v225h-272q-104 0 -167 -52.5t-63 -129.5zM901 616h602q-4 178 -82 278.5t-207 100.5 q-127 0 -213 -100t-100 -279z" />
<glyph unicode="&#xe7;" horiz-adv-x="1114" d="M135 549q0 131 38 235.5t101.5 176t148.5 110.5t179 39q76 0 137.5 -20.5t107.5 -54.5t79 -78t51 -91q8 -23 8 -43q0 -25 -15 -42t-42 -17q-45 0 -62 45q-33 80 -93 133t-171 53q-72 0 -134 -30.5t-108 -87t-73 -138.5t-27 -186q0 -106 27 -189t73 -140.5t108.5 -88.5 t133.5 -31q109 0 173.5 51.5t97.5 123.5q14 33 28.5 44t32.5 11q27 0 42 -16.5t15 -43.5q0 -10 -2 -20t-6 -21q-39 -100 -136 -171.5t-245 -71.5q-98 0 -183 39t-147.5 111.5t-99.5 176t-37 232.5zM391 -322q0 18 13.5 32t31.5 14q10 0 23 -7q37 -20 66.5 -34.5t76.5 -14.5 q106 0 106 94q0 45 -24.5 65.5t-59.5 20.5q-31 0 -47 -6t-26 -6q-8 0 -16.5 6t-8.5 23v180h62v-135q37 12 71 12q68 0 111 -48t43 -114q0 -80 -51 -125q-27 -23 -65 -38t-89 -15q-59 0 -99 14.5t-85 36.5q-12 6 -22.5 17.5t-10.5 27.5z" />
<glyph unicode="&#xe8;" horiz-adv-x="1153" d="M135 549q0 135 40 239.5t104.5 176t148.5 108.5t172 37q90 0 169 -35t138.5 -102.5t93 -169t33.5 -234.5q0 -31 -18 -47t-47 -16h-707q0 -88 27 -162t72 -127t105.5 -83t129.5 -30q98 0 160.5 42t109.5 108q10 14 21.5 23.5t30.5 9.5q25 0 42 -15.5t17 -44.5 q0 -14 -5 -27.5t-11 -23.5q-51 -80 -139.5 -133t-223.5 -53q-98 0 -183 39t-147.5 110.5t-97.5 176t-35 233.5zM262 616h645q-4 178 -89 278.5t-218 100.5q-66 0 -124 -25.5t-103 -74.5t-75 -119.5t-36 -159.5zM393 1606q0 33 22.5 55t55.5 22q35 0 53 -24l285 -359 q14 -14 14 -30t-12 -28.5t-29 -12.5q-12 0 -24 8l-334 307q-10 10 -20.5 24.5t-10.5 37.5z" />
<glyph unicode="&#xe9;" horiz-adv-x="1153" d="M135 549q0 135 40 239.5t104.5 176t148.5 108.5t172 37q90 0 169 -35t138.5 -102.5t93 -169t33.5 -234.5q0 -31 -18 -47t-47 -16h-707q0 -88 27 -162t72 -127t105.5 -83t129.5 -30q98 0 160.5 42t109.5 108q10 14 21.5 23.5t30.5 9.5q25 0 42 -15.5t17 -44.5 q0 -14 -5 -27.5t-11 -23.5q-51 -80 -139.5 -133t-223.5 -53q-98 0 -183 39t-147.5 110.5t-97.5 176t-35 233.5zM262 616h645q-4 178 -89 278.5t-218 100.5q-66 0 -124 -25.5t-103 -74.5t-75 -119.5t-36 -159.5zM383 1270q0 16 14 30l285 359q18 25 53 24q33 0 55.5 -22 t22.5 -55q0 -23 -10.5 -37.5t-20.5 -24.5l-334 -307q-12 -8 -24 -8q-16 0 -28.5 12t-12.5 29z" />
<glyph unicode="&#xea;" horiz-adv-x="1153" d="M135 549q0 135 40 239.5t104.5 176t148.5 108.5t172 37q90 0 169 -35t138.5 -102.5t93 -169t33.5 -234.5q0 -31 -18 -47t-47 -16h-707q0 -88 27 -162t72 -127t105.5 -83t129.5 -30q98 0 160.5 42t109.5 108q10 14 21.5 23.5t30.5 9.5q25 0 42 -15.5t17 -44.5 q0 -14 -5 -27.5t-11 -23.5q-51 -80 -139.5 -133t-223.5 -53q-98 0 -183 39t-147.5 110.5t-97.5 176t-35 233.5zM237 1270q0 16 14 30l287 363q25 25 53 25q29 0 54 -25l291 -363q14 -14 14 -30t-12.5 -28.5t-28.5 -12.5q-12 0 -25 8l-293 272l-288 -272q-12 -8 -25 -8 q-16 0 -28.5 12t-12.5 29zM262 616h645q-4 178 -89 278.5t-218 100.5q-66 0 -124 -25.5t-103 -74.5t-75 -119.5t-36 -159.5z" />
<glyph unicode="&#xeb;" horiz-adv-x="1153" d="M135 549q0 135 40 239.5t104.5 176t148.5 108.5t172 37q90 0 169 -35t138.5 -102.5t93 -169t33.5 -234.5q0 -31 -18 -47t-47 -16h-707q0 -88 27 -162t72 -127t105.5 -83t129.5 -30q98 0 160.5 42t109.5 108q10 14 21.5 23.5t30.5 9.5q25 0 42 -15.5t17 -44.5 q0 -14 -5 -27.5t-11 -23.5q-51 -80 -139.5 -133t-223.5 -53q-98 0 -183 39t-147.5 110.5t-97.5 176t-35 233.5zM254 1432q0 51 37 87.5t88 36.5t88 -36.5t37 -87.5t-37 -88t-88 -37t-88 36.5t-37 88.5zM262 616h645q-4 178 -89 278.5t-218 100.5q-66 0 -124 -25.5 t-103 -74.5t-75 -119.5t-36 -159.5zM695 1432q0 51 36.5 87.5t88.5 36.5q51 0 87.5 -36.5t36.5 -87.5t-36.5 -88t-87.5 -37t-88 36.5t-37 88.5z" />
<glyph unicode="&#xec;" horiz-adv-x="555" d="M65 1606q0 33 22.5 55t55.5 22q35 0 53 -24l285 -359q14 -14 14 -30t-12 -28.5t-29 -12.5q-12 0 -24 8l-334 307q-10 10 -20.5 24.5t-10.5 37.5zM215 61v975q0 27 18.5 45.5t45.5 18.5t44 -18.5t17 -45.5v-975q0 -27 -17.5 -44t-43.5 -17q-27 0 -45.5 17.5t-18.5 43.5z " />
<glyph unicode="&#xed;" horiz-adv-x="555" d="M66 1270q0 16 14 30l285 359q18 25 53 24q33 0 55.5 -22t22.5 -55q0 -23 -10.5 -37.5t-20.5 -24.5l-334 -307q-12 -8 -24 -8q-16 0 -28.5 12t-12.5 29zM215 61v975q0 27 18.5 45.5t45.5 18.5t44 -18.5t17 -45.5v-975q0 -27 -17.5 -44t-43.5 -17q-27 0 -45.5 17.5 t-18.5 43.5z" />
<glyph unicode="&#xee;" horiz-adv-x="555" d="M-78 1272q0 16 14 30l287 363q25 25 53 25q29 0 54 -25l291 -363q14 -14 14 -30t-12.5 -28.5t-28.5 -12.5q-12 0 -25 8l-293 272l-288 -272q-12 -8 -25 -8q-16 0 -28.5 12t-12.5 29zM215 61v975q0 27 18.5 45.5t45.5 18.5t44 -18.5t17 -45.5v-975q0 -27 -17.5 -44 t-43.5 -17q-27 0 -45.5 17.5t-18.5 43.5z" />
<glyph unicode="&#xef;" horiz-adv-x="555" d="M-64 1432q0 51 37 87.5t88 36.5t88 -36.5t37 -87.5t-37 -88t-88 -37t-88 36.5t-37 88.5zM215 61v975q0 27 18.5 45.5t45.5 18.5t44 -18.5t17 -45.5v-975q0 -27 -17.5 -44t-43.5 -17q-27 0 -45.5 17.5t-18.5 43.5zM377 1432q0 51 36.5 87.5t88.5 36.5q51 0 87.5 -36.5 t36.5 -87.5t-36.5 -88t-87.5 -37t-88 36.5t-37 88.5z" />
<glyph unicode="&#xf0;" horiz-adv-x="1257" d="M152 549q0 133 35.5 237.5t96 176t141.5 108.5t173 37q98 0 168 -34t127 -89q-37 125 -109.5 231.5t-175.5 178.5l-149 -148q-16 -12 -35 -12q-23 0 -40 16.5t-17 38.5q0 31 26 56l119 112q-33 23 -85 44.5t-101 33.5q-23 6 -40.5 21.5t-17.5 41.5q0 29 19.5 47.5 t48.5 18.5q6 0 20.5 -2t22.5 -4q55 -12 120.5 -42t112.5 -61l138 136q14 12 34 12q25 0 41.5 -17.5t16.5 -39.5q0 -25 -25 -50l-110 -110q92 -80 161.5 -169t115.5 -198.5t69.5 -244t23.5 -302.5q0 -127 -35.5 -234.5t-98 -185t-147.5 -120.5t-186 -43q-98 0 -182 38 t-145.5 109.5t-96 175t-34.5 236.5zM285 551q0 -104 24.5 -187t67.5 -141.5t102.5 -89.5t130.5 -31q72 0 132.5 35t105.5 96.5t69.5 144.5t24.5 181q0 100 -26.5 180t-72.5 135.5t-108.5 85t-136.5 29.5q-68 0 -126 -30.5t-99 -88t-64.5 -138.5t-23.5 -181z" />
<glyph unicode="&#xf1;" horiz-adv-x="1263" d="M217 61v975q0 27 18.5 45.5t45.5 18.5t44 -18.5t17 -45.5v-82q57 66 145.5 110t206.5 44q123 0 206 -43t126 -117q31 -53 43 -118.5t12 -139.5v-629q0 -27 -17 -44t-44 -17t-45 17.5t-18 43.5v625q0 45 -7.5 91t-21.5 77q-59 139 -244 139q-109 0 -179.5 -40t-107.5 -87 q-33 -41 -44 -95t-11 -120v-590q0 -27 -17.5 -44t-43.5 -17q-27 0 -45.5 17.5t-18.5 43.5zM258 1352q0 8 1 16t3 18q4 16 17.5 48t40 65t70.5 56.5t109 23.5q66 0 112 -29.5t77 -64.5t57.5 -52.5t65.5 -17.5t70.5 23.5t48.5 101.5q4 25 22.5 33t30.5 8q23 0 38 -15.5 t15 -37.5q0 -8 -1 -19.5t-3 -21.5q-2 -16 -14.5 -47t-39 -61.5t-67.5 -54.5t-102 -24q-72 0 -120 28t-83 65q-29 31 -56.5 51t-66.5 20q-33 0 -68.5 -26.5t-50.5 -98.5q-4 -25 -22.5 -33t-30.5 -8q-23 0 -38 15.5t-15 38.5z" />
<glyph unicode="&#xf2;" horiz-adv-x="1204" d="M135 551q0 127 36 230.5t99.5 176t148.5 112.5t183 40t183.5 -40t149 -112.5t99 -176t35.5 -230.5t-35.5 -230.5t-99 -177t-148.5 -113.5t-184 -40q-98 0 -183 40t-148.5 113.5t-99.5 177t-36 230.5zM262 551q0 -104 26 -187t71 -140.5t107 -88.5t136 -31t136.5 31 t107.5 88.5t70.5 140t25.5 187.5q0 102 -25.5 185t-70.5 140.5t-107.5 88t-136.5 30.5t-136 -30.5t-107 -88t-71 -140.5t-26 -185zM381 1606q0 33 22.5 55t55.5 22q35 0 53 -24l285 -359q14 -14 14 -30t-12 -28.5t-29 -12.5q-12 0 -24 8l-334 307q-10 10 -20.5 24.5 t-10.5 37.5z" />
<glyph unicode="&#xf3;" horiz-adv-x="1204" d="M135 551q0 127 36 230.5t99.5 176t148.5 112.5t183 40t183.5 -40t149 -112.5t99 -176t35.5 -230.5t-35.5 -230.5t-99 -177t-148.5 -113.5t-184 -40q-98 0 -183 40t-148.5 113.5t-99.5 177t-36 230.5zM262 551q0 -104 26 -187t71 -140.5t107 -88.5t136 -31t136.5 31 t107.5 88.5t70.5 140t25.5 187.5q0 102 -25.5 185t-70.5 140.5t-107.5 88t-136.5 30.5t-136 -30.5t-107 -88t-71 -140.5t-26 -185zM387 1270q0 16 14 30l285 359q18 25 53 24q33 0 55.5 -22t22.5 -55q0 -23 -10.5 -37.5t-20.5 -24.5l-334 -307q-12 -8 -24 -8q-16 0 -28.5 12 t-12.5 29z" />
<glyph unicode="&#xf4;" horiz-adv-x="1204" d="M135 551q0 127 36 230.5t99.5 176t148.5 112.5t183 40t183.5 -40t149 -112.5t99 -176t35.5 -230.5t-35.5 -230.5t-99 -177t-148.5 -113.5t-184 -40q-98 0 -183 40t-148.5 113.5t-99.5 177t-36 230.5zM244 1270q0 16 14 30l287 363q25 25 53 25q29 0 54 -25l291 -363 q14 -14 14 -30t-12.5 -28.5t-28.5 -12.5q-12 0 -25 8l-293 272l-288 -272q-12 -8 -25 -8q-16 0 -28.5 12t-12.5 29zM262 551q0 -104 26 -187t71 -140.5t107 -88.5t136 -31t136.5 31t107.5 88.5t70.5 140t25.5 187.5q0 102 -25.5 185t-70.5 140.5t-107.5 88t-136.5 30.5 t-136 -30.5t-107 -88t-71 -140.5t-26 -185z" />
<glyph unicode="&#xf5;" horiz-adv-x="1204" d="M135 551q0 127 36 230.5t99.5 176t148.5 112.5t183 40t183.5 -40t149 -112.5t99 -176t35.5 -230.5t-35.5 -230.5t-99 -177t-148.5 -113.5t-184 -40q-98 0 -183 40t-148.5 113.5t-99.5 177t-36 230.5zM211 1352q0 8 1 16t3 18q4 16 17.5 48t40 65t70.5 56.5t109 23.5 q66 0 112 -29.5t77 -64.5t57.5 -52.5t65.5 -17.5t70.5 23.5t48.5 101.5q4 25 22.5 33t30.5 8q23 0 38 -15.5t15 -37.5q0 -8 -1 -19.5t-3 -21.5q-2 -16 -14.5 -47t-39 -61.5t-67.5 -54.5t-102 -24q-72 0 -120 28t-83 65q-29 31 -56.5 51t-66.5 20q-33 0 -68.5 -26.5 t-50.5 -98.5q-4 -25 -22.5 -33t-30.5 -8q-23 0 -38 15.5t-15 38.5zM262 551q0 -104 26 -187t71 -140.5t107 -88.5t136 -31t136.5 31t107.5 88.5t70.5 140t25.5 187.5q0 102 -25.5 185t-70.5 140.5t-107.5 88t-136.5 30.5t-136 -30.5t-107 -88t-71 -140.5t-26 -185z" />
<glyph unicode="&#xf6;" horiz-adv-x="1204" d="M135 551q0 127 36 230.5t99.5 176t148.5 112.5t183 40t183.5 -40t149 -112.5t99 -176t35.5 -230.5t-35.5 -230.5t-99 -177t-148.5 -113.5t-184 -40q-98 0 -183 40t-148.5 113.5t-99.5 177t-36 230.5zM256 1432q0 51 37 87.5t88 36.5t88 -36.5t37 -87.5t-37 -88t-88 -37 t-88 36.5t-37 88.5zM262 551q0 -104 26 -187t71 -140.5t107 -88.5t136 -31t136.5 31t107.5 88.5t70.5 140t25.5 187.5q0 102 -25.5 185t-70.5 140.5t-107.5 88t-136.5 30.5t-136 -30.5t-107 -88t-71 -140.5t-26 -185zM697 1432q0 51 36.5 87.5t88.5 36.5q51 0 87.5 -36.5 t36.5 -87.5t-36.5 -88t-87.5 -37t-88 36.5t-37 88.5z" />
<glyph unicode="&#xf7;" d="M174 553q0 27 17.5 44t44.5 17h954q27 0 44 -17t17 -44t-17 -44t-44 -17h-954q-27 0 -44.5 17t-17.5 44zM580 195q0 55 38.5 94t94.5 39q55 0 94 -39t39 -94t-39 -94.5t-94 -39.5t-94 39.5t-39 94.5zM580 907q0 55 38.5 94t94.5 39q55 0 94 -38.5t39 -94.5q0 -55 -39 -94 t-94 -39t-94 39t-39 94z" />
<glyph unicode="&#xf8;" horiz-adv-x="1200" d="M133 551q0 127 36 230.5t99.5 176t148.5 112.5t183 40t183 -40t148.5 -112.5t99.5 -176t36 -230.5t-36 -230.5t-99.5 -177t-148.5 -113.5t-183 -40t-183 40t-148.5 113.5t-99.5 177t-36 230.5zM246 53q0 20 10 37l582 991q8 14 22 20.5t29 6.5q27 0 44 -17.5t17 -43.5 q0 -23 -10 -37l-582 -992q-8 -14 -22 -20t-29 -6q-29 0 -45 18.5t-16 42.5zM260 551q0 -104 25.5 -187t70.5 -140.5t107.5 -88.5t136.5 -31t136.5 31t107.5 88.5t70.5 140t25.5 187.5q0 102 -25.5 185t-70.5 140.5t-107.5 88t-136.5 30.5t-136.5 -30.5t-107.5 -88 t-70.5 -140.5t-25.5 -185z" />
<glyph unicode="&#xf9;" horiz-adv-x="1263" d="M207 410v628q0 27 17.5 44.5t43.5 17.5q27 0 45.5 -17.5t18.5 -44.5v-624q0 -45 7 -91.5t22 -76.5q59 -139 243 -140q109 0 179.5 40t107.5 87q33 41 44 95.5t11 120.5v589q0 27 17.5 44.5t44.5 17.5t45 -17.5t18 -44.5v-975q0 -27 -18.5 -45t-44.5 -18q-27 0 -44.5 18.5 t-17.5 44.5v82q-57 -66 -145 -110.5t-207 -44.5q-123 0 -206 44t-126 118q-31 53 -43 118.5t-12 139.5zM412 1606q0 33 22.5 55t55.5 22q35 0 53 -24l285 -359q14 -14 14 -30t-12 -28.5t-29 -12.5q-12 0 -24 8l-334 307q-10 10 -20.5 24.5t-10.5 37.5z" />
<glyph unicode="&#xfa;" horiz-adv-x="1263" d="M207 410v628q0 27 17.5 44.5t43.5 17.5q27 0 45.5 -17.5t18.5 -44.5v-624q0 -45 7 -91.5t22 -76.5q59 -139 243 -140q109 0 179.5 40t107.5 87q33 41 44 95.5t11 120.5v589q0 27 17.5 44.5t44.5 17.5t45 -17.5t18 -44.5v-975q0 -27 -18.5 -45t-44.5 -18q-27 0 -44.5 18.5 t-17.5 44.5v82q-57 -66 -145 -110.5t-207 -44.5q-123 0 -206 44t-126 118q-31 53 -43 118.5t-12 139.5zM395 1270q0 16 14 30l285 359q18 25 53 24q33 0 55.5 -22t22.5 -55q0 -23 -10.5 -37.5t-20.5 -24.5l-334 -307q-12 -8 -24 -8q-16 0 -28.5 12t-12.5 29z" />
<glyph unicode="&#xfb;" horiz-adv-x="1263" d="M207 410v628q0 27 17.5 44.5t43.5 17.5q27 0 45.5 -17.5t18.5 -44.5v-624q0 -45 7 -91.5t22 -76.5q59 -139 243 -140q109 0 179.5 40t107.5 87q33 41 44 95.5t11 120.5v589q0 27 17.5 44.5t44.5 17.5t45 -17.5t18 -44.5v-975q0 -27 -18.5 -45t-44.5 -18q-27 0 -44.5 18.5 t-17.5 44.5v82q-57 -66 -145 -110.5t-207 -44.5q-123 0 -206 44t-126 118q-31 53 -43 118.5t-12 139.5zM274 1270q0 16 14 30l287 363q25 25 53 25q29 0 54 -25l291 -363q14 -14 14 -30t-12.5 -28.5t-28.5 -12.5q-12 0 -25 8l-293 272l-288 -272q-12 -8 -25 -8 q-16 0 -28.5 12t-12.5 29z" />
<glyph unicode="&#xfc;" horiz-adv-x="1263" d="M207 410v628q0 27 17.5 44.5t43.5 17.5q27 0 45.5 -17.5t18.5 -44.5v-624q0 -45 7 -91.5t22 -76.5q59 -139 243 -140q109 0 179.5 40t107.5 87q33 41 44 95.5t11 120.5v589q0 27 17.5 44.5t44.5 17.5t45 -17.5t18 -44.5v-975q0 -27 -18.5 -45t-44.5 -18q-27 0 -44.5 18.5 t-17.5 44.5v82q-57 -66 -145 -110.5t-207 -44.5q-123 0 -206 44t-126 118q-31 53 -43 118.5t-12 139.5zM282 1432q0 51 37 87.5t88 36.5t88 -36.5t37 -87.5t-37 -88t-88 -37t-88 36.5t-37 88.5zM723 1432q0 51 36.5 87.5t88.5 36.5q51 0 87.5 -36.5t36.5 -87.5t-36.5 -88 t-87.5 -37t-88 36.5t-37 88.5z" />
<glyph unicode="&#xfd;" horiz-adv-x="1126" d="M39 -268q0 29 18 46t41 17q31 0 51 -26q29 -35 57.5 -54.5t75.5 -19.5q49 0 81 27.5t54 87.5l91 225q-23 8 -41 43l-377 932q-6 12 -6 28q0 39 34 56q12 6 29 6q18 0 33.5 -9.5t21.5 -25.5l328 -829q8 -20 16.5 -45t12.5 -41h4q4 20 13 43.5t18 42.5l327 829 q6 16 21.5 25.5t34.5 9.5q14 0 26 -6q35 -16 35 -56q0 -16 -6 -28l-510 -1256q-29 -72 -86 -122t-154 -50q-74 0 -129 28t-100 81q-14 16 -14 41zM354 1270q0 16 14 30l285 359q18 25 53 24q33 0 55.5 -22t22.5 -55q0 -23 -10.5 -37.5t-20.5 -24.5l-334 -307q-12 -8 -24 -8 q-16 0 -28.5 12t-12.5 29z" />
<glyph unicode="&#xfe;" horiz-adv-x="1286" d="M215 -319v1736q0 27 19.5 45.5t46.5 18.5t43 -18.5t16 -45.5v-504q45 78 131 137.5t221 59.5q98 0 182 -40t146.5 -113.5t97.5 -177t35 -230.5t-36 -230.5t-98.5 -176t-147.5 -112.5t-181 -40q-68 0 -123 17.5t-98 45t-76 63.5t-53 74v-509q0 -27 -16.5 -44.5 t-42.5 -17.5q-27 0 -46.5 17.5t-19.5 44.5zM340 541q0 -104 27.5 -185.5t73.5 -137.5t108.5 -85t132.5 -29q154 0 250 116t96 327q0 106 -25.5 189t-71.5 140.5t-107.5 88t-135.5 30.5t-138.5 -31.5t-110.5 -91t-72.5 -143.5t-26.5 -188z" />
<glyph unicode="&#xff;" horiz-adv-x="1126" d="M39 -268q0 29 18 46t41 17q31 0 51 -26q29 -35 57.5 -54.5t75.5 -19.5q49 0 81 27.5t54 87.5l91 225q-23 8 -41 43l-377 932q-6 12 -6 28q0 39 34 56q12 6 29 6q18 0 33.5 -9.5t21.5 -25.5l328 -829q8 -20 16.5 -45t12.5 -41h4q4 20 13 43.5t18 42.5l327 829 q6 16 21.5 25.5t34.5 9.5q14 0 26 -6q35 -16 35 -56q0 -16 -6 -28l-510 -1256q-29 -72 -86 -122t-154 -50q-74 0 -129 28t-100 81q-14 16 -14 41zM221 1432q0 51 37 87.5t88 36.5t88 -36.5t37 -87.5t-37 -88t-88 -37t-88 36.5t-37 88.5zM662 1432q0 51 36.5 87.5t88.5 36.5 q51 0 87.5 -36.5t36.5 -87.5t-36.5 -88t-87.5 -37t-88 36.5t-37 88.5z" />
<glyph unicode="&#x152;" horiz-adv-x="1687" d="M133 741q0 154 42 289t119 235.5t184.5 158t240.5 57.5h770q27 0 43 -17.5t16 -44.5t-17.5 -44t-43.5 -17h-520v-555h356q27 0 44 -17.5t17 -44.5t-17 -44t-44 -17h-356v-557h520q27 0 44 -17.5t17 -44.5t-17.5 -44t-43.5 -17h-768q-133 0 -240.5 58.5t-184.5 158.5 t-119 235.5t-42 288.5zM266 741q0 -154 38 -269.5t101.5 -193t145.5 -116.5t170 -39h113v1235h-113q-88 0 -170 -39t-145.5 -117t-101.5 -192.5t-38 -268.5z" />
<glyph unicode="&#x153;" horiz-adv-x="1966" d="M133 549q0 127 36 230.5t99.5 177t149.5 113.5t184 40q131 0 238.5 -69.5t167.5 -196.5q63 131 171.5 198.5t231.5 67.5q90 0 169 -35t138.5 -102.5t93 -169t33.5 -234.5q0 -31 -18.5 -47t-46.5 -16h-707q0 -88 26.5 -162t72 -127t105.5 -83t130 -30q98 0 161.5 40 t106.5 112q10 14 20.5 23.5t28.5 9.5q25 0 44.5 -16.5t19.5 -45.5q0 -14 -6 -26.5t-13 -22.5q-47 -84 -136 -136t-224 -52t-239.5 68.5t-163.5 195.5q-61 -125 -169 -194.5t-239 -69.5q-98 0 -183 40t-147.5 112.5t-98.5 176t-36 230.5zM260 553q0 -104 25.5 -188 t70.5 -141.5t107.5 -88.5t136.5 -31t137.5 31t109.5 89.5t72.5 141.5t26.5 187t-26.5 186t-72.5 138.5t-109.5 87t-137.5 30.5t-136.5 -30.5t-107.5 -88t-70.5 -139.5t-25.5 -184zM1073 616h645q-4 178 -89 278.5t-218 100.5q-66 0 -124 -25.5t-103 -74.5t-75 -119.5 t-36 -159.5z" />
<glyph unicode="&#x178;" horiz-adv-x="1198" d="M68 1409q0 29 20.5 50.5t46.5 21.5q18 0 33.5 -9.5t26.5 -23.5l407 -664l412 664q20 33 55 33q29 0 47.5 -20.5t18.5 -49.5q0 -20 -15 -41l-452 -729v-575q0 -29 -19.5 -47.5t-48.5 -18.5t-47 18.5t-18 47.5v575l-455 729q-12 18 -12 39zM256 1813q0 51 37 87.5t88 36.5 t88 -36.5t37 -87.5t-37 -88t-88 -37t-88 36.5t-37 88.5zM697 1813q0 51 36.5 87.5t88.5 36.5q51 0 87.5 -36.5t36.5 -87.5t-36.5 -88t-87.5 -37t-88 36.5t-37 88.5z" />
<glyph unicode="&#x2c6;" horiz-adv-x="892" d="M92 1270q0 16 14 30l287 363q25 25 53 25q29 0 54 -25l291 -363q14 -14 14 -30t-12.5 -28.5t-28.5 -12.5q-12 0 -25 8l-293 272l-288 -272q-12 -8 -25 -8q-16 0 -28.5 12t-12.5 29z" />
<glyph unicode="&#x2dc;" horiz-adv-x="940" d="M78 1352q0 8 1 16t3 18q4 16 17.5 48t40 65t70.5 56.5t109 23.5q66 0 112 -29.5t77 -64.5t57.5 -52.5t65.5 -17.5t70.5 23.5t48.5 101.5q4 25 22.5 33t30.5 8q23 0 38 -15.5t15 -37.5q0 -8 -1 -19.5t-3 -21.5q-2 -16 -14.5 -47t-39 -61.5t-67.5 -54.5t-102 -24 q-72 0 -120 28t-83 65q-29 31 -56.5 51t-66.5 20q-33 0 -68.5 -26.5t-50.5 -98.5q-4 -25 -22.5 -33t-30.5 -8q-23 0 -38 15.5t-15 38.5z" />
<glyph unicode="&#x2000;" horiz-adv-x="1034" />
<glyph unicode="&#x2001;" horiz-adv-x="2068" />
<glyph unicode="&#x2002;" horiz-adv-x="1034" />
<glyph unicode="&#x2003;" horiz-adv-x="2068" />
<glyph unicode="&#x2004;" horiz-adv-x="689" />
<glyph unicode="&#x2005;" horiz-adv-x="517" />
<glyph unicode="&#x2006;" horiz-adv-x="344" />
<glyph unicode="&#x2007;" horiz-adv-x="344" />
<glyph unicode="&#x2008;" horiz-adv-x="258" />
<glyph unicode="&#x2009;" horiz-adv-x="413" />
<glyph unicode="&#x200a;" horiz-adv-x="114" />
<glyph unicode="&#x2010;" horiz-adv-x="993" d="M215 563q0 25 17.5 42.5t41.5 17.5h445q25 0 42 -17.5t17 -42.5t-17.5 -42t-41.5 -17h-445q-25 0 -42 17.5t-17 41.5z" />
<glyph unicode="&#x2011;" horiz-adv-x="993" d="M215 563q0 25 17.5 42.5t41.5 17.5h445q25 0 42 -17.5t17 -42.5t-17.5 -42t-41.5 -17h-445q-25 0 -42 17.5t-17 41.5z" />
<glyph unicode="&#x2012;" horiz-adv-x="993" d="M215 563q0 25 17.5 42.5t41.5 17.5h445q25 0 42 -17.5t17 -42.5t-17.5 -42t-41.5 -17h-445q-25 0 -42 17.5t-17 41.5z" />
<glyph unicode="&#x2013;" horiz-adv-x="1282" d="M41 563q0 25 17.5 42.5t41.5 17.5h1082q25 0 42 -17.5t17 -42.5t-17.5 -42t-41.5 -17h-1082q-25 0 -42 17.5t-17 41.5z" />
<glyph unicode="&#x2014;" horiz-adv-x="2969" d="M225 563q0 25 17.5 42.5t42.5 17.5h2400q25 0 42 -17.5t17 -42.5t-17 -42t-42 -17h-2400q-25 0 -42.5 17.5t-17.5 41.5z" />
<glyph unicode="&#x2018;" horiz-adv-x="616" d="M176 1114q0 57 8.5 102.5t24.5 86.5q16 47 46 91t89 81q29 16 41 16q18 0 31.5 -13.5t13.5 -31.5q0 -25 -24 -39q-35 -20 -66 -54t-31 -93q0 -12 7.5 -17.5t17.5 -7.5q41 -8 75.5 -42t34.5 -89t-38.5 -94t-94.5 -39q-59 0 -97 41t-38 102z" />
<glyph unicode="&#x2019;" horiz-adv-x="616" d="M172 1356q0 55 39 94t94 39q59 0 97 -41t38 -102q0 -57 -8 -102.5t-22 -86.5q-18 -47 -48 -91t-90 -81q-29 -16 -41 -16q-18 0 -31.5 13t-13.5 32q0 23 25 39q37 20 66.5 54t29.5 93q0 12 -7 17.5t-17 7.5q-41 8 -76 41.5t-35 89.5z" />
<glyph unicode="&#x201a;" horiz-adv-x="616" d="M172 123q0 55 39 94t94 39q59 0 97 -41t38 -102q0 -57 -8 -102.5t-22 -86.5q-18 -47 -48 -91t-90 -81q-29 -16 -41 -16q-18 0 -31.5 13t-13.5 32q0 23 25 39q37 20 66.5 54t29.5 93q0 12 -7 17.5t-17 7.5q-41 8 -76 42t-35 89z" />
<glyph unicode="&#x201c;" horiz-adv-x="993" d="M176 1114q0 57 8.5 102.5t24.5 86.5q16 47 46 91t89 81q29 16 41 16q18 0 31.5 -13.5t13.5 -31.5q0 -25 -24 -39q-35 -20 -66 -54t-31 -93q0 -12 7.5 -17.5t17.5 -7.5q41 -8 75.5 -42t34.5 -89t-38.5 -94t-94.5 -39q-59 0 -97 41t-38 102zM553 1114q0 57 8 102.5t25 86.5 q16 47 46 91t89 81q29 16 41 16q18 0 31.5 -13.5t13.5 -31.5q0 -25 -25 -39q-35 -20 -65.5 -54t-30.5 -93q0 -12 7.5 -17.5t17.5 -7.5q41 -8 75.5 -42t34.5 -89t-39 -94t-94 -39q-59 0 -97 41t-38 102z" />
<glyph unicode="&#x201d;" horiz-adv-x="993" d="M172 1358q0 55 39 94t94 39q59 0 97 -41t38 -102q0 -57 -8 -102.5t-24 -86.5q-16 -47 -46 -91t-90 -81q-29 -16 -41 -16q-18 0 -31.5 13t-13.5 32q0 23 25 39q35 20 65.5 54t30.5 93q0 12 -7 17.5t-17 7.5q-41 8 -76 42t-35 89zM549 1358q0 55 39 94t94 39q59 0 97 -41 t38 -102q0 -57 -8 -102.5t-25 -86.5q-16 -47 -45.5 -91t-89.5 -81q-29 -16 -41 -16q-18 0 -31.5 13t-13.5 32q0 23 25 39q35 20 65.5 54t30.5 93q0 12 -7.5 17.5t-17.5 7.5q-41 8 -75.5 42t-34.5 89z" />
<glyph unicode="&#x201e;" horiz-adv-x="991" d="M172 123q0 55 39 94t94 39q59 0 97 -41t38 -102q0 -57 -8 -102.5t-22 -86.5q-18 -47 -48 -91t-90 -81q-29 -16 -41 -16q-18 0 -31.5 13t-13.5 32q0 23 25 39q37 20 66.5 54t29.5 93q0 12 -7 17.5t-17 7.5q-41 8 -76 42t-35 89zM547 123q0 55 39 94t94 39q59 0 97 -41 t38 -102q0 -57 -8 -102.5t-23 -86.5q-18 -47 -47.5 -91t-89.5 -81q-29 -16 -41 -16q-18 0 -31.5 13t-13.5 32q0 23 25 39q37 20 66.5 54t29.5 93q0 12 -7.5 17.5t-17.5 7.5q-41 8 -75.5 42t-34.5 89z" />
<glyph unicode="&#x2022;" horiz-adv-x="1114" d="M215 739q0 70 26.5 132.5t73.5 109.5t108.5 73.5t133.5 26.5t134.5 -26.5t108.5 -73.5t72.5 -109.5t26.5 -132.5q0 -72 -26.5 -134t-72.5 -108t-108.5 -73t-134.5 -27t-133.5 27t-108.5 73t-73.5 108.5t-26.5 133.5z" />
<glyph unicode="&#x2026;" horiz-adv-x="1572" d="M145 123q0 55 39 94t95 39q55 0 94 -39t39 -94t-39 -94t-94 -39t-94.5 39t-39.5 94zM653 123q0 55 39 94t94 39t94.5 -39t39.5 -94t-39 -94t-95 -39q-55 0 -94 39t-39 94zM1161 123q0 55 39 94t94 39t94 -39t39 -94t-38.5 -94t-94.5 -39q-55 0 -94 39t-39 94z" />
<glyph unicode="&#x202f;" horiz-adv-x="413" />
<glyph unicode="&#x2039;" horiz-adv-x="686" d="M123 549q0 29 18 51l353 479q12 16 32 17q16 0 28.5 -12.5t12.5 -28.5q0 -12 -10 -29l-268 -477l268 -477q10 -16 10 -29q0 -16 -12 -28.5t-29 -12.5q-20 0 -32 16l-353 480q-18 22 -18 51z" />
<glyph unicode="&#x203a;" horiz-adv-x="686" d="M119 43q0 12 10 29l268 477l-268 477q-10 16 -10 29q0 16 12 28.5t29 12.5q20 0 33 -17l352 -479q18 -22 18 -51t-18 -51l-352 -480q-12 -16 -33 -16q-16 0 -28.5 12.5t-12.5 28.5z" />
<glyph unicode="&#x205f;" horiz-adv-x="517" />
<glyph unicode="&#x20ac;" horiz-adv-x="1517" d="M92 610q0 25 17.5 42.5t42.5 17.5h749q25 0 42.5 -17.5t17.5 -42.5t-17.5 -42t-42.5 -17h-749q-25 0 -42.5 17.5t-17.5 41.5zM92 920q0 25 17.5 42t42.5 17h749q25 0 42.5 -17.5t17.5 -41.5q0 -25 -17.5 -42.5t-42.5 -17.5h-749q-25 0 -42.5 17.5t-17.5 42.5zM215 739 q0 172 44 312.5t126 240t196.5 154.5t254.5 55q98 0 177 -25.5t140 -67.5t106.5 -95t73.5 -109q10 -18 17.5 -36.5t7.5 -37.5q0 -25 -13.5 -44t-41.5 -19q-25 0 -39.5 15.5t-22.5 31.5q-55 123 -155 193.5t-250 70.5q-111 0 -201 -46t-153.5 -130t-98.5 -201.5t-35 -261.5 q0 -145 35 -263t97.5 -200.5t151.5 -129t199 -46.5q150 0 241 69t157 202q20 45 59 45q29 0 45.5 -20.5t16.5 -45.5q0 -14 -5.5 -25.5t-9.5 -21.5q-33 -66 -79 -125t-108.5 -103t-140 -69.5t-171.5 -25.5q-139 0 -254 54t-197 154.5t-126 239.5t-44 311z" />
<glyph unicode="&#x2122;" horiz-adv-x="1769" d="M174 1444q0 14 10.5 25.5t24.5 11.5h477q16 0 26.5 -11.5t10.5 -25.5q0 -16 -10.5 -26.5t-26.5 -10.5h-199v-576q0 -16 -11 -27t-27 -11t-28.5 11t-12.5 27v576h-199q-14 0 -24.5 10t-10.5 27zM815 831v611q0 16 11.5 27.5t27.5 11.5h57q20 0 31 -19l154 -329 q4 -10 11 -30t9 -36h4q2 16 9.5 35.5t11.5 30.5q33 70 63 133q27 53 51.5 107t40.5 87q10 20 33 21h55q16 0 27.5 -11.5t11.5 -27.5v-611q0 -16 -12 -27t-29 -11q-39 0 -39 38v504v43q0 14 3 31h-5q-2 -10 -6 -20t-9 -20.5t-9 -20.5q-12 -27 -30.5 -65t-40 -81t-45 -89 t-46.5 -91q-12 -25 -37 -25t-35 25l-163 326q-12 20 -19 41q-4 10 -6 20h-4v-31q0 -12 1 -24.5t1 -18.5v-504q0 -16 -11.5 -27t-27.5 -11t-27.5 11t-11.5 27z" />
<glyph unicode="&#xe000;" horiz-adv-x="1095" d="M0 0v1096h1096v-1096h-1096z" />
</font>
</defs>
</svg>
